<svg xmlns="http://www.w3.org/2000/svg" xmlns:xlink="http://www.w3.org/1999/xlink" width="334" height="287.336" viewBox="0 0 334 287.336"><defs><linearGradient id="a" x1="-13.852" y1="3.512" x2="-13.852" y2="2.512" gradientUnits="objectBoundingBox"><stop offset="0" stop-color="gray" stop-opacity="0.251"/><stop offset="0.54" stop-color="gray" stop-opacity="0.122"/><stop offset="1" stop-color="gray" stop-opacity="0.102"/></linearGradient><linearGradient id="b" x1="-14.487" y1="3.972" x2="-14.487" y2="2.972" xlink:href="#a"/><linearGradient id="c" x1="-15.813" y1="3.547" x2="-15.813" y2="2.547" xlink:href="#a"/><linearGradient id="d" x1="-16.199" y1="3.374" x2="-16.199" y2="2.375" xlink:href="#a"/><linearGradient id="e" x1="0.5" y1="1" x2="0.5" y2="0" xlink:href="#a"/></defs><ellipse cx="41.391" cy="9.446" rx="41.391" ry="9.446" transform="translate(117.055 265.255)" fill="#5ab1ac" opacity="0.1"/><path d="M214.522,72.393c10.17-9.053,26.134-10.912,40.667-10.188,45.642,2.274,86.835,24.3,122.482,49.225,12.883,9.025,25.6,18.749,33.979,31.172,17.061,25.3,11.991,60.335-11.716,81.174-8.064,7.089-17.841,12.534-27.879,17.343-17.848,8.565-37.105,15.445-57.362,17.409-14.442,1.393-29.066.261-43.428-1.689-40.12-5.439-79.5-17.472-112.513-38.059-14.491-9.035-28.122-20.253-34.09-34.877s-2.148-33.1,12.635-41.75c6.114-3.576,13.422-5.191,20.581-6.706,10.536-2.232,21.239-4.432,30.744-8.973,9.819-4.686,21.448-13.75,19.5-24.122C206.037,91.222,204.366,81.445,214.522,72.393Z" transform="translate(-121.206 -53.466)" fill="#5ab1ac" opacity="0.1"/><path d="M282.639,186.686l-6.856,2.653-10.024,3.875c-.38-.7-.937-1.664-1.626-2.785-2.375-3.934-6.305-10.055-9.8-15.435-3.938-6.076-7.333-11.183-7.333-11.183l2.458-.7L269.51,157.3Z" transform="translate(-202.707 -115.543)" fill="#e6ecf8"/><path d="M287.241,186.64l-6.856,2.653a51.715,51.715,0,0,1-11.65,1.072c-2.375-3.934-6.306-10.055-9.8-15.435l-4.874-11.887,20.052-5.815Z" transform="translate(-207.309 -115.498)" opacity="0.1"/><path d="M290.533,179.542s-10.654,6.3-26.562,4.874L251.29,153.5l6.079-1.045,21.009-3.607,11.915,30.089Z" transform="translate(-205.503 -110.035)" fill="#5ab1ac"/><path d="M301.726,178.909a50.136,50.136,0,0,1-8.328-.237,26.589,26.589,0,0,1-9.053-2.542,27.407,27.407,0,0,1-5.919-3.98c-4.418-3.973-7.152-9.658-9.606-19.724l21.009-3.607Z" transform="translate(-216.93 -110.016)" opacity="0.1"/><path d="M306.877,160.326a58.139,58.139,0,0,1-15.846.592,26.667,26.667,0,0,1-9.053-2.542,27.618,27.618,0,0,1-5.919-3.98c-5.466-4.92-8.356-12.458-11.33-27.684a40.261,40.261,0,0,0,25.957-3.753C290.669,122.974,295.021,150.132,306.877,160.326Z" transform="translate(-214.264 -93.16)" fill="#f9fafb"/><path d="M312.242,214.316a26.669,26.669,0,0,1-9.053-2.542,27.618,27.618,0,0,1-5.919-3.98c4.655-.38,5.324-2.925,5.324-2.925C306.03,210.34,312.242,214.316,312.242,214.316Z" transform="translate(-235.474 -146.55)" opacity="0.1"/><path d="M284.07,144.386s10.616-.6,13.579-2.886l.453,1.441a40.642,40.642,0,0,1-14.031,3.134Z" transform="translate(-226.87 -105.244)" fill="#5ab1ac" opacity="0.3"/><path d="M284.07,162.184s10.278-.561,18.043-4.314l.265.6s-6.166,3.6-18.307,4.526Z" transform="translate(-226.87 -115.915)" fill="#5ab1ac" opacity="0.3"/><path d="M286.44,170.184s10.282-.564,18.046-4.314l.261.6s-6.163,3.6-18.307,4.526Z" transform="translate(-228.415 -121.129)" fill="#5ab1ac" opacity="0.3"/><path d="M288.82,178.174s10.278-.561,18.043-4.314l.265.6s-6.166,3.6-18.307,4.526Z" transform="translate(-229.966 -126.337)" fill="#5ab1ac" opacity="0.3"/><path d="M291.19,186.174s10.282-.564,18.046-4.314l.261.6s-6.163,3.6-18.307,4.526Z" transform="translate(-231.511 -131.552)" fill="#5ab1ac" opacity="0.3"/><path d="M293.57,194.164s10.278-.561,18.043-4.314l.265.6s-6.166,3.6-18.307,4.526Z" transform="translate(-233.062 -136.76)" fill="#5ab1ac" opacity="0.3"/><path d="M957.228,284.563l.205.15.031-.324-.136-.289-.219.035Z" transform="translate(-623.465 -185.183)" fill="#464a5f"/><path d="M957.228,284.563l.205.15.031-.324-.136-.289-.219.035Z" transform="translate(-623.465 -185.183)" opacity="0.1"/><path d="M957.085,285.43l.2.153-.139.233-.2-.042-.059-.08Z" transform="translate(-623.322 -186.05)" fill="#9c9ca1"/><path d="M957.085,285.43l.2.153-.139.233-.2-.042-.059-.08Z" transform="translate(-623.322 -186.05)" opacity="0.1"/><path d="M937.521,245.09l-16.329,22.715a1.908,1.908,0,0,0,.428,2.653l34.859,25.267a1.9,1.9,0,0,0,2.653-.418l16.619-22.774Z" transform="translate(-641.929 -172.767)" fill="#9c9ca1"/><path d="M937.521,245.09l-16.329,22.715a1.908,1.908,0,0,0,.428,2.653l34.859,25.267a1.9,1.9,0,0,0,2.653-.418l16.619-22.774Z" transform="translate(-641.929 -172.767)" opacity="0.1"/><path d="M937.342,244l-16.33,22.715a1.9,1.9,0,0,0,.428,2.65l34.849,25.264a1.9,1.9,0,0,0,2.653-.421l16.618-22.771Z" transform="translate(-641.812 -172.056)" fill="#9c9ca1"/><path d="M968,202.806l.432,13.885,38.23,27.443-.362-14.129a2.023,2.023,0,0,0-.857-1.605l-36.8-25.939a.4.4,0,0,0-.644.345Z" transform="translate(-672.671 -144.928)" fill="#464a5f"/><path d="M968,202.806l.432,13.885,38.23,27.443-.362-14.129a2.023,2.023,0,0,0-.857-1.605l-36.8-25.939a.4.4,0,0,0-.644.345Z" transform="translate(-672.671 -144.928)" opacity="0.1"/><path d="M967.34,203.324l.432,13.9L1006,244.663l-.373-14.129a2.026,2.026,0,0,0-.86-1.605l-36.8-25.939a.4.4,0,0,0-.634.334Z" transform="translate(-672.241 -145.276)" fill="#464a5f"/><g transform="translate(289.857 78.018)" opacity="0.1"><path d="M969.788,261.6l-.989,1.393a.383.383,0,0,0,.087.529l1.393,1.045a.379.379,0,0,0,.529-.077l1-1.309a.38.38,0,0,0-.066-.533l-1.421-1.121a.379.379,0,0,0-.533.073Z" transform="translate(-963.005 -261.447)"/><path d="M977.188,266.909,976.2,268.3a.383.383,0,0,0,.087.529l1.393,1.045a.379.379,0,0,0,.529-.077l1-1.309a.38.38,0,0,0-.066-.533l-1.407-1.118a.379.379,0,0,0-.547.07Z" transform="translate(-967.828 -264.906)"/><path d="M984.958,272.5l-.989,1.393a.383.383,0,0,0,.087.529l1.393,1.045a.379.379,0,0,0,.529-.077l1-1.309a.383.383,0,0,0-.066-.533l-1.421-1.118a.38.38,0,0,0-.533.07Z" transform="translate(-972.893 -268.556)"/><path d="M992.816,278.155l-.989,1.393a.383.383,0,0,0,.084.529l1.393,1.045a.38.38,0,0,0,.529-.077l1-1.309a.383.383,0,0,0-.066-.533l-1.421-1.118a.379.379,0,0,0-.529.07Z" transform="translate(-978.014 -272.242)"/><path d="M1000.676,283.8l-.989,1.393a.383.383,0,0,0,.084.529l1.393,1.045a.383.383,0,0,0,.533-.077l1-1.309a.383.383,0,0,0-.066-.533l-1.421-1.118a.379.379,0,0,0-.533.07Z" transform="translate(-983.137 -275.922)"/><path d="M1008.515,289.07l-1.226,1.741a.181.181,0,0,0,.038.247l1.741,1.274a.178.178,0,0,0,.247-.035l1.243-1.629a.178.178,0,0,0-.031-.247l-1.741-1.393a.181.181,0,0,0-.272.042Z" transform="translate(-988.117 -279.397)"/><path d="M1016.375,294.72l-1.226,1.741a.181.181,0,0,0,.038.247l1.741,1.274a.178.178,0,0,0,.247-.035l1.243-1.629a.178.178,0,0,0-.031-.247l-1.741-1.393a.181.181,0,0,0-.272.042Z" transform="translate(-993.241 -283.08)"/><path d="M1023.328,299.713l-1.229,1.741a.177.177,0,0,0,.042.247l1.741,1.274a.181.181,0,0,0,.251-.035l1.243-1.626a.181.181,0,0,0-.031-.251l-1.741-1.393a.178.178,0,0,0-.275.042Z" transform="translate(-997.77 -286.331)"/><path d="M1031.12,305.333l-1.226,1.741a.174.174,0,0,0,.038.247l1.741,1.274a.181.181,0,0,0,.251-.035l1.243-1.626a.181.181,0,0,0-.031-.251l-1.741-1.375a.178.178,0,0,0-.275.024Z" transform="translate(-1002.85 -290.002)"/><path d="M1038.644,310.767l-1.226,1.741a.178.178,0,0,0,.042.247l1.741,1.278a.178.178,0,0,0,.247-.038l1.243-1.626a.181.181,0,0,0-.031-.251l-1.741-1.375a.181.181,0,0,0-.275.024Z" transform="translate(-1007.756 -293.545)"/><path d="M1046.215,316.187l-1.226,1.741a.181.181,0,0,0,.038.247l1.741,1.274a.178.178,0,0,0,.247-.035l1.243-1.629a.177.177,0,0,0-.031-.247l-1.741-1.375a.178.178,0,0,0-.272.024Z" transform="translate(-1012.691 -297.078)"/><path d="M1053.758,321.593l-1.229,1.741a.178.178,0,0,0,.042.247l1.741,1.278a.181.181,0,0,0,.251-.038l1.243-1.626a.181.181,0,0,0-.031-.251l-1.741-1.393a.178.178,0,0,0-.275.042Z" transform="translate(-1017.606 -300.593)"/><path d="M964.623,268.78l-.985,1.393a.383.383,0,0,0,.084.529l1.393,1.045a.386.386,0,0,0,.533-.077l1-1.309a.383.383,0,0,0-.066-.533l-1.421-1.121A.387.387,0,0,0,964.623,268.78Z" transform="translate(-959.639 -266.129)"/><path d="M953.343,284.481l-.985,1.393a.383.383,0,0,0,.083.529l1.393,1.045a.387.387,0,0,0,.533-.073l1-1.309a.383.383,0,0,0-.066-.533l-1.421-1.121A.383.383,0,0,0,953.343,284.481Z" transform="translate(-952.286 -276.364)"/><path d="M972.016,274.1l-.989,1.393a.383.383,0,0,0,.084.529l1.393,1.045a.386.386,0,0,0,.533-.077l1-1.309a.383.383,0,0,0-.066-.533l-1.421-1.121A.383.383,0,0,0,972.016,274.1Z" transform="translate(-964.456 -269.598)"/><path d="M979.793,279.721l-.985,1.393a.383.383,0,0,0,.084.529l1.393,1.045a.386.386,0,0,0,.533-.073l1-1.309a.383.383,0,0,0-.066-.533l-1.421-1.121A.383.383,0,0,0,979.793,279.721Z" transform="translate(-969.527 -273.262)"/><path d="M987.653,285.341l-.985,1.393a.383.383,0,0,0,.083.529l1.393,1.045a.387.387,0,0,0,.533-.073l1-1.313a.38.38,0,0,0-.066-.529l-1.421-1.121A.383.383,0,0,0,987.653,285.341Z" transform="translate(-974.651 -276.925)"/><path d="M960.923,289.551l-.985,1.393a.383.383,0,0,0,.084.529l1.393,1.045a.387.387,0,0,0,.533-.073l1-1.313a.38.38,0,0,0-.066-.529l-1.421-1.121A.383.383,0,0,0,960.923,289.551Z" transform="translate(-957.227 -279.669)"/><path d="M968.693,295.13l-.985,1.393a.383.383,0,0,0,.084.529l1.393,1.045a.386.386,0,0,0,.533-.077l1-1.309a.383.383,0,0,0-.066-.533l-1.421-1.121A.387.387,0,0,0,968.693,295.13Z" transform="translate(-962.292 -283.305)"/><path d="M976.553,300.777l-.985,1.393a.383.383,0,0,0,.084.529l1.393,1.044a.387.387,0,0,0,.533-.077l1-1.309a.383.383,0,0,0-.07-.533l-1.417-1.121A.383.383,0,0,0,976.553,300.777Z" transform="translate(-967.415 -286.985)"/><path d="M995.513,290.949l-.985,1.393a.383.383,0,0,0,.084.529L996,293.916a.386.386,0,0,0,.533-.073l1-1.313a.38.38,0,0,0-.066-.529l-1.407-1.146a.383.383,0,0,0-.55.094Z" transform="translate(-979.774 -280.565)"/><path d="M1003.373,296.631l-.985,1.393a.383.383,0,0,0,.084.529l1.393,1.044a.386.386,0,0,0,.533-.073l1-1.313a.38.38,0,0,0-.066-.529l-1.421-1.121a.383.383,0,0,0-.536.07Z" transform="translate(-984.897 -284.284)"/><path d="M1011.208,301.893l-1.229,1.741a.178.178,0,0,0,.042.247l1.741,1.274a.181.181,0,0,0,.251-.035l1.243-1.626a.181.181,0,0,0-.031-.251l-1.741-1.393a.178.178,0,0,0-.275.042Z" transform="translate(-989.87 -287.752)"/><path d="M1018.164,306.9l-1.226,1.741a.178.178,0,0,0,.042.247l1.741,1.274a.174.174,0,0,0,.247-.035l1.243-1.626a.181.181,0,0,0-.031-.251l-1.741-1.393a.181.181,0,0,0-.275.042Z" transform="translate(-994.407 -291.015)"/><path d="M1025.958,312.517l-1.229,1.741a.178.178,0,0,0,.042.247l1.741,1.274a.174.174,0,0,0,.247-.035l1.243-1.626a.181.181,0,0,0-.031-.251l-1.741-1.375a.177.177,0,0,0-.271.024Z" transform="translate(-999.485 -294.686)"/><path d="M1033.5,317.93l-1.226,1.741a.181.181,0,0,0,.038.247l1.741,1.274a.178.178,0,0,0,.247-.035l1.243-1.629a.178.178,0,0,0-.031-.247l-1.741-1.393a.181.181,0,0,0-.271.042Z" transform="translate(-1004.406 -298.208)"/><path d="M974.426,287.124l-.989,1.393a.383.383,0,0,0,.084.529l1.393,1.044a.383.383,0,0,0,.533-.077l1-1.309a.383.383,0,0,0-.066-.533l-1.4-1.125a.379.379,0,0,0-.554.077Z" transform="translate(-966.027 -278.077)"/><path d="M982.286,292.8l-.989,1.393a.383.383,0,0,0,.084.529l1.393,1.045a.383.383,0,0,0,.533-.077l1-1.309a.383.383,0,0,0-.066-.533l-1.421-1.118a.38.38,0,0,0-.533.07Z" transform="translate(-971.15 -281.788)"/><path d="M990.143,298.451l-.985,1.393a.383.383,0,0,0,.084.529l1.393,1.044a.383.383,0,0,0,.533-.077l1-1.309a.386.386,0,0,0-.066-.533l-1.421-1.118A.383.383,0,0,0,990.143,298.451Z" transform="translate(-976.274 -285.47)"/><path d="M998.023,304.1l-.985,1.393a.383.383,0,0,0,.084.529l1.393,1.045a.383.383,0,0,0,.533-.077l1-1.309a.383.383,0,0,0-.066-.533l-1.421-1.118A.383.383,0,0,0,998.023,304.1Z" transform="translate(-981.41 -289.153)"/><path d="M1005.84,309.383l-1.226,1.741a.174.174,0,0,0,.038.247l1.741,1.274a.181.181,0,0,0,.251-.035l1.243-1.629a.178.178,0,0,0-.031-.247l-1.741-1.375a.177.177,0,0,0-.275.024Z" transform="translate(-986.372 -292.642)"/><path d="M1012.8,314.383l-1.229,1.741a.177.177,0,0,0,.042.247l1.741,1.274a.181.181,0,0,0,.251-.035l1.24-1.626a.174.174,0,0,0-.031-.251l-1.741-1.375a.174.174,0,0,0-.271.024Z" transform="translate(-990.907 -295.901)"/><path d="M1020.638,319.959l-1.229,1.741a.178.178,0,0,0,.042.247l1.741,1.274a.181.181,0,0,0,.251-.035l1.243-1.626a.181.181,0,0,0-.031-.251l-1.741-1.393a.174.174,0,0,0-.275.042Z" transform="translate(-996.017 -299.527)"/><path d="M1028.134,325.4l-1.226,1.741a.184.184,0,0,0,.038.251l1.741,1.274a.181.181,0,0,0,.247-.035l1.243-1.63a.177.177,0,0,0-.031-.247l-1.741-1.393a.181.181,0,0,0-.271.038Z" transform="translate(-1000.906 -303.082)"/><path d="M1041.048,323.367l-1.229,1.741a.178.178,0,0,0,.042.247l1.741,1.274a.178.178,0,0,0,.251-.035l1.243-1.626a.181.181,0,0,0-.031-.251l-1.741-1.375a.181.181,0,0,0-.275.024Z" transform="translate(-1009.321 -301.758)"/><path d="M1048.644,328.784l-1.226,1.741a.185.185,0,0,0,.038.251l1.741,1.274a.181.181,0,0,0,.247-.035l1.243-1.629a.178.178,0,0,0-.031-.247l-1.741-1.393a.181.181,0,0,0-.271.038Z" transform="translate(-1014.274 -305.285)"/><path d="M1014.863,328.036l-1.156,1.626a.237.237,0,0,0,.056.331l1.629,1.2a.237.237,0,0,0,.348-.045l1.17-1.532a.237.237,0,0,0-.042-.348l-1.647-1.3a.24.24,0,0,0-.359.066Z" transform="translate(-992.293 -304.774)"/><path d="M1022.411,333.461l-1.156,1.629a.237.237,0,0,0,.052.331l1.633,1.2a.244.244,0,0,0,.348-.049l1.17-1.532a.24.24,0,0,0-.042-.348l-1.65-1.3a.237.237,0,0,0-.355.063Z" transform="translate(-997.212 -308.311)"/><path d="M1029.94,338.917l-1.156,1.629a.24.24,0,0,0,.056.348l1.633,1.2a.237.237,0,0,0,.348-.045l1.17-1.535a.233.233,0,0,0-.042-.331l-1.647-1.3a.244.244,0,0,0-.362.031Z" transform="translate(-1002.116 -311.88)"/><path d="M1037.494,344.221l-1.226,1.741a.181.181,0,0,0,.042.251l1.741,1.274a.177.177,0,0,0,.247-.035l1.243-1.629a.178.178,0,0,0-.031-.247l-1.741-1.393a.181.181,0,0,0-.275.038Z" transform="translate(-1007.006 -315.345)"/><path d="M958.913,276.177l-1.044,1.494a.383.383,0,0,0,.091.533l4.088,2.911a.379.379,0,0,0,.522-.08l1.114-1.452a.379.379,0,0,0-.083-.543l-4.154-2.953a.38.38,0,0,0-.533.091Z" transform="translate(-955.879 -270.943)"/><path d="M1035.424,330.9l-1.285,1.828a.177.177,0,0,0,.042.247l4.418,3.134a.181.181,0,0,0,.247-.038l1.358-1.776a.178.178,0,0,0-.038-.254l-4.492-3.193a.177.177,0,0,0-.25.052Z" transform="translate(-1005.619 -306.667)"/><path d="M984.168,306.115l-1.229,1.7a.184.184,0,0,0,.038.251l9.575,7.061a.181.181,0,0,0,.247-.035l1.351-1.772a.178.178,0,0,0-.038-.254l-9.686-6.988a.178.178,0,0,0-.258.038Z" transform="translate(-972.245 -290.512)"/></g><path d="M969.666,260.862l-.989,1.393a.383.383,0,0,0,.083.529l1.393,1.045a.383.383,0,0,0,.533-.073l1-1.309a.38.38,0,0,0-.066-.533l-1.421-1.121a.38.38,0,0,0-.533.07Z" transform="translate(-673.067 -182.951)" fill="#464a5f"/><path d="M977.066,266.185l-.989,1.393a.383.383,0,0,0,.083.529l1.393,1.045a.379.379,0,0,0,.529-.073l1-1.309a.38.38,0,0,0-.066-.533l-1.421-1.121A.38.38,0,0,0,977.066,266.185Z" transform="translate(-677.891 -186.421)" fill="#464a5f"/><path d="M984.849,271.714l-.982,1.393a.383.383,0,0,0,.084.529l1.393,1.045a.386.386,0,0,0,.533-.077l1-1.309a.38.38,0,0,0-.066-.533l-1.421-1.121a.383.383,0,0,0-.54.073Z" transform="translate(-682.968 -190.021)" fill="#464a5f"/><path d="M992.7,277.408l-.989,1.393a.383.383,0,0,0,.083.529l1.393,1.044a.386.386,0,0,0,.533-.077l1-1.309a.38.38,0,0,0-.066-.533l-1.421-1.121a.38.38,0,0,0-.533.073Z" transform="translate(-688.078 -193.734)" fill="#464a5f"/><path d="M1000.553,283.06l-.985,1.393a.383.383,0,0,0,.083.529l1.393,1.045a.386.386,0,0,0,.533-.077l1-1.309a.383.383,0,0,0-.066-.533l-1.421-1.121a.387.387,0,0,0-.536.073Z" transform="translate(-693.202 -197.419)" fill="#464a5f"/><path d="M1008.392,288.326l-1.226,1.741a.177.177,0,0,0,.038.247l1.741,1.274a.181.181,0,0,0,.251-.035l1.243-1.629a.178.178,0,0,0-.031-.247l-1.741-1.393a.181.181,0,0,0-.275.042Z" transform="translate(-698.179 -200.892)" fill="#464a5f"/><path d="M1016.249,293.981l-1.225,1.741a.178.178,0,0,0,.038.251l1.741,1.274a.185.185,0,0,0,.251-.035l1.243-1.629a.178.178,0,0,0-.031-.247l-1.741-1.393a.181.181,0,0,0-.275.038Z" transform="translate(-703.3 -204.579)" fill="#464a5f"/><path d="M1023.208,298.973l-1.229,1.741a.178.178,0,0,0,.042.247l1.741,1.274a.181.181,0,0,0,.251-.035l1.243-1.629a.177.177,0,0,0-.031-.247l-1.741-1.393a.178.178,0,0,0-.275.042Z" transform="translate(-707.835 -207.831)" fill="#464a5f"/><path d="M1031,304.576l-1.229,1.741a.178.178,0,0,0,.042.247l1.741,1.274a.181.181,0,0,0,.251-.035l1.243-1.629a.178.178,0,0,0-.031-.247l-1.741-1.393a.181.181,0,0,0-.275.042Z" transform="translate(-712.913 -211.484)" fill="#464a5f"/><path d="M1038.545,310.02l-1.226,1.741a.181.181,0,0,0,.038.247l1.741,1.274a.174.174,0,0,0,.247-.035l1.243-1.626a.181.181,0,0,0-.031-.251L1038.816,310a.181.181,0,0,0-.272.024Z" transform="translate(-717.834 -215.041)" fill="#464a5f"/><path d="M1046.089,315.426l-1.226,1.741a.174.174,0,0,0,.038.247l1.741,1.274a.181.181,0,0,0,.251-.035l1.243-1.629a.178.178,0,0,0-.031-.247l-1.741-1.393a.181.181,0,0,0-.275.042Z" transform="translate(-722.75 -218.557)" fill="#464a5f"/><path d="M1053.638,320.857l-1.229,1.741a.178.178,0,0,0,.042.247l1.741,1.274a.178.178,0,0,0,.247-.035l1.243-1.626a.178.178,0,0,0-.031-.251l-1.741-1.375a.177.177,0,0,0-.271.024Z" transform="translate(-727.67 -222.104)" fill="#464a5f"/><path d="M964.5,268.04l-.985,1.393a.383.383,0,0,0,.084.529l1.393,1.045a.387.387,0,0,0,.533-.077l1-1.309a.383.383,0,0,0-.066-.533l-1.42-1.121A.387.387,0,0,0,964.5,268.04Z" transform="translate(-669.704 -187.629)" fill="#464a5f"/><path d="M953.221,283.721l-.989,1.393a.387.387,0,0,0,.087.529l1.393,1.044a.38.38,0,0,0,.529-.073l1-1.313a.379.379,0,0,0-.07-.529l-1.417-1.121a.383.383,0,0,0-.536.07Z" transform="translate(-662.349 -197.851)" fill="#464a5f"/><path d="M971.9,273.36l-.985,1.393a.383.383,0,0,0,.084.529l1.393,1.045a.386.386,0,0,0,.533-.077l1-1.309a.383.383,0,0,0-.066-.533l-1.42-1.121A.387.387,0,0,0,971.9,273.36Z" transform="translate(-674.527 -191.096)" fill="#464a5f"/><path d="M979.673,278.92l-.985,1.393a.383.383,0,0,0,.084.529l1.393,1.045a.383.383,0,0,0,.533-.077l1-1.309a.386.386,0,0,0-.066-.533l-1.407-1.125a.383.383,0,0,0-.55.077Z" transform="translate(-679.592 -194.714)" fill="#464a5f"/><path d="M987.533,284.591l-.985,1.393a.383.383,0,0,0,.084.529l1.393,1.045a.383.383,0,0,0,.533-.077l1-1.309a.386.386,0,0,0-.066-.533l-1.421-1.118a.383.383,0,0,0-.536.07Z" transform="translate(-684.715 -198.418)" fill="#464a5f"/><path d="M960.8,288.8l-.985,1.393a.383.383,0,0,0,.084.529l1.393,1.045a.383.383,0,0,0,.533-.077l1-1.309a.383.383,0,0,0-.07-.533l-1.417-1.118A.383.383,0,0,0,960.8,288.8Z" transform="translate(-667.292 -201.162)" fill="#464a5f"/><path d="M968.573,294.383l-.985,1.393a.379.379,0,0,0,.083.526l1.393,1.045a.383.383,0,0,0,.529-.077l1-1.309a.383.383,0,0,0-.07-.533l-1.417-1.121A.383.383,0,0,0,968.573,294.383Z" transform="translate(-672.357 -204.797)" fill="#464a5f"/><path d="M976.431,300.013l-.989,1.393a.383.383,0,0,0,.087.526l1.393,1.044a.383.383,0,0,0,.529-.077l1-1.309a.383.383,0,0,0-.07-.533l-1.4-1.125a.383.383,0,0,0-.554.08Z" transform="translate(-677.479 -208.46)" fill="#464a5f"/><path d="M995.393,290.2l-.985,1.393a.383.383,0,0,0,.084.529l1.393,1.045a.383.383,0,0,0,.533-.077l1-1.309a.383.383,0,0,0-.07-.533l-1.386-1.125a.383.383,0,0,0-.567.077Z" transform="translate(-689.838 -202.062)" fill="#464a5f"/><path d="M1003.253,295.892l-.985,1.393a.383.383,0,0,0,.084.529l1.393,1.045a.379.379,0,0,0,.529-.077l1-1.309a.383.383,0,0,0-.07-.533l-1.417-1.118A.383.383,0,0,0,1003.253,295.892Z" transform="translate(-694.962 -205.783)" fill="#464a5f"/><path d="M1011.088,301.173l-1.229,1.741a.178.178,0,0,0,.042.247l1.741,1.274a.181.181,0,0,0,.251-.035l1.243-1.629a.174.174,0,0,0-.035-.247l-1.741-1.375a.174.174,0,0,0-.272.024Z" transform="translate(-699.935 -209.272)" fill="#464a5f"/><path d="M1018.045,306.177l-1.226,1.741a.181.181,0,0,0,.038.247l1.741,1.274a.178.178,0,0,0,.247-.035l1.243-1.626a.181.181,0,0,0-.031-.251l-1.741-1.375a.178.178,0,0,0-.272.024Z" transform="translate(-704.472 -212.535)" fill="#464a5f"/><path d="M1025.835,311.777l-1.226,1.741a.181.181,0,0,0,.038.247l1.741,1.274a.178.178,0,0,0,.247-.035l1.243-1.626a.181.181,0,0,0-.031-.251l-1.741-1.375a.177.177,0,0,0-.271.024Z" transform="translate(-709.55 -216.185)" fill="#464a5f"/><path d="M1033.382,317.21l-1.226,1.741a.177.177,0,0,0,.038.247l1.741,1.278a.181.181,0,0,0,.247-.035l1.243-1.629a.181.181,0,0,0-.031-.251l-1.741-1.375a.181.181,0,0,0-.271.024Z" transform="translate(-714.468 -219.728)" fill="#464a5f"/><path d="M974.3,286.411l-.985,1.393a.383.383,0,0,0,.083.529l1.393,1.045a.383.383,0,0,0,.533-.077l1-1.309a.383.383,0,0,0-.066-.533l-1.421-1.118a.383.383,0,0,0-.536.07Z" transform="translate(-676.092 -199.604)" fill="#464a5f"/><path d="M982.163,292.061l-.985,1.393a.383.383,0,0,0,.084.529l1.393,1.045a.383.383,0,0,0,.533-.077l1-1.309a.383.383,0,0,0-.066-.533l-1.421-1.118a.383.383,0,0,0-.536.07Z" transform="translate(-681.215 -203.287)" fill="#464a5f"/><path d="M990.023,297.72l-.985,1.393a.383.383,0,0,0,.084.529l1.393,1.045a.386.386,0,0,0,.533-.077l1-1.309a.383.383,0,0,0-.066-.533l-1.421-1.121A.386.386,0,0,0,990.023,297.72Z" transform="translate(-686.338 -206.975)" fill="#464a5f"/><path d="M997.883,303.36l-.985,1.393a.383.383,0,0,0,.083.529l1.393,1.045a.386.386,0,0,0,.533-.077l1-1.309a.383.383,0,0,0-.066-.533l-1.42-1.121a.387.387,0,0,0-.536.073Z" transform="translate(-691.461 -210.651)" fill="#464a5f"/><path d="M1005.718,308.626l-1.229,1.741a.178.178,0,0,0,.042.247l1.741,1.274a.181.181,0,0,0,.251-.035l1.243-1.629a.177.177,0,0,0-.031-.247l-1.741-1.393a.181.181,0,0,0-.275.042Z" transform="translate(-696.435 -214.124)" fill="#464a5f"/><path d="M1012.644,313.626l-1.226,1.741a.177.177,0,0,0,.042.247l1.741,1.274a.177.177,0,0,0,.247-.035l1.243-1.629a.178.178,0,0,0-.031-.247l-1.741-1.393a.181.181,0,0,0-.275.042Z" transform="translate(-700.952 -217.383)" fill="#464a5f"/><path d="M1020.468,319.227l-1.229,1.741a.177.177,0,0,0,.042.247l1.741,1.274a.178.178,0,0,0,.247-.035l1.243-1.629a.174.174,0,0,0-.031-.247l-1.741-1.393a.178.178,0,0,0-.271.042Z" transform="translate(-706.049 -221.034)" fill="#464a5f"/><path d="M1028.015,324.66l-1.226,1.741a.181.181,0,0,0,.038.247l1.741,1.278a.178.178,0,0,0,.247-.038l1.243-1.626a.181.181,0,0,0-.031-.251l-1.741-1.393a.181.181,0,0,0-.272.042Z" transform="translate(-710.971 -224.577)" fill="#464a5f"/><path d="M1040.928,322.619l-1.229,1.741a.178.178,0,0,0,.042.247l1.741,1.274a.181.181,0,0,0,.251-.035l1.243-1.626a.181.181,0,0,0-.031-.251l-1.741-1.375a.174.174,0,0,0-.275.024Z" transform="translate(-719.385 -223.249)" fill="#464a5f"/><path d="M1048.475,328.04l-1.226,1.741a.181.181,0,0,0,.038.247l1.741,1.278a.178.178,0,0,0,.247-.038l1.243-1.626a.181.181,0,0,0-.031-.251L1048.746,328a.181.181,0,0,0-.272.042Z" transform="translate(-724.307 -226.78)" fill="#464a5f"/><path d="M1014.751,327.294l-1.156,1.629a.237.237,0,0,0,.052.331l1.633,1.2a.244.244,0,0,0,.348-.049l1.17-1.532a.24.24,0,0,0-.042-.348l-1.647-1.3a.244.244,0,0,0-.359.063Z" transform="translate(-702.362 -226.274)" fill="#464a5f"/><path d="M1022.277,332.734l-1.152,1.626a.244.244,0,0,0,.052.348l1.633,1.2a.237.237,0,0,0,.348-.049l1.173-1.532a.24.24,0,0,0-.045-.348l-1.647-1.3a.24.24,0,0,0-.362.049Z" transform="translate(-707.266 -229.824)" fill="#464a5f"/><path d="M1029.836,338.144l-1.156,1.629a.24.24,0,0,0,.056.331l1.63,1.2a.24.24,0,0,0,.348-.049l1.17-1.532a.237.237,0,0,0-.042-.348l-1.647-1.3a.244.244,0,0,0-.359.063Z" transform="translate(-712.196 -233.346)" fill="#464a5f"/><path d="M1037.375,343.48l-1.225,1.741a.181.181,0,0,0,.038.247l1.741,1.278a.178.178,0,0,0,.247-.038l1.243-1.626a.181.181,0,0,0-.031-.251l-1.741-1.393a.181.181,0,0,0-.271.042Z" transform="translate(-717.072 -236.844)" fill="#464a5f"/><path d="M958.743,275.433l-1.045,1.494a.383.383,0,0,0,.091.533l4.091,2.911a.383.383,0,0,0,.526-.08l1.114-1.452a.379.379,0,0,0-.083-.543l-4.154-2.953a.383.383,0,0,0-.54.091Z" transform="translate(-665.911 -192.438)" fill="#464a5f"/><path d="M1035.3,330.164l-1.285,1.828a.178.178,0,0,0,.042.247l4.418,3.134a.177.177,0,0,0,.244-.038l1.361-1.776a.177.177,0,0,0-.038-.254l-4.491-3.193a.178.178,0,0,0-.251.052Z" transform="translate(-715.683 -228.166)" fill="#464a5f"/><path d="M984.034,305.382l-1.236,1.7a.185.185,0,0,0,.038.251l9.575,7.061a.178.178,0,0,0,.247-.038l1.351-1.772a.178.178,0,0,0-.038-.254l-9.686-6.984a.178.178,0,0,0-.251.038Z" transform="translate(-682.296 -212.018)" fill="#464a5f"/><path d="M959.8,310.389l-5.418,7.5a.971.971,0,0,0,.209,1.351l13.983,10.337a.975.975,0,0,0,1.365-.209l5.592-7.66a.971.971,0,0,0-.216-1.365l-14.157-10.184A.975.975,0,0,0,959.8,310.389Z" transform="translate(-663.676 -215.062)" opacity="0.1"/><path d="M959.679,309.649l-5.421,7.493a.978.978,0,0,0,.212,1.354l13.983,10.337a.975.975,0,0,0,1.365-.209l5.592-7.66a.975.975,0,0,0-.219-1.365l-14.153-10.184A.975.975,0,0,0,959.679,309.649Z" transform="translate(-663.596 -214.58)" fill="#939498"/><path d="M972.18,209.823l.233,11.723,35.315,25.3-.313-11.612a2.033,2.033,0,0,0-.829-1.595l-33.773-24.156a.4.4,0,0,0-.634.338Z" transform="translate(-675.396 -149.512)" fill="#5ab1ac"/><rect width="21.253" height="31.601" rx="2.91" transform="translate(0 123.432) rotate(-35.68)" fill="#3a3768"/><rect width="17.625" height="6.211" rx="0.18" transform="translate(3.162 124.504) rotate(-35.68)" opacity="0.1"/><rect width="17.36" height="6.01" rx="3.005" transform="translate(3.324 124.534) rotate(-35.68)" fill="#e6e8ec"/><rect width="3.506" height="3.896" rx="1.39" transform="translate(8.795 131.294) rotate(-35.68)" opacity="0.1"/><rect width="3.493" height="3.881" rx="1.385" transform="translate(11.691 128.654) rotate(-35.605)" opacity="0.1"/><rect width="3.506" height="3.896" rx="1.39" transform="translate(15.754 126.295) rotate(-35.68)" opacity="0.1"/><rect width="3.506" height="3.896" rx="1.59" transform="translate(19.284 123.866) rotate(-35.68)" opacity="0.1"/><rect width="3.506" height="3.896" rx="1.39" transform="translate(11.29 134.776) rotate(-35.68)" opacity="0.1"/><rect width="3.506" height="3.896" rx="1.39" transform="translate(14.774 132.274) rotate(-35.68)" opacity="0.1"/><rect width="3.506" height="3.896" rx="1.39" transform="translate(18.251 129.775) rotate(-35.68)" opacity="0.1"/><rect width="3.506" height="3.896" rx="1.39" transform="translate(14.053 138.614) rotate(-35.68)" opacity="0.1"/><rect width="3.506" height="3.896" rx="1.39" transform="translate(17.53 136.115) rotate(-35.68)" opacity="0.1"/><rect width="3.506" height="3.896" rx="1.39" transform="translate(21.012 133.619) rotate(-35.68)" opacity="0.1"/><rect width="3.506" height="3.896" rx="1.39" transform="translate(23.769 137.46) rotate(-35.68)" opacity="0.1"/><rect width="3.506" height="3.896" rx="0.91" transform="translate(21.78 127.343) rotate(-35.68)" opacity="0.1"/><rect width="7.789" height="3.896" rx="1.948" transform="translate(16.807 142.455) rotate(-35.68)" opacity="0.1"/><rect width="3.84" height="8.624" rx="1.92" transform="translate(24.217 131.313) rotate(-35.68)" opacity="0.1"/><rect width="1.535" height="0.167" transform="translate(18.439 119.791) rotate(-35.68)" fill="#5ab1ac"/><rect width="1.535" height="0.167" transform="translate(16.614 121.1) rotate(-35.68)" fill="#5ab1ac"/><rect width="1.535" height="0.167" transform="translate(14.788 122.41) rotate(-35.68)" fill="#5ab1ac"/><rect width="1.535" height="0.167" transform="translate(12.964 123.722) rotate(-35.68)" fill="#5ab1ac"/><g transform="translate(197.592 23.634)" opacity="0.1"><path d="M710.169,105.25H688.425a1.139,1.139,0,0,0-1.135,1.135v13.749a1.142,1.142,0,0,0,1.135,1.139h17.061s.442,2.343-1.01,2.6c0,0,3.252.233,2.685-2.6h3.008a1.142,1.142,0,0,0,1.139-1.139V106.385A1.142,1.142,0,0,0,710.169,105.25Z" transform="translate(-687.29 -105.25)"/><g transform="translate(3.203 3.645)" opacity="0.2"><rect width="17.611" height="1.072" rx="0.536"/><rect width="17.611" height="1.072" rx="0.536" transform="translate(0 4.798)"/><rect width="14.77" height="1.072" rx="0.536" transform="translate(0 7.197)"/><rect width="7.636" height="1.072" rx="0.536" transform="translate(0 2.399)"/></g></g><path d="M710.709,105h-21.74a1.139,1.139,0,0,0-1.139,1.135v13.736a1.139,1.139,0,0,0,1.139,1.146h17.061s.442,2.347-1.01,2.6c0,0,3.248.233,2.681-2.6h3.015a1.139,1.139,0,0,0,1.135-1.135V106.128A1.139,1.139,0,0,0,710.709,105Z" transform="translate(-490.05 -81.453)" fill="#f9fafb"/><g transform="translate(200.983 27.186)" opacity="0.2"><rect width="17.611" height="1.072" rx="0.536" fill="#5ab1ac"/><rect width="17.611" height="1.072" rx="0.536" transform="translate(0 4.798)" fill="#5ab1ac"/><rect width="14.77" height="1.072" rx="0.536" transform="translate(0 7.193)" fill="#5ab1ac"/><rect width="7.636" height="1.072" rx="0.536" transform="translate(0 2.399)" fill="#5ab1ac"/></g><g transform="translate(213.945 0.219)" opacity="0.1"><path d="M761.773,38H735.625a1.368,1.368,0,0,0-1.365,1.393V55.9a1.368,1.368,0,0,0,1.365,1.368h20.515s.529,2.82-1.215,3.134c0,0,3.91.279,3.224-3.134h3.625a1.372,1.372,0,0,0,1.368-1.368v-16.5A1.368,1.368,0,0,0,761.773,38Z" transform="translate(-734.259 -38)"/><g transform="translate(3.851 4.394)" opacity="0.2"><rect width="21.183" height="1.292" rx="0.646"/><rect width="17.478" height="1.292" rx="0.646" transform="translate(0 5.769)"/><rect width="12.583" height="1.292" rx="0.646" transform="translate(0 2.886)"/></g></g><path d="M762.753,37.37H736.6a1.368,1.368,0,0,0-1.365,1.368V55.259a1.368,1.368,0,0,0,1.365,1.365H757.12s.529,2.82-1.215,3.134c0,0,3.91.282,3.227-3.134h3.621a1.372,1.372,0,0,0,1.368-1.365V38.738A1.372,1.372,0,0,0,762.753,37.37Z" transform="translate(-520.953 -37.37)" fill="#f9fafb"/><g transform="translate(218.138 4.387)" opacity="0.2"><rect width="21.183" height="1.292" rx="0.646" fill="#5ab1ac"/><rect width="17.478" height="1.292" rx="0.646" transform="translate(0 5.769)" fill="#5ab1ac"/><rect width="12.583" height="1.292" rx="0.646" transform="translate(0 2.883)" fill="#5ab1ac"/></g><path d="M316.249,536.775l23.617-8.823a2.242,2.242,0,0,1,2.89,1.32h0a2.246,2.246,0,0,1-1.316,2.89l-23.617,8.823-5.062-.508Z" transform="translate(-245.571 -357.05)" fill="#be8b87"/><path d="M342.042,529.224h0a2.249,2.249,0,0,1-1.316,2.893l-23.617,8.823-3.8-.383-.55.581,5.063.508,23.617-8.823a2.246,2.246,0,0,0,1.316-2.89h0a2.239,2.239,0,0,0-.919-1.125,2.182,2.182,0,0,1,.205.414Z" transform="translate(-245.571 -357.702)" fill="#fff" opacity="0.1"/><path d="M195.319,516.19l1.574,4.209-4.154-.418-.909-.091,1.24-1.316Z" transform="translate(-124.637 -336.465)" fill="#efc8c4"/><path d="M314,560.41a.912.912,0,0,1,.24.265.379.379,0,0,1,0,.411.966.966,0,0,1-.226.164.759.759,0,0,0-.348.568l-.909-.091Z" transform="translate(-245.571 -378.3)" fill="#727a9c"/><g transform="translate(214.4 160.585)" opacity="0.5"><rect width="7.764" height="25.39" transform="translate(0 1.938) rotate(-14.452)" fill="url(#a)"/></g><rect width="7.38" height="25.049" transform="translate(214.685 162.626) rotate(-14.452)" fill="#f9fafb"/><rect width="5.218" height="5.218" transform="translate(215.834 162.737) rotate(-14.452)" fill="#f7b643"/><rect width="5.209" height="5.209" transform="translate(217.211 167.842) rotate(-14.61)" fill="#f7b643" opacity="0.5"/><rect width="5.209" height="5.209" transform="translate(218.796 173.927) rotate(-14.61)" fill="#f7b643" opacity="0.3"/><g transform="translate(207.594 163.106)" opacity="0.5"><rect width="7.75" height="25.253" transform="translate(0 4.216) rotate(-32.95)" fill="url(#b)"/></g><rect width="7.367" height="24.912" transform="translate(207.895 167.324) rotate(-32.95)" fill="#f9fafb"/><rect width="5.209" height="5.209" transform="translate(209.025 167.073) rotate(-32.95)" fill="#f97878"/><rect width="5.209" height="5.209" transform="translate(212.448 172.347) rotate(-32.95)" fill="#f97878" opacity="0.5"/><rect width="5.209" height="5.209" transform="translate(215.869 177.625) rotate(-32.95)" fill="#f97878" opacity="0.3"/><g transform="translate(204.607 165.944)" opacity="0.5"><rect width="7.75" height="25.253" transform="translate(0 5.447) rotate(-44.65)" fill="url(#c)"/></g><rect width="7.367" height="24.912" transform="translate(204.909 171.331) rotate(-44.65)" fill="#f9fafb"/><rect width="5.209" height="5.209" transform="translate(205.963 170.86) rotate(-44.65)" fill="#73b53b"/><rect width="5.209" height="5.209" transform="translate(210.38 175.332) rotate(-44.65)" fill="#73b53b" opacity="0.5"/><rect width="5.209" height="5.209" transform="translate(214.796 179.805) rotate(-44.65)" fill="#73b53b" opacity="0.3"/><g transform="translate(203.226 168.509)" opacity="0.5"><rect width="7.75" height="25.253" transform="translate(0 6.095) rotate(-51.85)" fill="url(#d)"/></g><rect width="7.367" height="24.912" transform="translate(203.513 174.507) rotate(-51.85)" fill="#fff"/><rect width="5.209" height="5.209" transform="translate(204.499 173.906) rotate(-51.85)" fill="#5ab1ac"/><rect width="5.209" height="5.209" transform="translate(209.442 177.791) rotate(-51.85)" fill="#5ab1ac" opacity="0.5"/><rect width="5.209" height="5.209" transform="translate(214.391 181.673) rotate(-51.85)" fill="#5ab1ac" opacity="0.3"/><path d="M931,597.689a5.376,5.376,0,1,0,2.622,7.141A5.376,5.376,0,0,0,931,597.689Zm-3.659,7.9a3.328,3.328,0,1,1,2.547.105A3.332,3.332,0,0,1,927.342,605.593Z" transform="translate(-643.58 -402.275)" fill="#f0cbc6"/><path d="M903.507,559l-10,7.037a4.9,4.9,0,0,0-2.113,4.008c0,2.528,1.152,6.323,6.668,9.749a4.99,4.99,0,0,0,5.4-.087l9.749-6.521Z" transform="translate(-622.735 -377.381)" fill="#f0cbc6"/><path d="M935.63,572.142c-1.605,1.333-5.411-.62-8.506-4.359s-4.307-7.844-2.7-9.174,5.418.623,8.513,4.359c.195.24.39.48.567.721l.2.275a14.337,14.337,0,0,1,2.479,5.024c.035.167.07.331.091.491A2.776,2.776,0,0,1,935.63,572.142Z" transform="translate(-643.804 -376.853)" fill="#f0cbc6"/><ellipse cx="3.05" cy="7.106" rx="3.05" ry="7.106" transform="translate(279.341 184.983) rotate(-39.63)" fill="#f9fafb"/><path d="M937.127,573.06c-.024.045-.052.087-.077.129a1.393,1.393,0,0,1-.247.265c-.79.658-2.246.327-3.83-.7l-.164-.112a12.936,12.936,0,0,1-1.476-1.191,15.96,15.96,0,0,1-1.414-1.508,12.775,12.775,0,0,1-.832-1.093,13.639,13.639,0,0,1-.992-1.65.554.554,0,0,1-.035-.063c-1.045-2.051-1.222-3.872-.324-4.613,1.3-1.076,4.38.5,6.883,3.527a12.246,12.246,0,0,1,.829,1.1c.056.073.108.15.157.226C937.151,569.665,937.764,571.925,937.127,573.06Z" transform="translate(-646.05 -379.46)" opacity="0.1"/><path d="M940.184,579.312a2.233,2.233,0,0,1-1.142,1.072l-.16.056a1.777,1.777,0,0,1-.348.07,2.9,2.9,0,0,1-1.222-.143c-1.643-.519-2.4-.508-2.747-.348a12.953,12.953,0,0,1-1.476-1.191,15.975,15.975,0,0,1-1.414-1.508,12.775,12.775,0,0,1-.832-1.093,13.624,13.624,0,0,1-.992-1.65c1.661.662,4.9,1.831,5.989,1.333a3.405,3.405,0,0,0,1.253-1.212h0l.108-.167.045-.073c.087-.143.174-.282.251-.428A14.391,14.391,0,0,1,940.184,579.312Z" transform="translate(-647.805 -387.178)" opacity="0.1"/><path d="M940.274,580.285a2.249,2.249,0,0,1-1.393,1.313,1.74,1.74,0,0,1-.348.07h0a2.9,2.9,0,0,1-1.222-.143,6.967,6.967,0,0,0-2.354-.442,1.148,1.148,0,0,0-.393.084,12.939,12.939,0,0,1-1.476-1.191,15.96,15.96,0,0,1-1.414-1.508,12.765,12.765,0,0,1-.832-1.093,13.362,13.362,0,0,1-.992-1.65c.073.031.146.063.23.091,1.716.675,4.718,1.716,5.759,1.247a3.422,3.422,0,0,0,1.257-1.222l.108-.167.045-.073a1.135,1.135,0,0,0,.066-.108,8,8,0,0,0,.386-.721,14.343,14.343,0,0,1,2.479,5.024C940.219,579.961,940.254,580.125,940.274,580.285Z" transform="translate(-647.805 -387.66)" opacity="0.1"/><path d="M944.251,554.945a4.935,4.935,0,0,1-1.288.738,4.178,4.178,0,0,0-2.479,4.749l.021.087c.568,2.392.32,5.734-1.622,6.292a1.785,1.785,0,0,1-.348.07,2.9,2.9,0,0,1-1.222-.143c-1.643-.519-2.4-.508-2.747-.348a12.946,12.946,0,0,1-1.476-1.191,15.974,15.974,0,0,1-1.414-1.508,12.746,12.746,0,0,1-.832-1.093,13.627,13.627,0,0,1-.992-1.65c1.661.662,4.9,1.831,5.989,1.337a3.422,3.422,0,0,0,1.257-1.222l.108-.167.045-.073a8.424,8.424,0,0,0,1.243-3.9c.129-1.88.961-5.146,5.278-4.122a1.222,1.222,0,0,1,.481,2.148Z" transform="translate(-647.805 -373.211)" fill="#59393c"/><path d="M802.127,820.264s-14.721-.888-12.983,9.429a2.51,2.51,0,0,0,1.306,2.65s.028-.766,1.511-.5a6.747,6.747,0,0,0,1.6.076,3.308,3.308,0,0,0,1.957-.808h0s4.136-1.709,5.748-8.471c0,0,1.187-1.476,1.142-1.856l-2.486,1.062a4.449,4.449,0,0,1,.181,3.28s-.08-3.214-.557-3.134c-.1,0-1.292.623-1.292.623s1.462,3.134.348,5.39c0,0,.421-3.83-.815-5.163l-1.741,1.02s1.706,3.224.55,5.853c0,0,.3-4.032-.916-5.606l-1.584,1.236s1.6,3.179.623,5.359c0,0-.125-4.7-.968-5.052a9.117,9.117,0,0,0-1.6,1.741s1.1,2.3.418,3.524c0,0-.418-3.134-.763-3.134a10.292,10.292,0,0,0-1.522,3.482,7.548,7.548,0,0,1,1.187-3.694,4.138,4.138,0,0,0-2.113,1.093s.216-1.466,2.455-1.591a9.669,9.669,0,0,1,1.448-1.671,9.094,9.094,0,0,0-3.579.414s1.187-1.393,3.987-.756l1.563-1.278a12.876,12.876,0,0,0-4.178.045s1.434-1.226,4.6-.348l1.706-1.017a15.54,15.54,0,0,0-3.994-.348s1.574-.849,4.492.07l1.219-.547s-1.835-.348-2.371-.418-.564-.205-.564-.205a6.357,6.357,0,0,1,3.444.383A15.374,15.374,0,0,0,802.127,820.264Z" transform="translate(-555.996 -547.666)" fill="#5ab1ac"/><ellipse cx="10.417" cy="1.762" rx="10.417" ry="1.762" transform="translate(225.575 283.813)" fill="#5ab1ac" opacity="0.1"/><path d="M893.96,742.22s-8.3-.5-7.312,5.313a1.417,1.417,0,0,0,.738,1.494s0-.428.85-.282a3.872,3.872,0,0,0,.9.042,1.883,1.883,0,0,0,1.1-.456h0s2.333-.961,3.238-4.777c0,0,.672-.829.644-1.045l-1.393.6a2.513,2.513,0,0,1,.1,1.849s-.045-1.814-.313-1.769c-.056,0-.728.348-.728.348a4.132,4.132,0,0,1,.2,3.04s.237-2.169-.46-2.911l-.985.561a4.359,4.359,0,0,1,.31,3.3s.167-2.274-.515-3.161l-.895.7s.905,1.79.348,3.019c0,0-.07-2.646-.547-2.848a5.385,5.385,0,0,0-.9.975s.616,1.3.233,1.985c0,0-.233-1.765-.428-1.772a5.85,5.85,0,0,0-.86,1.971,4.261,4.261,0,0,1,.672-2.089,2.357,2.357,0,0,0-1.194.616s.122-.825,1.393-.9a5.418,5.418,0,0,1,.815-.94,5.113,5.113,0,0,0-2.016.233,2.259,2.259,0,0,1,2.246-.425l.884-.721a7.277,7.277,0,0,0-2.357.024,2.842,2.842,0,0,1,2.594-.188l.961-.574a8.784,8.784,0,0,0-2.253-.2,3.461,3.461,0,0,1,2.535.042l.7-.31s-1.045-.2-1.337-.233-.317-.118-.317-.118a3.58,3.58,0,0,1,1.939.216A8.3,8.3,0,0,0,893.96,742.22Z" transform="translate(-619.591 -496.801)" fill="#5ab1ac"/><ellipse cx="5.874" cy="0.992" rx="5.874" ry="0.992" transform="translate(262.781 251.742)" fill="#5ab1ac" opacity="0.1"/><path d="M750.386,756.706s-10.017-.606-8.837,6.417a1.713,1.713,0,0,0,.891,1.8s.017-.519,1.045-.348a4.735,4.735,0,0,0,1.086.052,2.3,2.3,0,0,0,1.334-.55h0s2.817-1.163,3.91-5.769c0,0,.811-1,.78-1.26l-1.692.721a3.033,3.033,0,0,1,.122,2.235s-.052-2.19-.38-2.138c-.066,0-.877.421-.877.421s1,2.127.244,3.67c0,0,.286-2.618-.554-3.517l-1.191.7s1.163,2.193.372,3.987c0,0,.2-2.747-.623-3.83l-1.079.839s1.093,2.162.428,3.649c0,0-.087-3.2-.661-3.44a6.483,6.483,0,0,0-1.086,1.177s.749,1.567.282,2.4c0,0-.282-2.131-.515-2.141a6.99,6.99,0,0,0-1.045,2.378,5.122,5.122,0,0,1,.808-2.514,2.829,2.829,0,0,0-1.438.745s.146-1,1.671-1.086a6.545,6.545,0,0,1,.985-1.135,6.2,6.2,0,0,0-2.437.282,2.733,2.733,0,0,1,2.716-.515l1.065-.867a8.757,8.757,0,0,0-2.845.028s.975-.832,3.134-.226l1.159-.7a11.438,11.438,0,0,0-2.719-.233,4.163,4.163,0,0,1,3.057.049l.832-.373s-1.25-.247-1.616-.286-.383-.139-.383-.139a4.327,4.327,0,0,1,2.343.261A10.176,10.176,0,0,0,750.386,756.706Z" transform="translate(-525.003 -506.241)" fill="#5ab1ac"/><ellipse cx="7.092" cy="1.198" rx="7.092" ry="1.198" transform="translate(211.393 258.1)" fill="#5ab1ac" opacity="0.1"/><path d="M524.11,183.921s.543-1.626-.216-2.469l-1.574-1.741L514.312,168.1s-1.95-2.312-1.626-3.677-1.842-2.838-1.842-2.838,1.177-1.459.488-2.329-1.79-2.207-1.79-2.681-4.161-6.615-9.582-8.113l.167-.122a8.592,8.592,0,0,0-.951-.157c-3.924-.432-5.78-.655-9.154-2.089l-.181.191-.467-.191c-.951-.4-2.019-.9-3.287-1.522s-2.629-1.316-4.29-2.18a11.434,11.434,0,0,1-2.089-3.861c-.059-.174-.111-.348-.16-.54a11.915,11.915,0,0,0,6.065-10.316,11.646,11.646,0,0,0-1.595-5.895c-.066-.115-.143-.223-.212-.348.024-.028.049-.052.07-.08a2.756,2.756,0,0,0,.195-.3,4.784,4.784,0,0,0,.289-.655c.042-.111.08-.223.118-.348.157-.456.313-.912.474-1.368l.47-1.368a9.089,9.089,0,0,0,.575-2.57,3.33,3.33,0,0,0-.132-1.1,2.825,2.825,0,0,0-.216-.508,2.576,2.576,0,0,0-.153-.244c-.794-1.121-2.5-1.591-2.862-2.9a2.438,2.438,0,0,1-.073-.637v-.971a1.892,1.892,0,0,0-.028-.282,2.225,2.225,0,0,0-.073-.31.08.08,0,0,0-.024-.07,2.489,2.489,0,0,0-.118-.279h0a2.294,2.294,0,0,0-.171-.279.262.262,0,0,0-.028-.038,4.568,4.568,0,0,0-2.4-1.532,9.449,9.449,0,0,0-6.483.418,2.114,2.114,0,0,1-.912.272c-.515,0-.912-.425-1.358-.675-1.434-.811-3.231.049-4.61.947a7.068,7.068,0,0,0-1.835,1.539c-.453.6-.7,1.316-1.125,1.936-1.323,1.967-3.962,2.6-5.874,4.042a9.554,9.554,0,0,0-3.506,6.594,18.278,18.278,0,0,0,1,7.51,8.4,8.4,0,0,0,.289.8c-.3,3.353,1.093,7.622,1.292,8.356.327,1.208-3.9,5.045-3.9,5.045l-13.011,11.264s-.052-.324-1.72-.205-4.794,3.9-4.794,3.9l.251.021c-.16.185-.251.3-.251.3l.679.056c-2.019,1.741-4.4,3.83-5.637,5.052-.348.327-.627.609-.829.829-1.741,1.891-.6,7.1-.6,7.1s-.272,3.2,4.77,3.625c0,0,5.853,1.156,8.725,0s8.328-1.445,8.328-1.445-2.232,7.489-2.089,9.7-1.49,10.052-1.49,10.052l-4.986,26.207s-4.666,9.108,9.4,10.445v.425s.348.052.895.111c-.024.3-.049.613-.073.937a52.2,52.2,0,0,0-.282,5.362,2.472,2.472,0,0,0,.87,1l.543,4.624a33.841,33.841,0,0,0,1.045,5.146c.5,1.163,1.741,4.262,1.518,5.261s.811,4.307.811,4.307.487,3.207.651,3.994,0,8.617,0,8.617a14.922,14.922,0,0,0,3.2,1.149c.031.125.063.258.1.39.512,2.089,1.229,4.986,1.623,6.493.648,2.521,2.058,6.936,2.058,6.936s.16,5.731,1.135,6.835.759,11.929,4.874,18.547c2.956,4.753,6.581,13.75,8.391,18.453-.066,2.124-.167,4.443-.313,6.424a4.61,4.61,0,0,0-1.128,2.04c-.487,2.364-3.52,6.354-3.52,6.354s-3.088,2.577-4.391,2.946a2.305,2.305,0,0,0-.655.348c-1.337.951-2.907,3.457.275,4.443a11.729,11.729,0,0,0,4.843.066,6.183,6.183,0,0,0,0,.985s-1.626,3.994-2.333,5.519c-.258.557-.836,1.358-1.347,2.2-.9,1.483-1.591,3.1,0,3.788.487.209,8.889-.157,11.706.735s4.822-2.051,4.822-2.051a15.445,15.445,0,0,1,.867-4.255c.369-.721.108-2.3-.185-3.534h0c-.226-.933-.467-1.664-.467-1.664a50.422,50.422,0,0,1-.7-7.594l4.147-3.022a3.732,3.732,0,0,0,1.455-3.917l-.139-.554c-.644-2.528-1.654-5.992-2.723-7.66a7.206,7.206,0,0,1,.7-1.779c1.3-1.891,3.687-13.61,4.283-15.4a17.693,17.693,0,0,0,.432-1.887c.749-3.691,1.884-12.674.042-16.831l-.943-10.153s-.54-7.775.056-10.769a50.411,50.411,0,0,0,.62-5.853v-.139l5.616.275V240.678l.491-9.213.049-.933h0a5.927,5.927,0,0,0,.759.209c1.065-.679,1.334-2.333,1.285-4.028a16.911,16.911,0,0,0-.188-2.716,6.591,6.591,0,0,0,1.814-3.189l11.758-10.626.049-.094c.265-.533,1.6-3.221,2.11-4.638.47-1.309.16-8.356.038-10.7.769.066,1.7.139,2.59.185a10.444,10.444,0,0,0,2.977-.087c.978-.421,2.221-3.367,3.2-5.15S524.11,183.921,524.11,183.921Zm-61.5-41.186s.275-2.615.306-5.842l1.741-.578a9.656,9.656,0,0,0,.822.7q.07.348.125.731a17.113,17.113,0,0,1-.07,6.379c-.084.059-2.385,1.616-2.946,3.28a2.452,2.452,0,0,1-2,1.431,6.241,6.241,0,0,1-1.372.108l-2.134.348ZM474.2,268.222c-.073-.2-.136-.376-.195-.533l.15-.091v-1.208h0c.014.47.024,1.1.045,1.818Z" transform="translate(-319.656 -81.585)" fill="url(#e)"/><path d="M555.05,198.139s-5.874,7.5-10.578,13.412c-3.033,3.806-5.571,6.964-5.762,7.016a2.992,2.992,0,0,1-.571-.028c-2.368-.209-11.361-1.462-15.452-2.04l-2.047-.289s.129-3.537.672-7.827c.644-5.146,1.887-11.371,4.2-13.857A7.069,7.069,0,0,0,527,191.994a16.241,16.241,0,0,0,.369-7.413,27.96,27.96,0,0,0-1.069-4.526s14.926-8.8,14.139-.783a15.243,15.243,0,0,0,.547,6.1,10.418,10.418,0,0,0,3.384,5.223l.063.045Z" transform="translate(-381.072 -127.668)" fill="#ffb9b9"/><path d="M551.6,185.389a11.949,11.949,0,0,1-13.6-.808,27.94,27.94,0,0,0-1.069-4.526s14.926-8.8,14.139-.783A15.244,15.244,0,0,0,551.6,185.389Z" transform="translate(-391.69 -127.668)" opacity="0.1"/><path d="M550.781,149.755a11.932,11.932,0,1,1-1.553-5.877A11.932,11.932,0,0,1,550.781,149.755Z" transform="translate(-385.162 -102.853)" fill="#ffb9b9"/><path d="M549.219,143.915a1.98,1.98,0,0,1-.136.212c-.787,1.069-2.312,1.243-3.635,1.132-1.563-.136-3.294-.7-3.962-2.11-.616-1.309-.446-2.712-2.141-2.907-1.469-.171-3.44-1.2-4.875-.609-1.132.47-1.584,1.842-1.689,3.067a9.346,9.346,0,0,1-.571,3.614c-.54,1.027-1.591,1.71-2.138,2.733a6.507,6.507,0,0,0-.324,3.851,6.935,6.935,0,0,1-.244,3.861,2.555,2.555,0,0,1-.167.3,11.942,11.942,0,1,1,19.881-13.144Z" transform="translate(-385.154 -102.889)" opacity="0.1"/><path d="M528.89,122.906c.669,1.417,2.4,1.974,3.962,2.106,1.323.115,2.848-.059,3.635-1.132a4.562,4.562,0,0,0,.581-1.285l.912-2.73c.481-1.445.933-3.134.073-4.4-.769-1.118-2.416-1.584-2.768-2.9a15.387,15.387,0,0,1-.087-1.884,3.586,3.586,0,0,0-2.723-2.5,8.851,8.851,0,0,0-6.267.418,2.027,2.027,0,0,1-.881.268c-.5,0-.881-.421-1.313-.672-1.393-.808-3.134.049-4.453.944a6.84,6.84,0,0,0-1.776,1.535c-.435.6-.7,1.309-1.086,1.929-1.281,1.96-3.83,2.59-5.675,4.028a9.57,9.57,0,0,0-3.388,6.57,18.859,18.859,0,0,0,.958,7.486,5.335,5.335,0,0,0,.574,1.361c.752,1.142,2.249,1.629,2.98,2.785.588.93.644,2.232,1.539,2.876,1.062.762,2.664,0,3.228-1.194a6.99,6.99,0,0,0,.244-3.865,6.51,6.51,0,0,1,.324-3.851c.543-1.024,1.6-1.706,2.138-2.733a9.346,9.346,0,0,0,.571-3.614c.1-1.226.557-2.594,1.692-3.064,1.424-.592,3.395.439,4.874.606C528.445,120.194,528.274,121.594,528.89,122.906Z" transform="translate(-372.547 -83.273)" fill="#b96b6b"/><g transform="translate(135.992 26.183)" opacity="0.1"><path d="M513.353,175.673c-.735-1.156-2.232-1.643-2.984-2.785a.223.223,0,0,1,0-.028c.021.08.045.16.07.24a5.335,5.335,0,0,0,.575,1.361c.752,1.142,2.249,1.629,2.98,2.785.042.066.084.136.122.209A12.175,12.175,0,0,0,513.353,175.673Z" transform="translate(-510.369 -151.868)"/><path d="M585.256,114.112a2.152,2.152,0,0,0,.554.937,8.312,8.312,0,0,0,0-1.25,2.416,2.416,0,0,0-.6-1.229A6.509,6.509,0,0,0,585.256,114.112Z" transform="translate(-559.136 -112.57)"/><path d="M535.234,136.856c-1.469-.167-3.444-1.2-4.875-.606-1.135.47-1.588,1.838-1.689,3.064a9.219,9.219,0,0,1-.575,3.614c-.536,1.027-1.591,1.71-2.134,2.733a6.48,6.48,0,0,0-.324,3.851,6.98,6.98,0,0,1-.244,3.865c-.564,1.184-2.169,1.957-3.231,1.194a2.159,2.159,0,0,1-.623-.749c.348.839.526,1.8,1.253,2.319,1.062.762,2.664,0,3.228-1.194a6.99,6.99,0,0,0,.244-3.865,6.509,6.509,0,0,1,.324-3.851c.543-1.024,1.6-1.706,2.138-2.733a9.347,9.347,0,0,0,.571-3.614c.1-1.226.557-2.594,1.692-3.064,1.424-.592,3.395.439,4.874.606a1.668,1.668,0,0,1,1.247.648C536.759,138,536.63,137.02,535.234,136.856Z" transform="translate(-517.65 -127.887)"/><path d="M577.176,129.429c-.052-.073-.1-.143-.16-.209a7.826,7.826,0,0,1-.543,3.043l-.909,2.73a4.475,4.475,0,0,1-.585,1.285c-.783,1.069-2.312,1.243-3.635,1.132a4.915,4.915,0,0,1-3.764-1.769,9.151,9.151,0,0,0,.432,1.233c.668,1.417,2.4,1.974,3.962,2.106,1.323.115,2.848-.059,3.635-1.132a4.566,4.566,0,0,0,.581-1.285c.3-.909.609-1.818.912-2.73C577.583,132.388,578.036,130.686,577.176,129.429Z" transform="translate(-547.66 -123.423)"/></g><rect width="7.869" height="16.625" rx="3.934" transform="translate(135.482 41.283) rotate(-18.77)" fill="#464a5f"/><rect width="7.869" height="16.625" rx="3.934" transform="translate(135.201 41.284) rotate(-18.77)" fill="#9c9ca1"/><circle cx="1.236" cy="1.236" r="1.236" transform="translate(139.126 43.428)" fill="#939498"/><path d="M520.49,572.176s1.518,6.389,2.148,8.9,1.992,6.915,1.992,6.915.157,5.707,1.1,6.807.735,11.89,4.714,18.488,9.22,21.423,9.22,21.423l.7,5.028,6.706-7.8-5.571-28.551s-3.245-11.573-2.253-15.187S535.1,570.55,535.1,570.55Z" transform="translate(-380.974 -384.909)" fill="#ffb9b9"/><path d="M547.013,631.934l-6.706,7.806-.7-5.028s-5.223-14.822-9.22-21.423S526.62,595.9,525.677,594.8s-1.1-6.81-1.1-6.81-1.361-4.4-1.992-6.915c-.376-1.5-1.069-4.394-1.567-6.469-.348-1.393-.581-2.437-.581-2.437l14.623-1.622s.164.442.421,1.191c1.208,3.464,4.526,13.485,3.715,16.458-1,3.614,2.256,15.187,2.256,15.187Z" transform="translate(-380.942 -384.909)" opacity="0.05"/><path d="M561.208,759.645l-5.856,4.4c-2.831,3.039-11.142,5.553-14.77,4.4-3.078-.982-1.56-3.482-.265-4.429a2.15,2.15,0,0,1,.63-.348c1.257-.369,4.244-2.935,4.244-2.935s2.932-3.98,3.4-6.337,3.83-4.3,3.83-4.3,4.5-4.4,6.546-3.51c1.333.585,2.712,5.352,3.513,8.586l.132.554a3.778,3.778,0,0,1-1.407,3.917Z" transform="translate(-392.895 -499.578)" fill="#c7c0d9"/><path d="M561.208,775.967l-5.856,4.4c-2.831,3.04-11.142,5.554-14.77,4.4-3.078-.982-1.56-3.482-.265-4.429,1.25,1.953,5.815,1.6,5.815,1.6l8.119-3.614,8.227-6.814.132.554a3.778,3.778,0,0,1-1.4,3.9Z" transform="translate(-392.895 -515.9)" opacity="0.1"/><path d="M539.185,633.625s-5.223-14.825-9.216-21.423-3.771-17.388-4.714-18.488-1.1-6.807-1.1-6.807-1.361-4.4-1.988-6.915c-.38-1.5-1.072-4.394-1.57-6.469-.348-1.393-.581-2.437-.581-2.437l13.708-1.525-.038-.1-14.623,1.626s.244,1.045.581,2.437c.495,2.089,1.191,4.965,1.567,6.469.627,2.514,1.988,6.915,1.988,6.915s.157,5.707,1.1,6.807.731,11.89,4.714,18.488,9.216,21.423,9.216,21.423l.7,5.028.815-.947Z" transform="translate(-380.042 -384.199)" opacity="0.05"/><rect width="16.34" height="18.875" transform="translate(177.436 93.388)" fill="#caa8b1"/><path d="M642.1,355.385c-.494,1.41-1.783,4.088-2.04,4.617-.028.066-.045.1-.045.1l-11.744,10.933-.282.261-.073-.24c-.62-2.089-5.038-16.9-5.571-17.712-.425-.637-.219-3.252-.087-4.568.049-.467.087-.766.087-.766L622,337.743l1.741-3.342,16.124,5.1,2.26,4.439S642.647,353.811,642.1,355.385Z" transform="translate(-447.141 -230.981)" fill="#caa8b1"/><path d="M638.179,384.868c-.028.066-.045.1-.045.1L626.39,395.9l-.348.021-4.011.24-2.911-23.61s.477.435,1.271,1.09c2.312,1.9,7.312,5.682,11.142,6.18C635.3,380.311,637.351,383.3,638.179,384.868Z" transform="translate(-445.264 -255.848)" fill="rgba(0,0,0,0)"/><path d="M638.179,384.868c-.028.066-.045.1-.045.1L626.39,395.9l-.348.021-4.011.24-2.911-23.61s.477.435,1.271,1.09c2.312,1.9,7.312,5.682,11.142,6.18C635.3,380.311,637.351,383.3,638.179,384.868Z" transform="translate(-445.264 -255.848)" opacity="0.1"/><path d="M663.844,383.924s-2.437-.237-3.482-1.2a29.181,29.181,0,0,0-3.732-2.5l3.809,4.2S663.332,385.373,663.844,383.924Z" transform="translate(-469.714 -260.854)" opacity="0.1"/><path d="M650.05,398.51s.233,4.279,2.827,4.321S650.05,398.51,650.05,398.51Z" transform="translate(-465.424 -272.77)" opacity="0.1"/><path d="M657.72,398.51s1.964,3.572,2.907,3.1S657.72,398.51,657.72,398.51Z" transform="translate(-470.424 -272.77)" opacity="0.1"/><path d="M464.653,271.768l-2.74,1.013s-5.275.289-8.05,1.441-8.433,0-8.433,0,9.846-12.834,10-12.883,10.424-3.83,10.424-3.83Z" transform="translate(-332.048 -180.862)" fill="#cbcdda"/><path d="M464.653,271.768l-2.74,1.013s-5.275.289-8.05,1.441-8.433,0-8.433,0,9.846-12.834,10-12.883,10.424-3.83,10.424-3.83Z" transform="translate(-332.048 -180.862)" opacity="0.03"/><path d="M580.891,608.8c-.575,1.783-2.879,13.464-4.136,15.348s-2.723,12.726-2.723,12.726l-.282.2-.609.428s-9.014-.418-7.97-2.04a4.721,4.721,0,0,0,.393-1.518c.7-4.408.759-16.131.759-16.131l.1-18.6s2.368-6,.731-10.421a23.121,23.121,0,0,1-1.466-8.168s.261-4.3-.891-6.023c-.933-1.393-1.111-8.8-1.142-11.525v-1.01l1.462-2.183,16.016,1.1s-.035,1.292-.132,2.966a50.239,50.239,0,0,1-.6,5.832c-.575,2.984-.052,10.734-.052,10.734l.891,10.1C583.353,595.495,581.469,607.016,580.891,608.8Z" transform="translate(-409.113 -377.954)" fill="#ffb9b9"/><path d="M535.524,571.764v.118a18.844,18.844,0,0,1-14.453,2.747c-.348-1.393-.581-2.437-.581-2.437l14.623-1.622S535.267,571.009,535.524,571.764Z" transform="translate(-380.974 -384.922)" opacity="0.05"/><path d="M543.47,450.3l-.212,4.067-.47,9.181L519.9,467.266v23.1c-9.693,6.177-18.105,1.462-18.105,1.462s.157-7.8,0-8.59-.63-3.98-.63-3.98-1-3.3-.783-4.293-1-4.084-1.469-5.223a36.028,36.028,0,0,1-.992-5.129l-.536-4.627a2.438,2.438,0,0,1-.839-1c-.091-.3.1-3.05.272-5.341.132-1.7.254-3.134.254-3.134l21.368-4.032Z" transform="translate(-365.352 -304.037)" fill="#4c4c78"/><path d="M558.382,513.6V531.7a2.646,2.646,0,0,1-1.083-2.4c-.094-2.409-.286-8.116-.627-10.682a9.8,9.8,0,0,1,1.3-5.344Z" transform="translate(-404.529 -347.579)" opacity="0.05"/><path d="M524.1,493.09a5.958,5.958,0,0,0,4.453,2.984C531.962,496.7,524.1,493.09,524.1,493.09Z" transform="translate(-383.327 -334.419)" opacity="0.1"/><path d="M514.63,506.63s7.225,1.2,8.955,1.153" transform="translate(-377.155 -343.245)" opacity="0.1"/><path d="M520.94,519.956s4.07.052,6.41-1" transform="translate(-381.268 -351.282)" opacity="0.1"/><path d="M518.54,545.776s10.473-4,11.73-6.086" transform="translate(-379.703 -364.794)" opacity="0.1"/><path d="M525.61,558.671c.348-.052,9.582-5.606,10.369-7.071" transform="translate(-384.312 -372.557)" opacity="0.1"/><path d="M581.172,560.94s-.035,1.292-.132,2.966l-17.35-.874h0v-1.01l1.462-2.183Z" transform="translate(-409.133 -377.928)" opacity="0.1"/><path d="M573.17,501.125s8.83-2.18,10.689-.776S573.17,501.125,573.17,501.125Z" transform="translate(-415.312 -338.843)" opacity="0.1"/><path d="M547.87,459.09s1.779,16.657,3.248,17.757,7.7-17.757,7.7-17.757Z" transform="translate(-398.821 -312.257)" opacity="0.1"/><path d="M548.77,457.29s1.783,16.657,3.248,17.757,7.7-17.757,7.7-17.757Z" transform="translate(-399.408 -311.084)" fill="#4c4c78"/><path d="M544.022,450.309l-.212,4.067a14.97,14.97,0,0,1-4.5-2.6,1.93,1.93,0,0,0-.219-.167c-1.786-1.278-4.122-.808-5.647-.268a11.038,11.038,0,0,0-1.57.7s-23.15.787-23.15.157c0-.463-3.276.244-5.48.853a16.487,16.487,0,0,0-1.741.561h0a11.27,11.27,0,0,1-4.056.059h-.073c.132-1.7.254-3.134.254-3.134l21.368-4.032Z" transform="translate(-365.904 -304.051)" opacity="0.1"/><path d="M543.1,332.686a5.939,5.939,0,0,1-.735-.212,14.807,14.807,0,0,1-4.554-2.618c-.073-.059-.143-.115-.219-.167-1.786-1.274-4.122-.808-5.647-.265a10.579,10.579,0,0,0-1.57.7s-23.15.787-23.15.157c0-.463-3.276.244-5.48.853a17.581,17.581,0,0,0-1.741.557h0a11.344,11.344,0,0,1-4.056.063c-.515-.063-.867-.115-.867-.115v-.178l1.146-29.048,3.3-25.87,1.208-10.842,3.917-1.908,3.938-1.918a10.252,10.252,0,0,0,1.5,1.671c2,1.814,5.9,4.077,11.1,1.017a15.953,15.953,0,0,0,1.643-1.114c1.776-1.368,3.443.178,4.975,3.513,5.989,12.994,9.9,53.1,9.9,53.1l5.919,3.83s.2.756.4,1.831C544.42,327.954,544.768,331.589,543.1,332.686Z" transform="translate(-364.411 -183.704)" opacity="0.1"/><path d="M543.127,334.492a5.469,5.469,0,0,1-.735-.209,14.972,14.972,0,0,1-4.554-2.618,2.47,2.47,0,0,0-.219-.167c-1.786-1.274-4.122-.808-5.648-.268a10.806,10.806,0,0,0-1.57.7s-23.136.8-23.136.16c0-.467-3.276.24-5.48.85a17.36,17.36,0,0,0-1.741.561h0a11.269,11.269,0,0,1-4.056.059c-.515-.059-.867-.111-.867-.111v-.181l1.145-29.045,3.3-25.873,1.208-10.842,3.917-1.908,3.938-1.915a10.159,10.159,0,0,0,1.5,1.668c2,1.817,5.9,4.081,11.1,1.02a16,16,0,0,0,1.643-1.118c1.776-1.368,3.443.181,4.975,3.513,5.985,12.99,9.9,53.1,9.9,53.1l5.919,3.83s.2.756.4,1.828C544.446,329.764,544.794,333.4,543.127,334.492Z" transform="translate(-364.438 -184.884)" fill="#fff"/><path d="M592.672,295.823a13.765,13.765,0,0,1-6.431,3.976,28.129,28.129,0,0,1-5.289,1.247l-.348-1.5c-.853-3.423-3-11.838-4.241-14.972a35.767,35.767,0,0,1-2-8.586,44.978,44.978,0,0,0-2.326-12.36c-1.013-2.946-1.584-11.305-1.908-19.564-.129-3.255-.219-6.5-.286-9.383-.129-5.943-.139-10.386-.139-10.386l1.884-2.987a6.128,6.128,0,0,1,.853-3.83,9.857,9.857,0,0,1,1.922-2.406c.738.393,1.417.759,2.058,1.093l10.619,7.5s-5.874,7.5-10.578,13.412c5.985,12.99,9.9,53.1,9.9,53.1l5.919,3.83S592.477,294.778,592.672,295.823Z" transform="translate(-413.057 -153.199)" opacity="0.1"/><path d="M592.277,275.3c-.317,6.072,3.558,16.232,3.558,16.232-.627,7.228-13.091,8.593-13.091,8.593s-3.04-12.465-4.61-16.448a35.95,35.95,0,0,1-1.992-8.59,45.029,45.029,0,0,0-2.329-12.357c-2.228-6.5-2.333-39.344-2.333-39.344l1.887-2.984a6.128,6.128,0,0,1,.849-3.83,9.915,9.915,0,0,1,1.925-2.406c1.605.86,2.967,1.574,4.147,2.173s2.26,1.114,3.179,1.518c3.259,1.421,5.052,1.64,8.844,2.072a7.34,7.34,0,0,1,.919.157c5.463,1.25,9.728,7.761,9.728,8.207a9.675,9.675,0,0,0,1.741,2.671c.679.86-.474,2.319-.474,2.319s2.089,1.469,1.783,2.831,1.57,3.666,1.57,3.666l-11.734,8.9S592.59,269.224,592.277,275.3Z" transform="translate(-414.211 -152.612)" fill="#cbcdda"/><circle cx="0.648" cy="0.648" r="0.648" transform="translate(158.446 75.99)" fill="#767d9f"/><circle cx="0.648" cy="0.648" r="0.648" transform="translate(158.446 84.631)" fill="#767d9f"/><circle cx="0.648" cy="0.648" r="0.648" transform="translate(160.727 105.202)" fill="#767d9f"/><circle cx="0.648" cy="0.648" r="0.648" transform="translate(162.377 115.73)" fill="#767d9f"/><circle cx="0.648" cy="0.648" r="0.648" transform="translate(163.986 126.844)" fill="#767d9f"/><circle cx="0.648" cy="0.648" r="0.648" transform="translate(159.741 94.746)" fill="#767d9f"/><path d="M585.4,218.147a14.305,14.305,0,0,1-3.294,2.785c-.592,0-2.023-1.647-2.785-2.57a9.935,9.935,0,0,1,1.925-2.4C582.858,216.837,584.219,217.551,585.4,218.147Z" transform="translate(-419.321 -153.779)" opacity="0.1"/><path d="M585.4,216.373a14.615,14.615,0,0,1-3.294,2.8c-.592,0-2.023-1.647-2.785-2.57a9.911,9.911,0,0,1,1.925-2.406C582.858,215.06,584.219,215.774,585.4,216.373Z" transform="translate(-419.321 -152.632)" fill="#cbcdda"/><path d="M513.241,230.328s-1.577,3.781-3.1,6.539a12.062,12.062,0,0,1-1.661,2.469c-.877.877-1.741,3.517-2.406,5.895-.634,2.3-1.045,4.37-1.045,4.37-.891,1.365-.891,18.279-.891,18.279,1.522,6.5-1.257,24.929-1.257,24.929l-.818,8.948-.251,2.695-.045.512c-.588.024-1.156.042-1.7.049h0a39.03,39.03,0,0,1-4.039-.143c-.3-.024-.6-.056-.877-.091l1.146-29.045,3.3-25.873,1.208-10.842,3.917-1.908c.644-5.146,1.887-11.371,4.2-13.857a7.068,7.068,0,0,0,1.487-2.531,11.565,11.565,0,0,1,.937-.742s.4.776.881,1.706c.512,1,1.111,2.176,1.393,2.785C514.185,225.613,513.241,230.328,513.241,230.328Z" transform="translate(-364.457 -156.399)" opacity="0.1"/><path d="M494.231,229.46s-3.036,7.28-4.763,9.007-3.457,10.264-3.457,10.264c-.891,1.365-.891,18.279-.891,18.279,1.518,6.5-1.257,24.929-1.257,24.929l-1.128,12.151c-20.769.961-15.073-10.525-15.073-10.525l4.819-26.113s1.6-7.82,1.441-10.021,2-9.662,2-9.662-3.809-19.8-3.416-20.7,13.669-3.134,13.669-3.134a5.839,5.839,0,0,0,1.327-.108,2.365,2.365,0,0,0,1.932-1.424c.554-1.692,2.859-3.276,2.859-3.276s.4.776.877,1.71c.512,1,1.114,2.176,1.414,2.785C495.168,224.746,494.231,229.46,494.231,229.46Z" transform="translate(-346.074 -155.845)" fill="#cbcdda"/><path d="M531.711,222.6c-2.058,1.856-4.269,8.534-4.269,8.534l-1.393-5.543a2.365,2.365,0,0,0,1.932-1.424c.554-1.689,2.859-3.273,2.859-3.273Z" transform="translate(-384.598 -156.993)" opacity="0.1"/><path d="M531.711,220.8c-2.058,1.856-4.269,8.534-4.269,8.534l-1.393-5.543a2.365,2.365,0,0,0,1.932-1.424c.554-1.692,2.859-3.276,2.859-3.276Z" transform="translate(-384.598 -155.819)" fill="#cbcdda"/><path d="M472.24,435.36s.275,3.182,6.8,1.219S472.24,435.36,472.24,435.36Z" transform="translate(-349.524 -296.699)" opacity="0.1"/><path d="M663.271,307.648c-.944,1.779-2.148,4.714-3.088,5.132a9.871,9.871,0,0,1-2.879.091c-1.953-.1-4.14-.348-4.14-.348s4.92-10.706-1.786-13.433h-6.069l-3.879-4.046,10.212-9.794,1.521.891,7.75,11.556s.787.888,1.521,1.741.205,2.462.205,2.462S664.215,305.869,663.271,307.648Z" transform="translate(-459.806 -198.944)" fill="#cbcdda"/><path d="M590.445,257.278s2.942-23.084,11.72-29.383a7.981,7.981,0,0,0-.916-.157c-3.792-.432-5.571-.651-8.847-2.089a22.98,22.98,0,0,0-6.211,17.061c.644,11.786,0,14.536,0,14.536h1.045c1.873,3.8,9.826,19.561,14.24,22.872l.47-4.011s-11.462-13.231-12.454-18.861Z" transform="translate(-423.775 -160.095)" opacity="0.1"/><path d="M594.055,256.411s2.942-23.088,11.72-29.383a7.282,7.282,0,0,0-.916-.157c-3.792-.432-5.571-.651-8.847-2.072a22.98,22.98,0,0,0-6.211,17.061c.644,11.786,0,14.536,0,14.536h1.044c1.873,3.8,9.826,19.557,14.24,22.868l.47-4.008S594.093,262.027,593.1,256.4Z" transform="translate(-426.128 -159.541)" opacity="0.1"/><path d="M589.86,312.379s9.617,19.923,14.644,23.676l.47-4.008S591.49,316.484,592.51,311.93Z" transform="translate(-426.191 -216.335)" fill="#6e6d84"/><path d="M603.986,227.054c-8.781,6.3-11.723,29.383-11.723,29.383H587.99s.644-2.751,0-14.536a22.981,22.981,0,0,1,6.215-17.061c3.259,1.421,5.052,1.64,8.844,2.072a7.335,7.335,0,0,1,.937.143Z" transform="translate(-424.948 -159.567)" fill="#6e6d84"/><path d="M498.475,342.86l-.275,16.027,2.709,1.375Z" transform="translate(-324.337 -223.484)" opacity="0.1"/><path d="M637.07,276.035c1.807-.432,6.441-1.964,6.615-3.482S637.07,276.035,637.07,276.035Z" transform="translate(-456.964 -190.481)" opacity="0.1"/><path d="M637.743,285.2s5.734-2.361,6.64-3.3S636.88,283.317,637.743,285.2Z" transform="translate(-457.362 -196.621)" opacity="0.1"/><path d="M519.532,243.68s-2.5,4.937-1,5.452S519.532,243.68,519.532,243.68Z" transform="translate(-379.386 -171.848)" opacity="0.1"/><path d="M546.54,398.51s-20.111,11.876-15.87,12.555S546.54,398.51,546.54,398.51Z" transform="translate(-387.227 -272.77)" opacity="0.1"/><path d="M612,470.67s5.289,1,5.08,2.622" transform="translate(-440.623 -319.805)" opacity="0.1"/><path d="M623.09,298.657l-.237,6.114s-1.49,2.59-2.577,2.918a1.391,1.391,0,0,1-.4.028h0c-2.134-.115-10.191-2.472-10.912-3.809-.787-1.452-12.688-6.675-12.688-6.675s-10.014-15.2-2.514-18.9,7.148,14.338,7.148,14.338,6.8,1.02,7.66,1.57c.724.473,7.406.143,9.4.031l.519-.017,2.12.39Z" transform="translate(-426.919 -194.114)" fill="#ffb9b9"/><path d="M673.6,329.4l-.237,6.114s-1.49,2.59-2.577,2.918a1.389,1.389,0,0,1-.4.028h0l-.212-.024s4.874-10.626-1.71-13.415L669,325l2.12.39Z" transform="translate(-477.425 -224.854)" opacity="0.1"/><path d="M676.846,337.79c-1.95-.1-4.136-.348-4.136-.348s4.916-10.7-1.779-13.443h0l5.247-.519C682.744,327.839,678.2,335.729,676.846,337.79Z" transform="translate(-479.035 -223.863)" opacity="0.1"/><path d="M675.919,337.823c-1.953-.1-4.14-.348-4.14-.348s4.927-10.706-1.779-13.433h0l5.261-.512C681.838,327.872,677.28,335.761,675.919,337.823Z" transform="translate(-478.428 -223.896)" fill="#cbcdda"/><path d="M460.49,194.932l15.184-13.509s4.084-3.83,3.771-5.028-3.719-11.838,1.988-12.465,3.83,17.806,3.83,17.806l-16.288,20.006Z" transform="translate(-341.865 -119.855)" fill="#ffb9b9"/><path d="M432.436,265.1s-1.1-5.184.574-7.068,9.272-8.485,9.272-8.485,3.813,5.919,10.578,5.056l-7.576,10.132s-3.353,4.4-8.224,3.98S432.436,265.1,432.436,265.1Z" transform="translate(-323.347 -175.674)" opacity="0.1"/><path d="M431.527,266.007s-1.1-5.184.578-7.071,9.268-8.485,9.268-8.485,6.5,6.546,10.216,7.333l-7.228,7.855s-3.353,4.4-8.224,3.983S431.527,266.007,431.527,266.007Z" transform="translate(-322.755 -176.261)" fill="#cbcdda"/><path d="M456.686,251.093l-6.776-.6s3.022-3.771,4.634-3.889,1.661.205,1.661.205l-2.138,1.9Z" transform="translate(-334.969 -173.735)" opacity="0.1"/><path d="M456.686,250.193l-6.776-.6s3.022-3.771,4.634-3.889,1.661.205,1.661.205l-2.138,1.9Z" transform="translate(-334.969 -173.148)" fill="#cbcdda"/><path d="M472.564,263.28s-1.741,6.17,4.293,6.584l1.925-5.985S474.876,264.645,472.564,263.28Z" transform="translate(-349.583 -184.623)" opacity="0.1"/><path d="M473.465,262.38s-1.758,6.152,4.29,6.584l1.925-6S475.777,263.745,473.465,262.38Z" transform="translate(-350.167 -184.037)" fill="#cbcdda"/><path d="M584.212,589.26l-.891-10.1s-.522-7.75.052-10.734a50.965,50.965,0,0,0,.6-5.832c.094-1.675.132-2.966.132-2.966l-16.016-1.1-.042.063,15.125,1.044s-.038,1.292-.132,2.966a51.8,51.8,0,0,1-.6,5.832c-.578,2.984-.056,10.734-.056,10.734l.895,10.1c2.089,4.875.205,16.392-.369,18.171s-2.883,13.464-4.14,15.348-2.733,12.719-2.733,12.719l-.818.578.867.052.895-.63s1.462-10.839,2.719-12.726,3.565-13.579,4.14-15.348S586.308,594.131,584.212,589.26Z" transform="translate(-411.975 -377.074)" opacity="0.1"/><path d="M458.023,452.41l3.245,1.988v26.138l-23.582-1.187-1.626-19.2,3.865-4.7Z" transform="translate(-283.832 -294.891)" fill="#4c4c78"/><path d="M570.58,532.35s9.954,8.116,12.99,8.642" transform="translate(-413.624 -360.01)" opacity="0.1"/><path d="M576.7,774.764a4.8,4.8,0,0,0-.282.829l-.609.428s-9.014-.421-7.97-2.044a4.724,4.724,0,0,0,.393-1.518c2.106-.487,5.679,1.936,5.679,1.936Z" transform="translate(-411.785 -516.476)" opacity="0.1"/><path d="M562.215,793.488a15.9,15.9,0,0,0-.836,4.241s-1.939,2.932-4.662,2.044-10.842-.526-11.316-.731c-1.529-.7-.86-2.3,0-3.774.5-.846,1.045-1.643,1.306-2.2.7-1.522,2.253-5.5,2.253-5.5a9.5,9.5,0,0,1,2.2-6.024l1.045-6.81c1.765-1.776,6.546,1.469,6.546,1.469l2.785.369c-1.414,3.088.052,11.73.052,11.73s.23.724.449,1.654h0C562.32,791.194,562.574,792.771,562.215,793.488Z" transform="translate(-396.617 -517.656)" fill="#c7c0d9"/><path d="M562.215,822.994a15.9,15.9,0,0,0-.836,4.241s-1.939,2.932-4.662,2.044-10.842-.526-11.316-.731c-1.529-.7-.86-2.3,0-3.774,3.687.2,11.936.589,13.77-.1,2.354-.888,2.883-3.955,2.859-5.2C562.32,820.7,562.574,822.276,562.215,822.994Z" transform="translate(-396.617 -547.161)" opacity="0.1"/><circle cx="0.54" cy="0.54" r="0.54" transform="translate(160.459 265.147)" fill="#605b89"/><circle cx="0.54" cy="0.54" r="0.54" transform="translate(154.01 265.147)" fill="#605b89"/><circle cx="0.54" cy="0.54" r="0.54" transform="translate(160.459 268.072)" fill="#605b89"/><circle cx="0.54" cy="0.54" r="0.54" transform="translate(153.875 268.072)" fill="#605b89"/><circle cx="0.54" cy="0.54" r="0.54" transform="translate(158.84 274.701)" fill="#605b89"/><circle cx="0.54" cy="0.54" r="0.54" transform="translate(153.335 274.701)" fill="#605b89"/><circle cx="0.54" cy="0.54" r="0.54" transform="translate(159.101 273.214)" fill="#605b89"/><circle cx="0.54" cy="0.54" r="0.54" transform="translate(153.471 273.214)" fill="#605b89"/><circle cx="0.54" cy="0.54" r="0.54" transform="translate(159.379 271.498)" fill="#605b89"/><circle cx="0.54" cy="0.54" r="0.54" transform="translate(154.01 271.498)" fill="#605b89"/><circle cx="0.54" cy="0.54" r="0.54" transform="translate(159.919 269.785)" fill="#605b89"/><circle cx="0.54" cy="0.54" r="0.54" transform="translate(154.01 269.785)" fill="#605b89"/><path d="M567,789s2.674,3.318,6.076.7" transform="translate(-411.291 -527.3)" fill="rgba(0,0,0,0)" stroke="#000" stroke-miterlimit="10" stroke-width="1" opacity="0.1"/><path d="M562.386,800.45s6.988,1.741,6.448,2.925c0,0-6.145-.884-6.584,0s6.044,1.713,6.044,1.713-5.331.832-5.919,0,5.369,1.713,5.369,1.713-5.369-.54-5.369,0,5.09,1.716,5.09,1.716-4.756-.5-5.09,0,4.735.7,4.829,1.487-5.5-.54-5.5,0,7.124-9.554,7.124-9.554" transform="translate(-407.836 -534.763)" fill="rgba(0,0,0,0)" stroke="#605b89" stroke-miterlimit="10" stroke-width="1" opacity="0.2"/><ellipse cx="10.417" cy="1.762" rx="10.417" ry="1.762" transform="translate(11.578 273.851)" fill="#5ab1ac" opacity="0.1"/><path d="M162.86,799.459s5.943-.185,7.733-1.459,9.14-2.785,9.585-.752,8.931,10.17,2.221,10.226-15.588-1.045-17.378-2.134S162.86,799.459,162.86,799.459Z" transform="translate(-147.863 -532.028)" fill="#a8a8a8"/><path d="M182.512,812.742c-6.709.056-15.588-1.044-17.374-2.134-1.361-.829-1.9-3.8-2.089-5.177h-.2s.376,4.791,2.162,5.881,10.668,2.187,17.377,2.134c1.936-.017,2.6-.7,2.57-1.741C184.695,812.345,183.953,812.731,182.512,812.742Z" transform="translate(-147.856 -538.009)" opacity="0.2"/></svg>