<svg xmlns="http://www.w3.org/2000/svg" xmlns:xlink="http://www.w3.org/1999/xlink" width="279.034" height="200.37" viewBox="0 0 279.034 200.37"><defs><linearGradient id="a" x1="0.5" y1="1" x2="0.5" gradientUnits="objectBoundingBox"><stop offset="0" stop-color="gray" stop-opacity="0.251"/><stop offset="0.535" stop-color="gray" stop-opacity="0.122"/><stop offset="1" stop-color="gray" stop-opacity="0.102"/></linearGradient></defs><g transform="translate(0 0)"><ellipse cx="139.517" cy="16.958" rx="139.517" ry="16.958" transform="translate(0 166.454)" fill="#6c63ff" opacity="0.1"/><path d="M997.486,715.535s7.276-9.259,6.688-18.446a17.842,17.842,0,0,1,2.808-10.931,30.008,30.008,0,0,1,3.419-4.293" transform="translate(-758.763 -523.81)" fill="none" stroke="#535461" stroke-miterlimit="10" stroke-width="2"/><path d="M1047.391,653.914c-.513,1.286.327,5.944.327,5.944s3.816-2.8,4.329-4.086a2.507,2.507,0,1,0-4.656-1.858Z" transform="translate(-796.089 -501.651)" fill="#6c63ff"/><path d="M1020.936,672.047c.268,1.358,3.505,4.811,3.505,4.811s1.682-4.424,1.413-5.782a2.507,2.507,0,1,0-4.918.971Z" transform="translate(-776.325 -514.197)" fill="#6c63ff"/><path d="M1000.4,717.552c.917,1.037,5.455,2.384,5.455,2.384s-.782-4.668-1.7-5.705a2.507,2.507,0,0,0-3.755,3.321Z" transform="translate(-760.477 -547.463)" fill="#6c63ff"/><path d="M995.307,758.88c.729,1.177,4.973,3.271,4.973,3.271s.018-4.733-.71-5.91a2.507,2.507,0,1,0-4.263,2.639Z" transform="translate(-756.847 -578.732)" fill="#6c63ff"/><path d="M1036.429,694.63c-1.28.528-5.947-.258-5.947-.258s2.755-3.848,4.035-4.376a2.507,2.507,0,1,1,1.912,4.635Z" transform="translate(-783.524 -529.769)" fill="#6c63ff"/><path d="M1030.031,741.137c-1.379.121-5.6-2.026-5.6-2.026s3.781-2.848,5.16-2.968a2.507,2.507,0,0,1,.438,4.994Z" transform="translate(-778.985 -564.534)" fill="#6c63ff"/><path d="M1015.733,786.089c-1.339.352-5.859-1.051-5.859-1.051s3.245-3.446,4.584-3.8a2.507,2.507,0,0,1,1.275,4.849Z" transform="translate(-768.06 -598.321)" fill="#6c63ff"/><path d="M1047.391,653.914c-.513,1.286.327,5.944.327,5.944s3.816-2.8,4.329-4.086a2.507,2.507,0,1,0-4.656-1.858Z" transform="translate(-796.089 -501.651)" opacity="0.25"/><path d="M1020.936,672.047c.268,1.358,3.505,4.811,3.505,4.811s1.682-4.424,1.413-5.782a2.507,2.507,0,1,0-4.918.971Z" transform="translate(-776.325 -514.197)" opacity="0.25"/><path d="M1000.4,717.552c.917,1.037,5.455,2.384,5.455,2.384s-.782-4.668-1.7-5.705a2.507,2.507,0,0,0-3.755,3.321Z" transform="translate(-760.477 -547.463)" opacity="0.25"/><path d="M995.307,758.88c.729,1.177,4.973,3.271,4.973,3.271s.018-4.733-.71-5.91a2.507,2.507,0,1,0-4.263,2.639Z" transform="translate(-756.847 -578.732)" opacity="0.25"/><path d="M1036.429,694.63c-1.28.528-5.947-.258-5.947-.258s2.755-3.848,4.035-4.376a2.507,2.507,0,1,1,1.912,4.635Z" transform="translate(-783.524 -529.769)" opacity="0.25"/><path d="M1030.031,741.137c-1.379.121-5.6-2.026-5.6-2.026s3.781-2.848,5.16-2.968a2.507,2.507,0,0,1,.438,4.994Z" transform="translate(-778.985 -564.534)" opacity="0.25"/><path d="M1015.733,786.089c-1.339.352-5.859-1.051-5.859-1.051s3.245-3.446,4.584-3.8a2.507,2.507,0,0,1,1.275,4.849Z" transform="translate(-768.06 -598.321)" opacity="0.25"/><path d="M997.733,738.409s10.4-5.516,13.589-14.153a17.842,17.842,0,0,1,7-8.856,30.007,30.007,0,0,1,4.865-2.539" transform="translate(-758.949 -547.07)" fill="none" stroke="#535461" stroke-miterlimit="10" stroke-width="2"/><path d="M1101.538,688.954c-.99.968-2.109,5.566-2.109,5.566s4.623-1.013,5.613-1.981a2.507,2.507,0,1,0-3.5-3.585Z" transform="translate(-835.263 -528.594)" fill="#6c63ff"/><path d="M1074.181,694.827c-.305,1.35,1.255,5.819,1.255,5.819s3.33-3.363,3.635-4.714a2.507,2.507,0,0,0-4.89-1.105Z" transform="translate(-816.287 -532.07)" fill="#6c63ff"/><path d="M1036.906,728.106c.418,1.32,4.021,4.39,4.021,4.39s1.177-4.584.759-5.9a2.507,2.507,0,0,0-4.779,1.515Z" transform="translate(-788.256 -556.061)" fill="#6c63ff"/><path d="M1015.5,763.826c.189,1.371,3.221,5.006,3.221,5.006s1.935-4.32,1.745-5.691a2.507,2.507,0,1,0-4.966.685Z" transform="translate(-772.262 -583.177)" fill="#6c63ff"/><path d="M1077.268,724.782c-1.384-.036-5.332-2.646-5.332-2.646s4.078-2.4,5.462-2.366a2.507,2.507,0,1,1-.13,5.012Z" transform="translate(-814.631 -552.255)" fill="#6c63ff"/><path d="M1054.513,765.254c-1.31-.448-4.3-4.12-4.3-4.12s4.61-1.071,5.92-.623a2.507,2.507,0,1,1-1.624,4.743Z" transform="translate(-798.333 -582.745)" fill="#6c63ff"/><path d="M1022.115,800.328c-1.367-.221-4.931-3.335-4.931-3.335s4.363-1.835,5.73-1.614a2.507,2.507,0,1,1-.8,4.949Z" transform="translate(-773.545 -608.979)" fill="#6c63ff"/><path d="M302.472,72.32c-13.786-.479-26.917-4.929-39.455-9.8S238.06,52.257,224.6,49.677c-8.655-1.66-18.552-1.894-25.526,2.746-6.711,4.465-8.879,12.173-10.045,19.326-.877,5.381-1.393,11.044,1.01,16.082,1.669,3.5,4.631,6.437,6.68,9.787,7.129,11.657,2.09,26.03-5.635,37.412-3.624,5.339-7.827,10.432-10.624,16.116s-4.09,12.2-1.643,17.993c2.425,5.746,8.2,10.063,14.464,13.1,12.714,6.166,27.7,7.931,42.307,8.93,32.341,2.212,64.854,1.255,97.281.3,12-.355,24.053-.715,35.859-2.57,6.556-1.03,13.324-2.666,18.083-6.614,6.042-5.012,7.54-13.5,3.491-19.785-6.791-10.542-25.568-13.161-30.314-24.474-2.613-6.227.07-13.164,3.867-18.94,8.145-12.39,21.8-23.259,22.517-37.421.494-9.727-6.069-19.467-16.217-24.069-10.637-4.824-25.387-4.217-33.234,3.768C328.845,69.579,314.645,72.743,302.472,72.32Z" transform="translate(-143.453 -48.59)" fill="#6c63ff" opacity="0.1"/><ellipse cx="9.374" cy="9.95" rx="9.374" ry="9.95" transform="translate(126.041 155.906)" fill="#fbd56f"/><ellipse cx="9.374" cy="9.95" rx="9.374" ry="9.95" transform="translate(126.041 155.906)" opacity="0.1"/><ellipse cx="9.374" cy="9.728" rx="9.374" ry="9.728" transform="translate(127.659 156.35)" fill="#fbd56f"/><path d="M601.312,747.033l-.975-.543a11.812,11.812,0,0,0-.307,3.259.676.676,0,0,0,.508.584c2.243.557,12.934,2.93,20.285-.412a.674.674,0,0,0,.391-.542,10.1,10.1,0,0,0-.356-2.889C620.583,745.769,601.312,747.033,601.312,747.033Z" transform="translate(-460.484 -572.139)" fill="#fbd56f"/><path d="M601.312,747.033l-.975-.543a11.812,11.812,0,0,0-.307,3.259.676.676,0,0,0,.508.584c2.243.557,12.934,2.93,20.285-.412a.674.674,0,0,0,.391-.542,10.1,10.1,0,0,0-.356-2.889C620.583,745.769,601.312,747.033,601.312,747.033Z" transform="translate(-460.484 -572.139)" opacity="0.1"/><ellipse cx="10.26" cy="2.313" rx="10.26" ry="2.313" transform="translate(139.854 172.038)" fill="#fbd56f"/><path d="M617.017,733.361l-.975-.543a11.812,11.812,0,0,0-.307,3.259.676.676,0,0,0,.508.584c2.243.557,12.934,2.93,20.285-.412a.675.675,0,0,0,.391-.542,10.1,10.1,0,0,0-.356-2.889C636.288,732.1,617.017,733.361,617.017,733.361Z" transform="translate(-472.269 -561.88)" fill="#fbd56f"/><path d="M617.017,733.361l-.975-.543a11.812,11.812,0,0,0-.307,3.259.676.676,0,0,0,.508.584c2.243.557,12.934,2.93,20.285-.412a.675.675,0,0,0,.391-.542,10.1,10.1,0,0,0-.356-2.889C636.288,732.1,617.017,733.361,617.017,733.361Z" transform="translate(-472.269 -561.88)" opacity="0.1"/><ellipse cx="10.26" cy="2.313" rx="10.26" ry="2.313" transform="translate(143.774 168.626)" fill="#fbd56f"/><path d="M630.9,715.393l-.975-.543a11.81,11.81,0,0,0-.307,3.259.676.676,0,0,0,.508.584c2.243.557,12.934,2.93,20.285-.412a.675.675,0,0,0,.391-.542,10.1,10.1,0,0,0-.357-2.888C650.173,714.129,630.9,715.393,630.9,715.393Z" transform="translate(-482.688 -548.396)" fill="#fbd56f"/><path d="M630.9,715.393l-.975-.543a11.81,11.81,0,0,0-.307,3.259.676.676,0,0,0,.508.584c2.243.557,12.934,2.93,20.285-.412a.675.675,0,0,0,.391-.542,10.1,10.1,0,0,0-.357-2.888C650.173,714.129,630.9,715.393,630.9,715.393Z" transform="translate(-482.688 -548.396)" opacity="0.1"/><ellipse cx="10.26" cy="2.313" rx="10.26" ry="2.313" transform="translate(147.239 164.141)" fill="#fbd56f"/><path d="M615.526,696.687l-.975-.543a11.81,11.81,0,0,0-.307,3.259.675.675,0,0,0,.508.584c2.243.557,12.934,2.93,20.285-.412a.675.675,0,0,0,.391-.542,10.1,10.1,0,0,0-.357-2.888C634.8,695.423,615.526,696.687,615.526,696.687Z" transform="translate(-471.15 -534.359)" fill="#fbd56f"/><path d="M615.526,696.687l-.975-.543a11.81,11.81,0,0,0-.307,3.259.675.675,0,0,0,.508.584c2.243.557,12.934,2.93,20.285-.412a.675.675,0,0,0,.391-.542,10.1,10.1,0,0,0-.357-2.888C634.8,695.423,615.526,696.687,615.526,696.687Z" transform="translate(-471.15 -534.359)" opacity="0.1"/><ellipse cx="10.26" cy="2.313" rx="10.26" ry="2.313" transform="translate(143.401 159.473)" fill="#fbd56f"/><path d="M650.117,681.676l-.975-.543a11.812,11.812,0,0,0-.307,3.259.676.676,0,0,0,.508.584c2.243.557,12.934,2.93,20.285-.412a.675.675,0,0,0,.391-.542,10.1,10.1,0,0,0-.356-2.888C669.388,680.412,650.117,681.676,650.117,681.676Z" transform="translate(-497.108 -523.094)" fill="#fbd56f"/><path d="M650.117,681.676l-.975-.543a11.812,11.812,0,0,0-.307,3.259.676.676,0,0,0,.508.584c2.243.557,12.934,2.93,20.285-.412a.675.675,0,0,0,.391-.542,10.1,10.1,0,0,0-.356-2.888C669.388,680.412,650.117,681.676,650.117,681.676Z" transform="translate(-497.108 -523.094)" opacity="0.1"/><ellipse cx="10.26" cy="2.313" rx="10.26" ry="2.313" transform="translate(152.035 155.726)" fill="#fbd56f"/><path d="M626.745,671.586l-.975-.543a11.81,11.81,0,0,0-.307,3.259.676.676,0,0,0,.508.584c2.243.557,12.933,2.93,20.285-.412a.674.674,0,0,0,.391-.542,10.1,10.1,0,0,0-.356-2.888C646.016,670.323,626.745,671.586,626.745,671.586Z" transform="translate(-479.569 -515.523)" fill="#fbd56f"/><path d="M626.745,671.586l-.975-.543a11.81,11.81,0,0,0-.307,3.259.676.676,0,0,0,.508.584c2.243.557,12.933,2.93,20.285-.412a.674.674,0,0,0,.391-.542,10.1,10.1,0,0,0-.356-2.888C646.016,670.323,626.745,671.586,626.745,671.586Z" transform="translate(-479.569 -515.523)" opacity="0.1"/><ellipse cx="10.26" cy="2.313" rx="10.26" ry="2.313" transform="translate(146.202 153.208)" fill="#fbd56f"/><path d="M642.349,652.108l-.975-.543a11.81,11.81,0,0,0-.307,3.259.676.676,0,0,0,.508.584c2.243.557,12.934,2.93,20.285-.412a.674.674,0,0,0,.391-.542,10.1,10.1,0,0,0-.357-2.888C661.62,650.844,642.349,652.108,642.349,652.108Z" transform="translate(-491.278 -500.906)" fill="#fbd56f"/><path d="M642.349,652.108l-.975-.543a11.81,11.81,0,0,0-.307,3.259.676.676,0,0,0,.508.584c2.243.557,12.934,2.93,20.285-.412a.674.674,0,0,0,.391-.542,10.1,10.1,0,0,0-.357-2.888C661.62,650.844,642.349,652.108,642.349,652.108Z" transform="translate(-491.278 -500.906)" opacity="0.1"/><ellipse cx="10.26" cy="2.313" rx="10.26" ry="2.313" transform="translate(150.096 148.347)" fill="#fbd56f"/><path d="M650.046,628.988l-.975-.543a11.81,11.81,0,0,0-.307,3.259.676.676,0,0,0,.508.584c2.243.557,12.934,2.93,20.285-.412a.675.675,0,0,0,.391-.542,10.1,10.1,0,0,0-.357-2.888C669.317,627.724,650.046,628.988,650.046,628.988Z" transform="translate(-497.054 -483.557)" fill="#fbd56f"/><path d="M650.046,628.988l-.975-.543a11.81,11.81,0,0,0-.307,3.259.676.676,0,0,0,.508.584c2.243.557,12.934,2.93,20.285-.412a.675.675,0,0,0,.391-.542,10.1,10.1,0,0,0-.357-2.888C669.317,627.724,650.046,628.988,650.046,628.988Z" transform="translate(-497.054 -483.557)" opacity="0.1"/><ellipse cx="10.26" cy="2.313" rx="10.26" ry="2.313" transform="translate(152.017 142.576)" fill="#fbd56f"/><path d="M719.441,752.4l-.975-.543a11.812,11.812,0,0,0-.307,3.259.676.676,0,0,0,.508.584c2.243.557,12.934,2.93,20.285-.412a.675.675,0,0,0,.391-.542,10.1,10.1,0,0,0-.356-2.888C738.712,751.131,719.441,752.4,719.441,752.4Z" transform="translate(-549.129 -576.163)" fill="#fbd56f"/><path d="M719.441,752.4l-.975-.543a11.812,11.812,0,0,0-.307,3.259.676.676,0,0,0,.508.584c2.243.557,12.934,2.93,20.285-.412a.675.675,0,0,0,.391-.542,10.1,10.1,0,0,0-.356-2.888C738.712,751.131,719.441,752.4,719.441,752.4Z" transform="translate(-549.129 -576.163)" opacity="0.1"/><ellipse cx="10.26" cy="2.313" rx="10.26" ry="2.313" transform="translate(169.337 173.376)" fill="#fbd56f"/><path d="M733.325,734.426l-.975-.543a11.812,11.812,0,0,0-.307,3.259.676.676,0,0,0,.508.584c2.243.557,12.934,2.93,20.285-.412a.674.674,0,0,0,.391-.542,10.1,10.1,0,0,0-.356-2.889C752.6,733.163,733.325,734.426,733.325,734.426Z" transform="translate(-559.548 -562.679)" fill="#fbd56f"/><path d="M733.325,734.426l-.975-.543a11.812,11.812,0,0,0-.307,3.259.676.676,0,0,0,.508.584c2.243.557,12.934,2.93,20.285-.412a.674.674,0,0,0,.391-.542,10.1,10.1,0,0,0-.356-2.889C752.6,733.163,733.325,734.426,733.325,734.426Z" transform="translate(-559.548 -562.679)" opacity="0.1"/><ellipse cx="10.26" cy="2.313" rx="10.26" ry="2.313" transform="translate(172.802 168.892)" fill="#fbd56f"/><path d="M717.949,715.721l-.975-.543a11.812,11.812,0,0,0-.307,3.259.676.676,0,0,0,.508.584c2.243.557,12.933,2.93,20.285-.412a.674.674,0,0,0,.391-.542,10.1,10.1,0,0,0-.357-2.888C737.22,714.457,717.949,715.721,717.949,715.721Z" transform="translate(-548.01 -548.642)" fill="#fbd56f"/><path d="M717.949,715.721l-.975-.543a11.812,11.812,0,0,0-.307,3.259.676.676,0,0,0,.508.584c2.243.557,12.933,2.93,20.285-.412a.674.674,0,0,0,.391-.542,10.1,10.1,0,0,0-.357-2.888C737.22,714.457,717.949,715.721,717.949,715.721Z" transform="translate(-548.01 -548.642)" opacity="0.1"/><ellipse cx="10.26" cy="2.313" rx="10.26" ry="2.313" transform="translate(168.965 164.223)" fill="#fbd56f"/><path d="M752.54,700.71l-.975-.543a11.811,11.811,0,0,0-.307,3.259.676.676,0,0,0,.508.584c2.243.557,12.934,2.93,20.285-.412a.675.675,0,0,0,.391-.542,10.1,10.1,0,0,0-.357-2.889C771.811,699.446,752.54,700.71,752.54,700.71Z" transform="translate(-573.968 -537.378)" fill="#fbd56f"/><path d="M752.54,700.71l-.975-.543a11.811,11.811,0,0,0-.307,3.259.676.676,0,0,0,.508.584c2.243.557,12.934,2.93,20.285-.412a.675.675,0,0,0,.391-.542,10.1,10.1,0,0,0-.357-2.889C771.811,699.446,752.54,700.71,752.54,700.71Z" transform="translate(-573.968 -537.378)" opacity="0.1"/><ellipse cx="10.26" cy="2.313" rx="10.26" ry="2.313" transform="translate(177.598 160.477)" fill="#fbd56f"/><path d="M729.169,690.62l-.975-.543a11.81,11.81,0,0,0-.307,3.259.676.676,0,0,0,.508.584c2.243.557,12.934,2.93,20.285-.412a.675.675,0,0,0,.391-.542,10.1,10.1,0,0,0-.357-2.889C748.44,689.357,729.169,690.62,729.169,690.62Z" transform="translate(-556.43 -529.806)" fill="#fbd56f"/><path d="M729.169,690.62l-.975-.543a11.81,11.81,0,0,0-.307,3.259.676.676,0,0,0,.508.584c2.243.557,12.934,2.93,20.285-.412a.675.675,0,0,0,.391-.542,10.1,10.1,0,0,0-.357-2.889C748.44,689.357,729.169,690.62,729.169,690.62Z" transform="translate(-556.43 -529.806)" opacity="0.1"/><ellipse cx="10.26" cy="2.313" rx="10.26" ry="2.313" transform="translate(171.765 157.958)" fill="#fbd56f"/><path d="M744.772,671.142l-.975-.543a11.811,11.811,0,0,0-.307,3.259.676.676,0,0,0,.508.584c2.243.557,12.934,2.93,20.285-.412a.675.675,0,0,0,.391-.542,10.1,10.1,0,0,0-.356-2.888C764.043,669.878,744.772,671.142,744.772,671.142Z" transform="translate(-568.138 -515.19)" fill="#fbd56f"/><path d="M744.772,671.142l-.975-.543a11.811,11.811,0,0,0-.307,3.259.676.676,0,0,0,.508.584c2.243.557,12.934,2.93,20.285-.412a.675.675,0,0,0,.391-.542,10.1,10.1,0,0,0-.356-2.888C764.043,669.878,744.772,671.142,744.772,671.142Z" transform="translate(-568.138 -515.19)" opacity="0.1"/><ellipse cx="10.26" cy="2.313" rx="10.26" ry="2.313" transform="translate(175.659 153.097)" fill="#fbd56f"/><path d="M752.469,648.022l-.975-.543a11.812,11.812,0,0,0-.307,3.259.676.676,0,0,0,.508.584c2.243.557,12.933,2.93,20.285-.412a.675.675,0,0,0,.391-.542,10.1,10.1,0,0,0-.356-2.889C771.74,646.758,752.469,648.022,752.469,648.022Z" transform="translate(-573.914 -497.84)" fill="#fbd56f"/><path d="M752.469,648.022l-.975-.543a11.812,11.812,0,0,0-.307,3.259.676.676,0,0,0,.508.584c2.243.557,12.933,2.93,20.285-.412a.675.675,0,0,0,.391-.542,10.1,10.1,0,0,0-.356-2.889C771.74,646.758,752.469,648.022,752.469,648.022Z" transform="translate(-573.914 -497.84)" opacity="0.1"/><ellipse cx="10.26" cy="2.313" rx="10.26" ry="2.313" transform="translate(177.58 147.327)" fill="#fbd56f"/><path d="M805.763,447.055c-1.428-.05-1.479-.6-3.315-1.56a19.029,19.029,0,0,1-3.784-3.368l-.273-.3.486-.01s-.459-4.026-.051-4.983.1-6.644.1-6.644.255-4.328-.2-5.335.153-7.449.153-7.449.408-3.825.51-11.626-4.489-8.053-4.489-8.053-.612-.047-1.541-.136l-.278-.027c.6-1.26.953-2.2.953-2.2s-.765-7.3-.969-8.556-1.428-6.442-1.428-6.442-.867-2.215-1.377-3.775a12.739,12.739,0,0,0-2.04-3.372,62.43,62.43,0,0,0-3.519-6.241c-.355-.373-.853-.845-1.284-1.242l-.224-.206a9.118,9.118,0,0,0,.183-1.723s-2.856-2.819-3.06-3.523-2.907-3.322-2.907-3.322-1.53-2.819-3.264-2.869a14.144,14.144,0,0,0-2.456.074c.356-1.318.777-2.7,1.156-3.884l.124-.388a8.735,8.735,0,0,0,3.133-3.79c.036-.082.069-.164.1-.247.018,0,.037,0,.055,0a1.374,1.374,0,0,0,.215-.019c.571-.1,1.054-.743.791-1.252a.187.187,0,0,0,.166.091c.19-.006.422-.282.467-.524.008-.042.012-.085.018-.127s.017-.105.023-.158.01-.1.014-.149.008-.1.011-.154,0-.1,0-.145,0-.111,0-.166,0-.089,0-.133c0-.067-.009-.135-.015-.2,0-.028,0-.055-.006-.083v0a4.524,4.524,0,0,0-.164-.812c-.282-.936-.873-1.863-.645-2.813,0-.01.007-.02.01-.03v0a8.258,8.258,0,0,1,1.218-1.931c.037-.063.07-.128.1-.193.006-.012.013-.023.019-.035.023-.049.043-.1.064-.149.013-.032.028-.064.04-.1s.03-.089.044-.133.027-.081.038-.122.02-.079.029-.119.023-.1.032-.145.012-.07.017-.1c.009-.055.016-.11.022-.165,0-.03.005-.06.008-.09,0-.062.008-.124.01-.186,0-.025,0-.05,0-.075q0-.1-.005-.2c0-.02,0-.041,0-.061-.005-.072-.013-.144-.022-.216,0-.01,0-.021,0-.031v0a3.627,3.627,0,0,0-.731-1.735,4.47,4.47,0,0,0-3.671-1.588,6.153,6.153,0,0,1-1.154.021,3.813,3.813,0,0,1-1.692-.894l-4.272-3.291a5.273,5.273,0,0,0-1.615-.96,1.8,1.8,0,0,0-1.774.32c-.8.789-.291,2.148-.613,3.218a3.126,3.126,0,0,1-2.1,1.869c-.927.313-1.919.382-2.871.609a1.585,1.585,0,0,0-.768.353,1.487,1.487,0,0,0-.334,1.07,5.77,5.77,0,0,0,.663,2.722c.18.342.4.687.59,1.037l.047.087c.021.04.043.08.063.121q.05.1.095.2c.013.028.025.057.037.085q.03.07.057.14c.011.03.023.06.033.089.019.055.036.11.052.166a1.842,1.842,0,0,1,.028,1,3.726,3.726,0,0,1-.942,1.38,2.685,2.685,0,0,0-.629,1.167l0,.01a.937.937,0,0,0-.012.308c0,.013,0,.026.006.038a.537.537,0,0,0,.019.067.468.468,0,0,0,.02.047.438.438,0,0,0,.027.052.4.4,0,0,0,.065.076l.036.027a.434.434,0,0,0,.065.04l.044.019a.6.6,0,0,0,.1.029l.029.007a.958.958,0,0,0,.164.007l.05,0a1.557,1.557,0,0,0,.157-.02l.057-.01c.075-.016.154-.035.241-.062a5.4,5.4,0,0,0,.833-.329c0,.031,0,.061,0,.092,0,.053,0,.108.005.161a8.483,8.483,0,0,0,.551,2.887,8.719,8.719,0,0,0,2.66,3.675q-.022.13-.049.262c-.246,1.207-.76,2.418-1.077,2.324a4.326,4.326,0,0,0-.946-.1c-.1,0-.19,0-.278,0h0a3.772,3.772,0,0,0-.867,0,.94.94,0,0,1-.379-.052,5.174,5.174,0,0,0-2.548-.143c-1.764.361-4.447,1.023-5.182,1.814-1.122,1.208-2.754,2.366-4.591,7.4,0,0-.918,3.07-1.632,3.473a4.76,4.76,0,0,1,.485-.218,1.293,1.293,0,0,1-.383.419,5.632,5.632,0,0,1,.8-.335c-.557,3.279.268,12.659.268,12.659s-.663,1.617.2,2.574a4.846,4.846,0,0,1,.939,2.082l-.126.2h0c-.459.712-1.073,1.64-1.476,2.151-.714.906-.51,3.775-.51,3.775a4,4,0,0,1-.663,1.862c-.51.5-.408,2.366-.408,2.366l-1.326,4.882s-1.224,1.107-1.224,1.611a6.615,6.615,0,0,1-.969,1.913s-1.479,2.416,0,2.064a4.642,4.642,0,0,0,1.493-.751v.036q0,.133-.005.27c-.042,2.631.245,6.334,2.185,6.334,3.009,0,10.762,3.574,10.762,3.574a5.2,5.2,0,0,0,3.723.805s-3.774,3.775-3.672,5.335-2.142,4.127-2.142,4.127l-6.937,13.539a10.383,10.383,0,0,0,.5,2.775c-.033.029-.067.056-.1.086-2.665,2.435-2.9,7.256-2.9,7.256l-.612,2.466L752,452.339s12.037.252,14.129-.3,1.632-2.869-1.122-3.322-3.417-1.661-4.335-2.215a43.512,43.512,0,0,1-4.183-4.317l-.06-.068.316-1.755c.612-.3,1.53-3.322,1.53-3.322s0-1.208.612-1.56,1.887-3.976,1.887-3.976,2.754-4.58,2.6-5.184,1.989-3.674,1.989-3.674,3.621-3.523,3.468-4.152,2.907-3.85,2.907-3.85a10.213,10.213,0,0,0,2.708-3.119c.275-.044.571-.092.883-.144,4.005-.656,10.66-1.843,11.4-2.173,1.02-.453.816,1.56.408,3.272s-.714,9.915-.255,10.972a6.609,6.609,0,0,1,.255,2.768l-.612,9.211.408,1.963s-1.377,1.107-.816,1.762.051,3.473.051,3.473c.048-.018.105-.035.169-.052-.049.111-.1.224-.138.343a16.547,16.547,0,0,0-.338,5.95v2.919s14.129.252,17.24.252,7.4-1.51,7.651-2.718S807.19,447.1,805.763,447.055Zm-40.184-52.4-.926.078A7.691,7.691,0,0,1,765.579,394.658Zm5.643-38.632c.13-.582.287-1.208.46-1.851Zm1.745,40.044a3.744,3.744,0,0,1-2.748,0l-.006,0a29.166,29.166,0,0,1,.459-4.983c.408-1.46.969-4.127.969-4.127a54.028,54.028,0,0,1,.918-5.335c.459-1.661,2.244-10.922,3.162-11.526a.967.967,0,0,1,1.428.453s.137,0,.367-.028q.065.145.146.308a75.786,75.786,0,0,0,4.281,6.716,7.354,7.354,0,0,1,2.346,2.315c.867,1.46,1.122,4.882,1.122,4.882s1.938,7.6,2.856,8.657c.459.528.255.844-.063,1.026a4.519,4.519,0,0,0-1.61,1.487c-.131.207-.269.435-.409.678-.351-.081-.665-.166-.927-.254-2.5-.84-10.915-.873-12.293-.269Z" transform="translate(-565.367 -257.211)" fill="url(#a)"/><path d="M922.768,791.233v2.895s13.825.25,16.87.25,7.237-1.5,7.487-2.7-3.494-2.2-4.891-2.246-1.447-.6-3.244-1.547a18.7,18.7,0,0,1-3.7-3.34c-.885-.965-1.538-1.751-1.538-1.751s-7.437-.15-9.583,1.048a2.6,2.6,0,0,0-1.067,1.486A16.629,16.629,0,0,0,922.768,791.233Z" transform="translate(-702.599 -599.548)" fill="#434175"/><path d="M924.472,785.333c1.559-.542,10.688-.753,12.188-.784-.885-.965-1.538-1.751-1.538-1.751s-7.437-.15-9.583,1.048A2.6,2.6,0,0,0,924.472,785.333Z" transform="translate(-703.972 -599.548)" opacity="0.1"/><path d="M763.77,602.037l.807.487.3.183,1.173.707c6.273,3.78,23.384,14.028,24.32,13.946.246-.021.983-.132,2-.3.269-.044.559-.091.864-.143,3.919-.651,10.431-1.828,11.159-2.155,1-.449.8,1.547.4,3.244s-.7,9.832-.25,10.88a6.638,6.638,0,0,1,.25,2.745l-.6,9.134.4,1.946s-1.348,1.1-.8,1.747.05,3.444.05,3.444c1.6-.6,12.428-.8,12.428-.8s-.449-3.993-.05-4.941.1-6.588.1-6.588.25-4.292-.2-5.29.15-7.387.15-7.387.4-3.793.5-11.529-4.392-7.986-4.392-7.986-.6-.047-1.508-.135a66.9,66.9,0,0,1-6.724-.927,11.215,11.215,0,0,1-1.2-.318c-2.446-.833-10.681-.865-12.028-.267a3.619,3.619,0,0,1-2.689,0l-.006,0-1.048-1.7-10.011.853-1.061.091-9.855.841-.678.058Z" transform="translate(-583.379 -462.408)" fill="#565387"/><path d="M920.065,616.555c2.908,1.417,5.683-3.608,6.976-6.443a66.882,66.882,0,0,1-6.724-.927C919.015,611.37,917.277,615.2,920.065,616.555Z" transform="translate(-699.546 -469.269)" opacity="0.1"/><path d="M889.552,487.948a3.048,3.048,0,0,0,.352.976,75.279,75.279,0,0,0,4.189,6.66,7.236,7.236,0,0,1,2.3,2.3c.848,1.447,1.1,4.841,1.1,4.841s1.9,7.536,2.795,8.584c.449.524.25.836-.062,1.017a4.446,4.446,0,0,0-1.575,1.474c-1.309,2.1-3.4,6.278-.459,7.71,3.993,1.946,7.736-8.255,7.736-8.255s-.749-7.237-.948-8.485-1.4-6.388-1.4-6.388-.849-2.2-1.348-3.743a12.659,12.659,0,0,0-2-3.344,62.136,62.136,0,0,0-3.444-6.189c-.347-.37-.835-.837-1.257-1.232-.488-.456-.889-.815-.889-.815S889.5,486.75,889.552,487.948Z" transform="translate(-677.768 -374.622)" fill="#ee8e9e"/><path d="M753.971,781.035l9.084,4.043s11.779.25,13.825-.3,1.6-2.845-1.1-3.294-3.344-1.647-4.242-2.2a42.892,42.892,0,0,1-4.094-4.281c-.643-.731-1.1-1.259-1.1-1.259s-1.747-4.642-6.588-3.594a4.96,4.96,0,0,0-2.356,1.24c-2.608,2.415-2.835,7.2-2.835,7.2Z" transform="translate(-576.026 -589.949)" fill="#434175"/><path d="M768.213,602.107l1.173.707c6.273,3.78,23.384,14.028,24.32,13.946.246-.021.983-.132,2-.3.269-.044.559-.091.864-.143.012-.019.023-.038.034-.057a11.474,11.474,0,0,0,1.143-2.8c1.048-3.993-4.143-7.037-4.143-7.037l-1.1-.853c-1.248-2.1-10.232-4.088-10.232-4.088l-1.158-.778-.618-.415-.163-.109-1.405-.944-7.037.5-2.09,1.344-.221.142-.776.5Z" transform="translate(-586.713 -461.808)" opacity="0.1"/><path d="M767.729,771.4c1.911,6.608,9.892,4.45,9.892,4.45l.149-.837c-.643-.731-1.1-1.259-1.1-1.259s-1.747-4.642-6.588-3.594a4.96,4.96,0,0,0-2.356,1.24Z" transform="translate(-586.35 -589.949)" opacity="0.1"/><path d="M752.931,613.866c2.945,0,10.531,3.544,10.531,3.544a5.031,5.031,0,0,0,3.643.8s-3.693,3.743-3.594,5.29-2.1,4.093-2.1,4.093l-6.788,13.426c.5,9.533,10.281,6.888,10.281,6.888l.4-2.246c.6-.3,1.5-3.294,1.5-3.294s0-1.2.6-1.547,1.847-3.943,1.847-3.943,2.7-4.542,2.545-5.141,1.947-3.643,1.947-3.643,3.544-3.494,3.394-4.118,2.845-3.818,2.845-3.818a10.08,10.08,0,0,0,2.65-3.092,11.474,11.474,0,0,0,1.143-2.8c.844-3.215-2.358-5.817-3.636-6.706-.309-.216-.506-.331-.506-.331l-1.1-.853c-.567-.956-2.735-1.888-4.93-2.619-1.583-.528-3.181-.952-4.2-1.207-.676-.168-1.1-.262-1.1-.262l-1.158-.778-.407-.273-.373-.251-1.405-.944-3.131.222-3.906.278-2.09,1.344-1,.641-3.9,2.508s-.1.96-.136,2.249c0,.1,0,.2-.006.3C750.752,610.195,751.033,613.866,752.931,613.866Z" transform="translate(-573.638 -462.408)" fill="#565387"/><path d="M819.562,416.883l1.048,3.743s1.847,6.438,2.046,6.888A71.006,71.006,0,0,0,827.9,432.6c.2.1,2.836,1.6,2.836,1.6s.209-8.235.009-10.631a6.841,6.841,0,0,1,.13-1.569,59.029,59.029,0,0,1,1.792-6.751c.559-1.777,1.023-3.109,1.023-3.109s-11.679-.5-11.28.649a4.1,4.1,0,0,1-.044,1.888c-.241,1.2-.744,2.4-1.054,2.3a4.178,4.178,0,0,0-.925-.1C819.952,416.867,819.562,416.883,819.562,416.883Z" transform="translate(-625.246 -321.325)" fill="#ee8e9e"/><path d="M830.785,414.678a8.638,8.638,0,0,0,10.3.573c.559-1.777,1.023-3.109,1.023-3.109s-11.679-.5-11.28.649A4.1,4.1,0,0,1,830.785,414.678Z" transform="translate(-633.668 -321.324)" opacity="0.1"/><path d="M835.636,368.916a8.6,8.6,0,0,1-.432,2.7,7.042,7.042,0,0,1-.25.661,8.635,8.635,0,0,1-16.043-.334,8.512,8.512,0,0,1-.539-2.863c0-.052,0-.107,0-.16a8.634,8.634,0,0,1,17.269,0Z" transform="translate(-624.349 -282.489)" fill="#ee8e9e"/><path d="M819.562,431.44l1.048,3.743s1.847,6.438,2.046,6.888a71.006,71.006,0,0,0,5.241,5.091c.2.1,2.836,1.6,2.836,1.6s.209-8.235.009-10.631a6.841,6.841,0,0,1,.13-1.569l-.679,2.767.05,5.54.4.3-.9,1.348v-1s-3.194-3.094-3.693-4.392a21.785,21.785,0,0,0-2.3-3.647,29.592,29.592,0,0,1-2.1-4.039,6.444,6.444,0,0,0-1.275-2C819.952,431.424,819.562,431.44,819.562,431.44Z" transform="translate(-625.246 -335.881)" opacity="0.1"/><path d="M889.552,487.948a3.048,3.048,0,0,0,.352.976,6.16,6.16,0,0,0,5.628-5.053c-.488-.456-.889-.815-.889-.815S889.5,486.75,889.552,487.948Z" transform="translate(-677.768 -374.621)" opacity="0.1"/><path d="M750.8,607.585c1.007-.713,1.965-1.685,2.537-1.954a11.024,11.024,0,0,0,2.146-1.7s.329-.224.834-.52a10.086,10.086,0,0,1,3.607-1.426c1.042-.087,4.5-.308,7.227-.478,1.97-.124,3.554-.221,3.554-.221s3.244-1.148,4.642-.4a14.669,14.669,0,0,0,3.144,1.148s0-.109.006-.3l-.006,0-1.048-1.7-11.072.944-1.405-.944-7.037.5-2.09,1.344-1.8.154.807.487-3.9,2.508S750.826,606.147,750.8,607.585Z" transform="translate(-573.649 -462.408)" opacity="0.1"/><path d="M743.038,480.63a4.518,4.518,0,0,0,1.461-.745h0c1.005-.712,1.96-1.681,2.531-1.949a11.024,11.024,0,0,0,2.146-1.7s2.645-1.8,4.442-1.946c.49-.041,1.514-.112,2.745-.192,1.26-.084,2.734-.178,4.075-.261l2.115-.133,1.846-.114s3.244-1.148,4.642-.4a14.665,14.665,0,0,0,3.144,1.148,29.3,29.3,0,0,1,.449-4.941c.4-1.447.948-4.093.948-4.093s.449-3.643.9-5.29,2.2-10.83,3.094-11.429,1.4.449,1.4.449a6.3,6.3,0,0,0,6.089-6.688s-2.795-2.795-2.995-3.494-2.845-3.294-2.845-3.294-1.5-2.795-3.194-2.845a13.654,13.654,0,0,0-2.4.074l-1.439,5.865.05,5.54.4.3-.9,1.348v-1s-3.194-3.094-3.693-4.392a21.786,21.786,0,0,0-2.3-3.647,29.59,29.59,0,0,1-2.1-4.039c-.05-.6-1.447-2.2-1.447-2.2a3.643,3.643,0,0,0-.849,0,.907.907,0,0,1-.371-.052,5,5,0,0,0-2.494-.142c-1.726.358-4.351,1.014-5.071,1.8-1.1,1.2-2.7,2.346-4.492,7.337L758.61,443l-.828,1.575-7.706,14.646s-.255.416-.6.96h0c-.449.706-1.05,1.626-1.444,2.133-.7.9-.5,3.743-.5,3.743a4,4,0,0,1-.649,1.847c-.5.5-.4,2.346-.4,2.346l-1.3,4.841s-1.2,1.1-1.2,1.6a6.591,6.591,0,0,1-.948,1.9S741.591,480.98,743.038,480.63Z" transform="translate(-567.339 -335.012)" fill="#434175"/><path d="M937.44,646.435s-3.144,1.048-3.993,2.545S937.44,646.435,937.44,646.435Z" transform="translate(-710.633 -497.223)" opacity="0.1"/><path d="M931.155,633.237c-.1.15-4.307,4.371-4.043,5.39S931.155,633.237,931.155,633.237Z" transform="translate(-705.945 -487.319)" opacity="0.1"/><path d="M835.389,645.235s-4.691,2.213-5.091,3.177S835.389,645.235,835.389,645.235Z" transform="translate(-633.288 -496.323)" opacity="0.1"/><path d="M834.959,656.634s-4.234,1.8-4.812,2.246S834.959,656.634,834.959,656.634Z" transform="translate(-633.157 -504.877)" opacity="0.1"/><path d="M832.493,671.189s-1.875,1.4-2.909.3S832.493,671.189,832.493,671.189Z" transform="translate(-632.637 -515.588)" opacity="0.1"/><path d="M845.377,526.051c-.1.15-6.339,11.379-7.986,12.228S845.377,526.051,845.377,526.051Z" transform="translate(-638.483 -406.885)" opacity="0.1"/><path d="M847.19,543.049c0,.25-6.089,13.276-7.087,13.426S847.19,543.049,847.19,543.049Z" transform="translate(-640.597 -419.641)" opacity="0.1"/><path d="M763.166,576.644s-2.941,6.28-4.093,6.638S763.166,576.644,763.166,576.644Z" transform="translate(-579.73 -444.851)" opacity="0.1"/><path d="M768.747,565.446s-1.014,2.2-1.63,2.2S768.747,565.446,768.747,565.446Z" transform="translate(-585.81 -436.448)" opacity="0.1"/><path d="M835.636,368.916a8.6,8.6,0,0,1-.432,2.7,7.058,7.058,0,0,1-.25.661,2.539,2.539,0,0,1-1.211-.532,3,3,0,0,1-.906-.968,12.136,12.136,0,0,1-.442-1.26,2.932,2.932,0,0,0-2.369-1.794.92.92,0,0,1-.731,1.248,1.786,1.786,0,0,1-1.495-.666c-.387-.417-.666-.923-1.051-1.34a1.786,1.786,0,0,0-1.495-.666,3.42,3.42,0,0,0-1.3.736,1.249,1.249,0,0,1-1.4.17c-.225-.167-.334-.452-.549-.634-.552-.462-1.41.015-1.817.611a4.823,4.823,0,0,1-1.822,1.9c0-.052,0-.107,0-.16a8.634,8.634,0,1,1,17.269,0Z" transform="translate(-624.349 -282.489)" opacity="0.1"/><path d="M814.313,344.815c.406-.6,1.264-1.074,1.817-.61.215.18.324.465.548.634a1.249,1.249,0,0,0,1.4-.17,3.4,3.4,0,0,1,1.3-.736,1.781,1.781,0,0,1,1.495.666c.386.417.665.923,1.051,1.34a1.78,1.78,0,0,0,1.5.666.918.918,0,0,0,.731-1.247,2.933,2.933,0,0,1,2.368,1.794,12.15,12.15,0,0,0,.442,1.26,2.989,2.989,0,0,0,.907.967,2.147,2.147,0,0,0,1.572.521c.559-.1,1.033-.738.773-1.243.179.272.563-.107.621-.427a4.566,4.566,0,0,0-.115-2.107c-.276-.928-.854-1.848-.631-2.79a7.831,7.831,0,0,1,1.2-1.943,3.511,3.511,0,0,0-.33-3.825,4.348,4.348,0,0,0-3.592-1.575,5.94,5.94,0,0,1-1.13.021,3.716,3.716,0,0,1-1.656-.886l-4.181-3.263a5.145,5.145,0,0,0-1.58-.952,1.747,1.747,0,0,0-1.736.317c-.783.783-.285,2.13-.6,3.191a3.073,3.073,0,0,1-2.055,1.853c-.907.311-1.878.379-2.81.6a1.542,1.542,0,0,0-.752.35,1.487,1.487,0,0,0-.327,1.061,5.783,5.783,0,0,0,.649,2.7c.484.931,1.251,1.888.98,2.9a3.7,3.7,0,0,1-.921,1.369c-.79.909-1.057,2.251.43,1.782A4.3,4.3,0,0,0,814.313,344.815Z" transform="translate(-618.467 -260.377)" fill="#434175"/><g transform="translate(192.067 77.518)" opacity="0.1"><path d="M831.055,383.683c-.058.32-.442.7-.621.427.26.5-.214,1.146-.773,1.243a2.148,2.148,0,0,1-1.573-.521,2.989,2.989,0,0,1-.907-.967,12.166,12.166,0,0,1-.442-1.26,2.933,2.933,0,0,0-2.368-1.794.918.918,0,0,1-.731,1.247,1.78,1.78,0,0,1-1.495-.666c-.386-.417-.665-.923-1.051-1.34a1.781,1.781,0,0,0-1.495-.666,3.4,3.4,0,0,0-1.3.736,1.249,1.249,0,0,1-1.4.17c-.224-.169-.333-.453-.548-.634-.553-.464-1.411.013-1.817.61a4.3,4.3,0,0,1-2.642,2.225c-.47.148-.764.115-.922-.028-.314.722-.171,1.357.922,1.012a4.3,4.3,0,0,0,2.642-2.225c.406-.6,1.264-1.074,1.817-.61.215.18.324.465.548.634a1.249,1.249,0,0,0,1.4-.17,3.4,3.4,0,0,1,1.3-.736,1.781,1.781,0,0,1,1.495.666c.386.417.665.923,1.051,1.34a1.78,1.78,0,0,0,1.495.666.918.918,0,0,0,.731-1.247,2.933,2.933,0,0,1,2.368,1.794,12.166,12.166,0,0,0,.442,1.26,2.99,2.99,0,0,0,.907.967,2.148,2.148,0,0,0,1.573.521c.559-.1,1.033-.738.773-1.243.179.272.563-.107.621-.427a4.559,4.559,0,0,0,.045-1.306C831.088,383.469,831.074,383.576,831.055,383.683Z" transform="translate(-810.76 -374.332)"/><path d="M812.169,364.229c0-.013.009-.025.013-.038.272-1.014-.5-1.971-.98-2.9a5.785,5.785,0,0,1-.62-2.108,2.8,2.8,0,0,0-.029.393,5.784,5.784,0,0,0,.649,2.7A10.17,10.17,0,0,1,812.169,364.229Z" transform="translate(-810.553 -359.181)"/><path d="M889.928,365.871a7.829,7.829,0,0,0-1.2,1.943,2.167,2.167,0,0,0,.009.956,8.2,8.2,0,0,1,1.192-1.915,3.28,3.28,0,0,0,.384-2.107A3.088,3.088,0,0,1,889.928,365.871Z" transform="translate(-869.179 -363.359)"/></g><path d="M770.757,503.174h0a7.618,7.618,0,0,1,.153.835s3.943,9.233,4.442,9.782c.154.169.733,1,1.46,2.068.263.386.546.8.836,1.234,1.509,2.24,3.194,4.783,3.194,4.783l3.693,3.244s8.034.643,10.588-1.964c-.309-.216-.506-.331-.506-.331l-1.1-.853c-.567-.956-2.735-1.888-4.93-2.619-2.022.015-3.676.179-3.676.179l-.526-1.385-.549-1.445-2.792-7.351s-1.8-9.283-2.4-9.732-.449-1.847-.449-1.847,1.1-3.943.7-4.492.649-4.592.649-4.592a4.187,4.187,0,0,0-.479-1.12l-7.706,14.646S771.1,502.63,770.757,503.174Z" transform="translate(-588.622 -378.007)" opacity="0.1"/><path d="M775.295,478.114s-1.048,4.043-.649,4.592-.7,4.492-.7,4.492-.15,1.4.449,1.847,2.4,9.732,2.4,9.732l3.867,10.182s12.1-1.2,10.853,2.6-11.23,2.995-11.23,2.995l-3.693-3.244s-4.991-7.536-5.49-8.085-4.442-9.782-4.442-9.782a5.967,5.967,0,0,0-1.048-2.795c-.848-.948-.2-2.552-.2-2.552s-1.048-12.071.05-13.519S774.147,473.772,775.295,478.114Z" transform="translate(-584.273 -367.732)" fill="#ee8e9e"/><path d="M767.312,458.393l-3.144,1.9s-.9,3.045-1.6,3.444c0,0,6.289-3.494,11.03,4.542a1.819,1.819,0,0,1,.5-1.547c.649-.5.5-2.645.5-2.645a8.655,8.655,0,0,0,.449-1.048C775.5,461.937,773.151,455.648,767.312,458.393Z" transform="translate(-582.479 -355.598)" opacity="0.1"/><path d="M766.912,457.593l-3.144,1.9s-.9,3.044-1.6,3.444c0,0,6.289-3.494,11.03,4.542a1.819,1.819,0,0,1,.5-1.547c.649-.5.5-2.645.5-2.645a8.643,8.643,0,0,0,.449-1.048C775.1,461.137,772.751,454.848,766.912,457.593Z" transform="translate(-582.179 -354.997)" fill="#434175"/><ellipse cx="9.374" cy="9.95" rx="9.374" ry="9.95" transform="translate(147.334 170.102)" fill="#fbd56f"/><ellipse cx="9.374" cy="9.95" rx="9.374" ry="9.95" transform="translate(147.334 170.102)" opacity="0.1"/><ellipse cx="9.374" cy="9.728" rx="9.374" ry="9.728" transform="translate(148.952 170.545)" fill="#fbd56f"/><ellipse cx="11.577" cy="1.957" rx="11.577" ry="1.957" transform="translate(10.921 181.605)" fill="#6c63ff"/><path d="M118.109,755.2a3.361,3.361,0,0,0,1.1-1.666,1.481,1.481,0,0,0-.771-1.7,2.168,2.168,0,0,0-2.039.716,2.727,2.727,0,0,1-1.983.957,3.018,3.018,0,0,0,.933-2.825,1.18,1.18,0,0,0-.26-.574c-.393-.42-1.106-.24-1.577.091-1.5,1.053-1.915,3.087-1.923,4.918a9.3,9.3,0,0,1-.028-2.026,2.078,2.078,0,0,0-.761-1.792,2.292,2.292,0,0,0-1.16-.273,2.4,2.4,0,0,0-1.882.535,1.871,1.871,0,0,0,.074,2.311,7.3,7.3,0,0,0,1.948,1.56,4.32,4.32,0,0,1,1.392,1.328,1.314,1.314,0,0,1,.1.237H115.5a11.758,11.758,0,0,0,2.609-1.8Z" transform="translate(-90.823 -574.841)" fill="#6c63ff"/><path d="M516.2,727.676a10.092,10.092,0,0,1,1.255,2.291c.084.211.166.432.244.664,1.247,3.728-.729,8.2-1.294,7.715s-2.326-1.377-2.666-.12a7.214,7.214,0,0,1-1.6,2.542c-2.291,2.3-4.365-.185-5.727-2.758a24.924,24.924,0,0,1-1.184-2.617c-.3-.79-.476-1.336-.476-1.336l9.543-8.131A5.649,5.649,0,0,1,516.2,727.676Z" transform="translate(-389.012 -556.876)" fill="#6c63ff"/><path d="M455.941,748.509A10.093,10.093,0,0,1,457.2,750.8c.084.211.166.432.244.664,1.247,3.728-.729,8.2-1.294,7.715s-2.326-1.377-2.666-.12a7.214,7.214,0,0,1-1.6,2.542c-2.291,2.3-4.365-.185-5.727-2.758a24.923,24.923,0,0,1-1.184-2.617c-.3-.79-.476-1.336-.476-1.336l9.543-8.131A5.648,5.648,0,0,1,455.941,748.509Z" transform="translate(-343.789 -572.509)" fill="#6c63ff"/><path d="M325.963,774.846a10.091,10.091,0,0,1-.5,2.565c-.07.216-.148.439-.236.667-1.419,3.666-5.793,5.846-5.92,5.114s-.912-2.544-1.976-1.794a7.214,7.214,0,0,1-2.853.937c-3.235.312-3.242-2.929-2.649-5.778a24.923,24.923,0,0,1,.758-2.771c.272-.8.486-1.332.486-1.332l12.536-.17A5.65,5.65,0,0,1,325.963,774.846Z" transform="translate(-244.012 -591.663)" fill="#6c63ff"/><path d="M261.064,758.478a10.094,10.094,0,0,1-.5,2.565c-.07.216-.148.439-.236.667-1.419,3.666-5.793,5.846-5.92,5.114s-.912-2.544-1.976-1.794a7.213,7.213,0,0,1-2.853.937c-3.235.312-3.242-2.928-2.649-5.778a24.93,24.93,0,0,1,.758-2.771c.272-.8.486-1.332.486-1.332l12.536-.169A5.648,5.648,0,0,1,261.064,758.478Z" transform="translate(-195.31 -579.38)" fill="#6c63ff"/><path d="M516.2,727.676a10.092,10.092,0,0,1,1.255,2.291c.084.211.166.432.244.664,1.247,3.728-.729,8.2-1.294,7.715s-2.326-1.377-2.666-.12a7.214,7.214,0,0,1-1.6,2.542c-2.291,2.3-4.365-.185-5.727-2.758a24.924,24.924,0,0,1-1.184-2.617c-.3-.79-.476-1.336-.476-1.336l9.543-8.131A5.649,5.649,0,0,1,516.2,727.676Z" transform="translate(-389.012 -556.876)" opacity="0.2"/><path d="M455.941,748.509A10.093,10.093,0,0,1,457.2,750.8c.084.211.166.432.244.664,1.247,3.728-.729,8.2-1.294,7.715s-2.326-1.377-2.666-.12a7.214,7.214,0,0,1-1.6,2.542c-2.291,2.3-4.365-.185-5.727-2.758a24.923,24.923,0,0,1-1.184-2.617c-.3-.79-.476-1.336-.476-1.336l9.543-8.131A5.648,5.648,0,0,1,455.941,748.509Z" transform="translate(-343.789 -572.509)" opacity="0.2"/><path d="M325.963,774.846a10.091,10.091,0,0,1-.5,2.565c-.07.216-.148.439-.236.667-1.419,3.666-5.793,5.846-5.92,5.114s-.912-2.544-1.976-1.794a7.214,7.214,0,0,1-2.853.937c-3.235.312-3.242-2.929-2.649-5.778a24.923,24.923,0,0,1,.758-2.771c.272-.8.486-1.332.486-1.332l12.536-.17A5.65,5.65,0,0,1,325.963,774.846Z" transform="translate(-244.012 -591.663)" opacity="0.2"/><path d="M261.064,758.478a10.094,10.094,0,0,1-.5,2.565c-.07.216-.148.439-.236.667-1.419,3.666-5.793,5.846-5.92,5.114s-.912-2.544-1.976-1.794a7.213,7.213,0,0,1-2.853.937c-3.235.312-3.242-2.928-2.649-5.778a24.93,24.93,0,0,1,.758-2.771c.272-.8.486-1.332.486-1.332l12.536-.169A5.648,5.648,0,0,1,261.064,758.478Z" transform="translate(-195.31 -579.38)" opacity="0.2"/><path d="M270.121,363.756c0,33.484-11.327,60.628-63.6,60.628-35.125,0-62.3-8.727-63.6-60.628-.838-33.473,28.474-60.628,63.6-60.628S270.121,330.272,270.121,363.756Z" transform="translate(-117.472 -239.6)" fill="#6c63ff"/><path d="M349.994,307.369H350l-.006,0Z" transform="translate(-272.874 -242.782)" opacity="0.2"/><path d="M350.224,306.969c.162-.026.481-.071.945-.106l-1.034.123.056-.011Z" transform="translate(-272.98 -242.402)" opacity="0.2"/><path d="M400.351,329.274l-4.642,1.671a103.687,103.687,0,0,0-7.626-9.091,74.5,74.5,0,0,0-9.658-8.651c-11.886-8.809-21.079-9.034-24.116-8.807l6.978-.821a56.735,56.735,0,0,1,18.734,6.772,61.891,61.891,0,0,1,11.258,8.317A55.051,55.051,0,0,1,400.351,329.274Z" transform="translate(-276.113 -239.935)" opacity="0.2"/><path d="M361.557,340.459s-6.128-20.426-.928-26c0,0,8.17-2.785,14.3,13Z" transform="translate(-279.285 -247.963)" opacity="0.2"/><path d="M494.962,307.9s16.25-13.809,23.439-11.282c0,0,5.83,6.366-6.168,18.312Z" transform="translate(-381.661 -234.485)" fill="#6c63ff"/><path d="M494.962,307.9s16.25-13.809,23.439-11.282c0,0,5.83,6.366-6.168,18.312Z" transform="translate(-381.661 -234.485)" opacity="0.2"/><path d="M565.68,509.645c0,18-12.915,32.217-25.068,32.217s-18.94-14.219-18.94-32.217,9.872-31.885,22-32.589C562.9,475.942,565.68,491.646,565.68,509.645Z" transform="translate(-401.704 -370.076)" fill="#6c63ff"/><path d="M565.68,509.645c0,18-12.915,32.217-25.068,32.217s-18.94-14.219-18.94-32.217,9.872-31.885,22-32.589C562.9,475.942,565.68,491.646,565.68,509.645Z" transform="translate(-401.704 -370.076)" opacity="0.2"/><ellipse cx="4.085" cy="5.199" rx="4.085" ry="5.199" transform="translate(134.08 137.061)" fill="#6c63ff"/><ellipse cx="4.085" cy="5.199" rx="4.085" ry="5.199" transform="translate(148.564 132.605)" fill="#6c63ff"/><path d="M464.58,328.832a7.414,7.414,0,0,1-.793,3.354,7.126,7.126,0,0,1-3.2,3.19,74.5,74.5,0,0,0-9.658-8.651,7.278,7.278,0,0,1,1.6-2.856,6.846,6.846,0,0,1,5.077-2.275A7.11,7.11,0,0,1,464.58,328.832Z" transform="translate(-348.62 -253.457)" fill="#fad46f"/></g></svg>