<svg xmlns="http://www.w3.org/2000/svg" xmlns:xlink="http://www.w3.org/1999/xlink" width="279" height="213.344" viewBox="0 0 279 213.344"><defs><linearGradient id="a" y1="0.5" x2="1" y2="0.5" gradientUnits="objectBoundingBox"><stop offset="0" stop-color="gray" stop-opacity="0.251"/><stop offset="0.54" stop-color="gray" stop-opacity="0.122"/><stop offset="1" stop-color="gray" stop-opacity="0.102"/></linearGradient><linearGradient id="b" x1="0" y1="0.5" x2="1" y2="0.5" xlink:href="#a"/><linearGradient id="d" x1="0" y1="0.5" x2="1" y2="0.5" xlink:href="#a"/><linearGradient id="e" x1="0" y1="0.5" x2="1" y2="0.5" xlink:href="#a"/><linearGradient id="g" x1="0" y1="0.5" x2="1" y2="0.5" xlink:href="#a"/><linearGradient id="h" x1="0" y1="0.5" x2="1" y2="0.5" xlink:href="#a"/><linearGradient id="m" x1="0" y1="0.5" x2="1" y2="0.5" xlink:href="#a"/><linearGradient id="n" x1="0" y1="0.501" x2="1" y2="0.501" xlink:href="#a"/><linearGradient id="o" x1="0" y1="0.5" x2="1" y2="0.5" xlink:href="#a"/><linearGradient id="q" x1="0" y1="0.5" x2="1" y2="0.5" xlink:href="#a"/><linearGradient id="r" x1="0" y1="0.5" x2="1" y2="0.5" xlink:href="#a"/><linearGradient id="s" x1="0" y1="0.5" x2="0.999" y2="0.5" xlink:href="#a"/><linearGradient id="t" x1="0" y1="0.5" x2="0.999" y2="0.5" xlink:href="#a"/><linearGradient id="u" x1="0.5" y1="1" x2="0.5" y2="0" xlink:href="#a"/><linearGradient id="v" x1="0.5" y1="1" x2="0.5" y2="0" xlink:href="#a"/></defs><path d="M871.977,710.144H852V698.89h19.977Zm-19.132-.844h18.288v-9.566H852.844Z" transform="translate(-641.825 -522.196)" fill="#6c63ff" opacity="0.2"/><path d="M942.977,708.144H923V696.89h19.977Zm-19.132-.844h18.288v-9.566H923.844Z" transform="translate(-692.848 -520.759)" fill="#6c63ff" opacity="0.2"/><path d="M1013.977,708.144H994V696.89h19.977Zm-19.132-.844h18.288v-9.566H994.844Z" transform="translate(-743.871 -520.759)" fill="#6c63ff" opacity="0.2"/><path d="M1013.977,668.144H994V656.89h19.977Zm-19.132-.844h18.288v-9.566H994.844Z" transform="translate(-743.871 -492.013)" fill="#6c63ff" opacity="0.2"/><path d="M942.977,668.144H923V656.89h19.977Zm-19.132-.844h18.288v-9.566H923.844Z" transform="translate(-692.848 -492.013)" fill="#6c63ff" opacity="0.2"/><path d="M142.977,708.144H123V696.89h19.977Zm-19.132-.844h18.288v-9.566H123.844Z" transform="translate(-117.936 -520.759)" fill="#6c63ff" opacity="0.2"/><path d="M213.977,708.144H194V696.89h19.977Zm-19.132-.844h18.288v-9.566H194.844Z" transform="translate(-168.959 -520.759)" fill="#6c63ff" opacity="0.2"/><path d="M284.977,708.144H265V696.89h19.977Zm-19.132-.844h18.288v-9.566H265.844Z" transform="translate(-219.982 -520.759)" fill="#6c63ff" opacity="0.2"/><path d="M355.977,710.144H336V698.89h19.977Zm-19.132-.844h18.288v-9.566H336.844Z" transform="translate(-271.006 -522.196)" fill="#6c63ff" opacity="0.2"/><path d="M284.977,668.144H265V656.89h19.977Zm-19.132-.844h18.288v-9.566H265.844Z" transform="translate(-219.982 -492.013)" fill="#6c63ff" opacity="0.2"/><path d="M213.977,668.144H194V656.89h19.977Zm-19.132-.844h18.288v-9.566H194.844Z" transform="translate(-168.959 -492.013)" fill="#6c63ff" opacity="0.2"/><path d="M991.562,510.872s-3.7-12.557.692-21.8a19.833,19.833,0,0,0,1.6-12.442,33.369,33.369,0,0,0-1.761-5.841" transform="translate(-741.073 -358.274)" fill="none" stroke="#535461" stroke-miterlimit="10" stroke-width="2"/><path d="M992.671,442.882c0,1.539-2.785,6-2.785,6s-2.785-4.462-2.785-6a2.787,2.787,0,0,1,5.574,0Z" transform="translate(-738.913 -336.216)" fill="#6c63ff"/><path d="M1008.962,469.338c-.844,1.291-5.6,3.523-5.6,3.523s.087-5.261.923-6.553a2.787,2.787,0,1,1,4.679,3.027Z" transform="translate(-750.598 -354.139)" fill="#6c63ff"/><path d="M1005.662,518.633c-1.373.692-6.612.214-6.612.214s2.729-4.5,4.1-5.191a2.787,2.787,0,1,1,2.51,4.977Z" transform="translate(-747.501 -388.865)" fill="#6c63ff"/><path d="M996.661,558.316c-1.238.914-6.471,1.328-6.471,1.328s1.93-4.893,3.168-5.81a2.786,2.786,0,1,1,3.314,4.479Z" transform="translate(-741.133 -417.56)" fill="#6c63ff"/><path d="M980.411,481.675c1.1,1.072,6.246,2.183,6.246,2.183s-1.26-5.11-2.363-6.19a2.787,2.787,0,0,0-3.883,4Z" transform="translate(-733.498 -362.652)" fill="#6c63ff"/><path d="M968.278,526.243c1.373.692,6.612.214,6.612.214s-2.729-4.5-4.105-5.191a2.787,2.787,0,0,0-2.51,4.977Z" transform="translate(-724.283 -394.334)" fill="#6c63ff"/><path d="M965.339,572.793c1.238.914,6.471,1.328,6.471,1.328s-1.919-4.882-3.16-5.807a2.786,2.786,0,1,0-3.314,4.479Z" transform="translate(-722.461 -427.966)" fill="#6c63ff"/><path d="M992.671,442.882c0,1.539-2.785,6-2.785,6s-2.785-4.462-2.785-6a2.787,2.787,0,0,1,5.574,0Z" transform="translate(-738.913 -336.216)" opacity="0.25"/><path d="M1008.962,469.338c-.844,1.291-5.6,3.523-5.6,3.523s.087-5.261.923-6.553a2.787,2.787,0,1,1,4.679,3.027Z" transform="translate(-750.598 -354.139)" opacity="0.25"/><path d="M1005.662,518.633c-1.373.692-6.612.214-6.612.214s2.729-4.5,4.1-5.191a2.787,2.787,0,1,1,2.51,4.977Z" transform="translate(-747.501 -388.865)" opacity="0.25"/><path d="M996.661,558.316c-1.238.914-6.471,1.328-6.471,1.328s1.93-4.893,3.168-5.81a2.786,2.786,0,1,1,3.314,4.479Z" transform="translate(-741.133 -417.56)" opacity="0.25"/><path d="M980.411,481.675c1.1,1.072,6.246,2.183,6.246,2.183s-1.26-5.11-2.363-6.19a2.787,2.787,0,0,0-3.883,4Z" transform="translate(-733.498 -362.652)" opacity="0.25"/><path d="M968.278,526.243c1.373.692,6.612.214,6.612.214s-2.729-4.5-4.105-5.191a2.787,2.787,0,0,0-2.51,4.977Z" transform="translate(-724.283 -394.334)" opacity="0.25"/><path d="M965.339,572.793c1.238.914,6.471,1.328,6.471,1.328s-1.919-4.882-3.16-5.807a2.786,2.786,0,1,0-3.314,4.479Z" transform="translate(-722.461 -427.966)" opacity="0.25"/><path d="M270.026,509.682s-3.753-12.743.7-22.112a20.128,20.128,0,0,0,1.629-12.627A33.851,33.851,0,0,0,270.569,469" transform="translate(-222.532 -356.988)" fill="none" stroke="#535461" stroke-miterlimit="10" stroke-width="2"/><path d="M271.138,440.778c0,1.562-2.828,6.091-2.828,6.091s-2.83-4.544-2.83-6.091a2.828,2.828,0,1,1,5.655,0Z" transform="translate(-220.327 -334.674)" fill="#6c63ff"/><path d="M287.683,467.553c-.844,1.311-5.683,3.576-5.683,3.576s.087-5.346.937-6.649a2.827,2.827,0,1,1,4.747,3.073Z" transform="translate(-232.199 -352.812)" fill="#6c63ff"/><path d="M284.33,517.565c-1.407.7-6.71.217-6.71.217s2.771-4.564,4.164-5.267a2.828,2.828,0,0,1,2.546,5.05Z" transform="translate(-229.052 -388.042)" fill="#6c63ff"/><path d="M275.2,557.794c-1.255.928-6.578,1.348-6.578,1.348s1.97-4.966,3.216-5.909a2.832,2.832,0,1,1,3.376,4.547Z" transform="translate(-222.584 -417.12)" fill="#6c63ff"/><path d="M258.705,480.076c1.125,1.089,6.339,2.214,6.339,2.214s-1.277-5.183-2.4-6.271a2.828,2.828,0,1,0-3.939,4.057Z" transform="translate(-214.844 -361.458)" fill="#6c63ff"/><path d="M246.4,525.326c1.407.7,6.71.217,6.71.217s-2.771-4.564-4.164-5.267a2.828,2.828,0,0,0-2.546,5.05Z" transform="translate(-205.496 -393.618)" fill="#6c63ff"/><path d="M243.383,572.484c1.255.929,6.578,1.348,6.578,1.348s-1.97-4.966-3.216-5.909a2.832,2.832,0,1,0-3.376,4.547Z" transform="translate(-203.616 -427.677)" fill="#6c63ff"/><path d="M271.138,440.778c0,1.562-2.828,6.091-2.828,6.091s-2.83-4.544-2.83-6.091a2.828,2.828,0,1,1,5.655,0Z" transform="translate(-220.327 -334.674)" fill="#fff" opacity="0.5"/><path d="M287.683,467.553c-.844,1.311-5.683,3.576-5.683,3.576s.087-5.346.937-6.649a2.827,2.827,0,1,1,4.747,3.073Z" transform="translate(-232.199 -352.812)" fill="#fff" opacity="0.5"/><path d="M284.33,517.565c-1.407.7-6.71.217-6.71.217s2.771-4.564,4.164-5.267a2.828,2.828,0,0,1,2.546,5.05Z" transform="translate(-229.052 -388.042)" fill="#fff" opacity="0.5"/><path d="M275.2,557.794c-1.255.928-6.578,1.348-6.578,1.348s1.97-4.966,3.216-5.909a2.832,2.832,0,1,1,3.376,4.547Z" transform="translate(-222.584 -417.12)" fill="#fff" opacity="0.5"/><path d="M258.705,480.076c1.125,1.089,6.339,2.214,6.339,2.214s-1.277-5.183-2.4-6.271a2.828,2.828,0,1,0-3.939,4.057Z" transform="translate(-214.844 -361.458)" fill="#fff" opacity="0.5"/><path d="M246.4,525.326c1.407.7,6.71.217,6.71.217s-2.771-4.564-4.164-5.267a2.828,2.828,0,0,0-2.546,5.05Z" transform="translate(-205.496 -393.618)" fill="#fff" opacity="0.5"/><path d="M243.383,572.484c1.255.929,6.578,1.348,6.578,1.348s-1.97-4.966-3.216-5.909a2.832,2.832,0,1,0-3.376,4.547Z" transform="translate(-203.616 -427.677)" fill="#fff" opacity="0.5"/><path d="M194.816,533.3s-2.859-9.7.537-16.859a15.34,15.34,0,0,0,1.241-9.622,25.8,25.8,0,0,0-1.362-4.516" transform="translate(-168.737 -380.919)" fill="none" stroke="#535461" stroke-miterlimit="10" stroke-width="2"/><path d="M195.67,480.735c0,1.19-2.155,4.642-2.155,4.642s-2.155-3.452-2.155-4.642a2.155,2.155,0,0,1,4.31,0Z" transform="translate(-167.062 -363.873)" fill="#6c63ff"/><path d="M208.273,501.185c-.647,1-4.333,2.726-4.333,2.726s.068-4.068.715-5.064a2.156,2.156,0,1,1,3.618,2.344Z" transform="translate(-176.102 -377.73)" fill="#6c63ff"/><path d="M205.725,539.288c-1.064.535-5.115.166-5.115.166s2.11-3.478,3.174-4.015a2.155,2.155,0,0,1,1.941,3.849Z" transform="translate(-173.709 -404.567)" fill="#6c63ff"/><path d="M198.744,569.966c-.957.709-5.014,1.027-5.014,1.027s1.494-3.784,2.451-4.5a2.156,2.156,0,0,1,2.563,3.466Z" transform="translate(-168.765 -426.745)" fill="#6c63ff"/><path d="M186.187,510.721c.844.83,4.831,1.688,4.831,1.688s-.973-3.939-1.829-4.783a2.156,2.156,0,0,0-3,3.095Z" transform="translate(-162.874 -384.309)" fill="#6c63ff"/><path d="M176.813,545.188c1.064.535,5.115.166,5.115.166s-2.11-3.478-3.174-4.015a2.155,2.155,0,0,0-1.941,3.849Z" transform="translate(-155.756 -408.807)" fill="#6c63ff"/><path d="M174.537,581.156c.957.709,5.014,1.027,5.014,1.027s-1.494-3.784-2.451-4.5a2.156,2.156,0,1,0-2.563,3.466Z" transform="translate(-154.344 -434.787)" fill="#6c63ff"/><path d="M195.67,480.735c0,1.19-2.155,4.642-2.155,4.642s-2.155-3.452-2.155-4.642a2.155,2.155,0,0,1,4.31,0Z" transform="translate(-167.062 -363.873)" opacity="0.25"/><path d="M208.273,501.185c-.647,1-4.333,2.726-4.333,2.726s.068-4.068.715-5.064a2.156,2.156,0,1,1,3.618,2.344Z" transform="translate(-176.102 -377.73)" opacity="0.25"/><path d="M205.725,539.288c-1.064.535-5.115.166-5.115.166s2.11-3.478,3.174-4.015a2.155,2.155,0,0,1,1.941,3.849Z" transform="translate(-173.709 -404.567)" opacity="0.25"/><path d="M198.744,569.966c-.957.709-5.014,1.027-5.014,1.027s1.494-3.784,2.451-4.5a2.156,2.156,0,0,1,2.563,3.466Z" transform="translate(-168.765 -426.745)" opacity="0.25"/><path d="M186.187,510.721c.844.83,4.831,1.688,4.831,1.688s-.973-3.939-1.829-4.783a2.156,2.156,0,0,0-3,3.095Z" transform="translate(-162.874 -384.309)" opacity="0.25"/><path d="M176.813,545.188c1.064.535,5.115.166,5.115.166s-2.11-3.478-3.174-4.015a2.155,2.155,0,0,0-1.941,3.849Z" transform="translate(-155.756 -408.807)" opacity="0.25"/><path d="M174.537,581.156c.957.709,5.014,1.027,5.014,1.027s-1.494-3.784-2.451-4.5a2.156,2.156,0,1,0-2.563,3.466Z" transform="translate(-154.344 -434.787)" opacity="0.25"/><g transform="translate(0 22.44)" opacity="0.7"><rect width="279" height="143" transform="translate(0 -0.44)" fill="#6c63ff" opacity="0.6"/><path d="M105,150.89V293.258H383.546V150.89Zm12.38,12.38h120.7v52.614H117.38Zm0,64.994h120.7v52.614H117.38Zm253.786,52.614h-120.7V228.264h120.7Zm0-64.994h-120.7V163.27h120.7Z" transform="translate(-105 -150.821)" opacity="0.25"/></g><g transform="translate(62.093 46.639)" opacity="0.7"><path d="M397.324,669.927s-24.377-8.913-27.714,3.632l9.35,23.766,1,15.193h20.368V699.636s-3-12.875,4.676-20.8Z" transform="translate(-357.253 -545.815)" fill="url(#a)"/><g transform="translate(22.777 53.009)" opacity="0.1"><path d="M428.02,425.433c-1.035-.343-2.282-.65-3.126.034a7.884,7.884,0,0,0-1.08,1.536c-1.263,1.657-3.81,1.348-5.821,1.941-2.957.872-4.783,3.8-5.83,6.671-4.631,12.661.532,27.143-3.5,40-1.187,3.784-3.129,7.985-1.21,11.465.639,1.162,1.688,2.13,2,3.413.433,1.742-.4,4.026,1.058,5.087a4.327,4.327,0,0,0,1.578.563c3.286.867,5.776,3.424,8.28,5.7s5.515,4.474,8.911,4.324a14.514,14.514,0,0,0,3.23-.641l16.853-4.693c1.688-.47,3.523-1.038,4.5-2.479a7.071,7.071,0,0,0,.94-3.016,79.46,79.46,0,0,0,.824-12.079,10.465,10.465,0,0,0-.563-3.939,25.307,25.307,0,0,0-2.507-3.886c-1.581-2.532-2.006-5.574-2.4-8.52-.622-4.69-1.244-9.473-.383-14.127.369-2,1-3.939,1.426-5.923a28.1,28.1,0,0,0,.321-9.828,13.978,13.978,0,0,0-3.095-7.512,7.853,7.853,0,0,0-4.671-2.532c-2.279-.281-3.413,1.03-5.444,1.519C435.31,429.262,430.91,426.387,428.02,425.433Z" transform="translate(-406.643 -425.058)" fill="url(#b)"/></g><path d="M428.02,423.043c-1.035-.343-2.282-.65-3.126.034a7.884,7.884,0,0,0-1.08,1.536c-1.263,1.657-3.81,1.348-5.821,1.941-2.957.872-4.783,3.8-5.83,6.671-4.631,12.661.532,27.143-3.5,40-1.187,3.784-3.129,7.985-1.21,11.465.639,1.162,1.688,2.13,2,3.413.433,1.742-.4,4.026,1.058,5.087a4.327,4.327,0,0,0,1.578.563c3.286.867,5.776,3.424,8.28,5.7s5.509,4.5,8.911,4.341a14.511,14.511,0,0,0,3.23-.642l16.853-4.693c1.688-.47,3.523-1.038,4.5-2.479a7.071,7.071,0,0,0,.94-3.016,79.459,79.459,0,0,0,.824-12.079,10.465,10.465,0,0,0-.563-3.939,25.3,25.3,0,0,0-2.507-3.886c-1.581-2.532-2.006-5.574-2.4-8.52-.622-4.69-1.244-9.473-.383-14.127.369-2,1-3.939,1.426-5.923a28.1,28.1,0,0,0,.321-9.828,13.978,13.978,0,0,0-3.095-7.512,7.853,7.853,0,0,0-4.671-2.532c-2.279-.281-3.413,1.03-5.444,1.519C435.31,426.869,430.91,424.011,428.02,423.043Z" transform="translate(-383.866 -370.331)" fill="url(#b)"/><path d="M454.658,334.965s.335,12.543-3.672,12.214,11.342,20.8,11.342,20.8l13.021-6.933s-7.675-12.211-2.33-19.8S454.658,334.965,454.658,334.965Z" transform="translate(-415.253 -307.241)" fill="url(#d)"/><g transform="translate(1.95 47.731)" opacity="0.1"><path d="M347.7,492.914s-2.67,18.156-9.35,13.2-5.678-13.2-5.678-13.2,13.024-34.99,12.357-40.274,22.227-46.34,22.227-46.34l8.48,67.467S350.371,483.01,347.7,492.914Z" transform="translate(-332.62 -406.3)" fill="url(#e)"/></g><path d="M345.331,492.914s-2.67,18.156-9.35,13.2-5.678-13.2-5.678-13.2,13.024-34.99,12.355-40.274,22.227-46.34,22.227-46.34l8.48,67.467S348,483.01,345.331,492.914Z" transform="translate(-328.967 -358.569)" fill="url(#e)"/><path d="M365.761,363.35s-13.024,8.905-18.038,8.581l-3.891,1.058a21.358,21.358,0,0,0-15.413,16.451l-.062.315c-2,10.565-2.667,39.615-2.667,39.615s.335,7.6,3.672,9.566l21.383,14.524s-.667-15.843,7.346-17.495-2-.661-2-.661L341.4,426.723s.335-12.875,4.341-17.163,18.032-26.729,18.032-26.729l-4.007-13.863Z" transform="translate(-325.69 -327.703)" fill="url(#g)"/><g transform="translate(52.489 44.228)" opacity="0.1"><path d="M514.186,393.85s8.2,2.147,13.944,3.2a5.779,5.779,0,0,1,4.175,3.151c1.733,3.576,4.375,10.045,3.919,15.438l5.008,19.476,14.349,17.163-13.018,5.945-14.687-16.175,12.02,30.7-22.374.99s-6.68-49.519-5.008-57.766Z" transform="translate(-512.246 -393.85)" fill="url(#h)"/></g><path d="M516.563,393.85s8.2,2.147,13.944,3.2a5.779,5.779,0,0,1,4.175,3.151c1.733,3.576,4.375,10.045,3.919,15.438l5.008,19.476,14.349,17.163-13.021,5.942-14.693-16.175,12.031,30.7-22.374.99s-6.679-49.519-5.008-57.766Z" transform="translate(-461.467 -349.622)" fill="url(#e)"/><path d="M341.266,288.72l4.6,22.343-7.512,3.8-4.116-20.126Z" transform="translate(-302.292 -254.125)" fill="url(#g)"/><path d="M404.05,337.321l3.506-14.361,4.51,8.418-2.338,6.933Z" transform="translate(-352.46 -278.732)" fill="url(#g)"/><path d="M554.15,460.14s0,22.447,3,24.1" transform="translate(-489.871 -397.26)" opacity="0.1" fill="url(#g)"/><path d="M387.466,480.08s-6.93,22.106-4.969,24.422" transform="translate(-366.263 -411.59)" opacity="0.1" fill="url(#m)"/><path d="M396.31,588s13.359,8.635,15.193,8.773" transform="translate(-376.44 -489.146)" opacity="0.1" fill="url(#n)"/><g transform="translate(39.607 28.956)" opacity="0.1"><path d="M466.589,339.656s.051,1.933-.129,4.26a15.368,15.368,0,0,0,14.152,9.285,15.633,15.633,0,0,0,2.462-.2,11.323,11.323,0,0,1,1.879-7.065C490.3,338.337,466.589,339.656,466.589,339.656Z" transform="translate(-466.46 -339.569)" fill="url(#o)"/></g><ellipse cx="15.359" cy="15.185" rx="15.359" ry="15.185" transform="translate(38.068 10.89)" fill="url(#g)"/><g transform="translate(31.077 0.331)" opacity="0.1"><path d="M468.238,257.191c1.86.248,4.22-.366,4.589-2.189.453-2.3-2.662-3.8-3.143-6.1-.18-.861.034-1.761-.07-2.636-.208-1.761-1.649-3.117-3.115-4.142a24.16,24.16,0,0,0-15.931-4.2,3.56,3.56,0,0,0-1.97.619,7.458,7.458,0,0,0-1.269,1.969c-1.441,2.3-4.676,2.572-7,4.007-2.715,1.688-4.06,4.972-4.181,8.134s.791,6.266,1.688,9.3c.768,2.583,1.573,5.236,3.258,7.352s4.482,3.593,7.13,2.957c-1.213-.864-.332-2.87.982-3.573s2.946-.824,4.068-1.8,1.46-2.56,1.826-4.007a10.429,10.429,0,0,1,2.476-5.005C460.228,255.286,465,256.76,468.238,257.191Z" transform="translate(-436.141 -237.83)" fill="url(#q)"/></g><path d="M467.047,256.016c1.86.248,4.22-.366,4.589-2.189.453-2.3-2.662-3.8-3.143-6.1-.18-.861.034-1.761-.07-2.636-.208-1.761-1.649-3.117-3.115-4.142a24.16,24.16,0,0,0-15.919-4.2,3.56,3.56,0,0,0-1.97.619,7.459,7.459,0,0,0-1.269,1.97c-1.441,2.3-4.676,2.572-7,4.007-2.715,1.688-4.06,4.972-4.181,8.134s.791,6.266,1.688,9.3c.768,2.583,1.573,5.236,3.258,7.352s4.482,3.593,7.13,2.957c-1.213-.864-.332-2.87.982-3.573s2.946-.824,4.068-1.8,1.46-2.56,1.826-4.007a10.429,10.429,0,0,1,2.476-5.005C459.045,254.112,463.814,255.583,467.047,256.016Z" transform="translate(-404.217 -236.655)" fill="url(#r)"/><g transform="translate(45.915 26.902)" opacity="0.1"><path d="M493.736,333.491a19.941,19.941,0,0,1-1.668,6,48.019,48.019,0,0,0-3.188,6.966h0a111.593,111.593,0,0,1,9.285,7.923,7.293,7.293,0,0,0,7.659,1.854,4.881,4.881,0,0,0,3.435-3.838,12.478,12.478,0,0,0-.782-7.363,5.472,5.472,0,0,1-.023-4.5,1.786,1.786,0,0,1,.8-1s-6.01-1.32-6.345.329-5.008,3.3-6.01.329l-.281-6.55a1.441,1.441,0,0,0-1.446-1.373h0a1.441,1.441,0,0,0-1.438,1.221Z" transform="translate(-488.88 -332.27)" fill="url(#s)"/></g><path d="M493.736,334.671a19.941,19.941,0,0,1-1.668,6,48.016,48.016,0,0,0-3.188,6.966h0a111.59,111.59,0,0,1,9.285,7.923,7.293,7.293,0,0,0,7.659,1.854,4.881,4.881,0,0,0,3.435-3.838,12.478,12.478,0,0,0-.782-7.363,5.472,5.472,0,0,1-.023-4.5,1.787,1.787,0,0,1,.8-1s-6.01-1.32-6.345.329-5.008,3.3-6.01.329l-.281-6.55a1.44,1.44,0,0,0-1.446-1.373h0A1.441,1.441,0,0,0,493.736,334.671Z" transform="translate(-442.965 -306.216)" fill="url(#t)"/></g><path d="M401.315,669.384s-23.4-8.655-26.605,3.525l8.975,23.071.954,14.763h19.554V698.237s-2.884-12.5,4.5-20.2Z" transform="translate(-298.825 -498.849)" fill="#535461"/><path d="M430.8,431.963c-.993-.332-2.192-.63-3,.034a7.7,7.7,0,0,0-1.038,1.491c-1.213,1.609-3.658,1.308-5.588,1.885-2.839.844-4.589,3.691-5.6,6.471-4.445,12.293.509,26.361-3.359,38.844-1.125,3.675-3,7.754-1.162,11.133.613,1.125,1.612,2.068,1.919,3.314.416,1.688-.385,3.911,1.016,4.941a4.46,4.46,0,0,0,1.514.563c3.154.844,5.546,3.326,7.948,5.534s5.3,4.344,8.553,4.2a13.782,13.782,0,0,0,3.095-.622l16.178-4.558c1.623-.459,3.376-1.01,4.325-2.408a7.041,7.041,0,0,0,.9-2.929,78.046,78.046,0,0,0,.791-11.73,10.369,10.369,0,0,0-.535-3.824,26.6,26.6,0,0,0-2.408-3.776c-1.517-2.453-1.927-5.413-2.3-8.275-.6-4.555-1.193-9.2-.369-13.719.355-1.939.965-3.824,1.37-5.751a27.6,27.6,0,0,0,.309-9.544,13.683,13.683,0,0,0-2.968-7.3,7.515,7.515,0,0,0-4.485-2.459c-2.189-.281-3.278,1-5.228,1.477C437.8,435.668,433.572,432.891,430.8,431.963Z" transform="translate(-324.388 -330.111)" opacity="0.1"/><path d="M430.8,429.683c-.993-.332-2.192-.63-3,.034a7.7,7.7,0,0,0-1.038,1.491c-1.213,1.609-3.658,1.308-5.588,1.885-2.839.844-4.589,3.691-5.6,6.471-4.445,12.293.509,26.361-3.359,38.844-1.125,3.675-3,7.754-1.162,11.133.613,1.125,1.612,2.068,1.919,3.314.416,1.688-.385,3.911,1.016,4.941a4.459,4.459,0,0,0,1.514.563c3.154.844,5.546,3.326,7.948,5.534s5.3,4.344,8.553,4.2a13.782,13.782,0,0,0,3.095-.622l16.181-4.555c1.623-.459,3.376-1.01,4.324-2.408a7.041,7.041,0,0,0,.9-2.929,78.047,78.047,0,0,0,.791-11.73,10.369,10.369,0,0,0-.535-3.824,26.6,26.6,0,0,0-2.408-3.776c-1.517-2.453-1.927-5.413-2.3-8.275-.6-4.555-1.193-9.2-.369-13.719.354-1.939.965-3.824,1.37-5.751a27.6,27.6,0,0,0,.309-9.544,13.683,13.683,0,0,0-2.968-7.3,7.515,7.515,0,0,0-4.476-2.467c-2.189-.281-3.278,1-5.228,1.477C437.8,433.391,433.572,430.611,430.8,429.683Z" transform="translate(-324.388 -328.472)" fill="#e0e0e0"/><path d="M456.361,344.11s.321,12.18-3.525,11.859,10.9,20.2,10.9,20.2l12.5-6.733s-7.372-11.859-2.251-19.234S456.361,344.11,456.361,344.11Z" transform="translate(-354.509 -267.175)" fill="#fda57d"/><path d="M353.684,497.492s-2.563,17.63-8.975,12.822-5.45-12.822-5.45-12.822,12.5-33.98,11.859-39.109,21.35-45,21.35-45l8.14,65.517S356.248,487.876,353.684,497.492Z" transform="translate(-273.311 -317.017)" opacity="0.1"/><path d="M351.4,497.492s-2.563,17.63-8.975,12.822-5.45-12.822-5.45-12.822,12.5-33.98,11.859-39.109,21.35-45,21.35-45l8.14,65.517S353.967,487.876,351.4,497.492Z" transform="translate(-271.673 -317.017)" fill="#4d8af0"/><path d="M371.025,371.67s-12.5,8.655-17.309,8.334l-3.736,1.027a20.646,20.646,0,0,0-14.8,15.976l-.059.307c-1.924,10.258-2.563,38.467-2.563,38.467s.321,7.372,3.525,9.285L356.6,459.184s-.642-15.387,7.054-16.988-1.924-.641-1.924-.641l-14.1-8.337s.321-12.5,4.167-16.668S369.1,390.586,369.1,390.586l-3.846-13.477Z" transform="translate(-268.534 -287.043)" fill="#4d8af0"/><path d="M513.513,401.3s7.878,2.085,13.387,3.095a5.554,5.554,0,0,1,4.007,3.061c1.663,3.475,4.2,9.752,3.762,14.991l4.808,18.913,13.787,16.668-12.5,5.779-14.1-15.706L538.2,477.925l-21.479.945s-6.412-48.084-4.808-56.1Z" transform="translate(-397.239 -308.336)" opacity="0.1"/><path d="M515.786,401.3s7.878,2.085,13.387,3.095a5.554,5.554,0,0,1,4.006,3.061c1.663,3.475,4.2,9.752,3.762,14.991l4.808,18.913,13.787,16.668-12.5,5.771-14.1-15.708,11.536,29.824-21.476.957s-6.412-48.084-4.808-56.1Z" transform="translate(-398.87 -308.336)" fill="#4d8af0"/><path d="M343.3,297.16l4.42,21.7-7.214,3.686L336.56,303Z" transform="translate(-241.866 -213.551)" fill="#e0e0e0"/><path d="M403.58,344.354l3.365-13.944,4.327,8.173-2.242,6.733Z" transform="translate(-290.029 -237.446)" fill="#e0e0e0"/><path d="M551.87,465.67s0,21.8,2.884,23.4" transform="translate(-426.139 -354.595)" opacity="0.1"/><path d="M391.836,485s-6.654,21.468-4.783,23.716" transform="translate(-307.456 -368.486)" opacity="0.1"/><path d="M400.34,589.85s12.824,8.385,14.586,8.52" transform="translate(-317.243 -443.836)" opacity="0.1"/><path d="M467.814,348.672s.051,1.877-.124,4.136a14.749,14.749,0,0,0,15.95,8.815,11.109,11.109,0,0,1,1.8-6.862C490.567,347.389,467.814,348.672,467.814,348.672Z" transform="translate(-365.644 -270.454)" opacity="0.1"/><circle cx="14.746" cy="14.746" r="14.746" transform="translate(100.566 60.588)" fill="#fda57d"/><path d="M469.386,268.643c1.787.239,4.063-.357,4.406-2.124.436-2.237-2.555-3.689-3.016-5.909-.174-.844.034-1.711-.068-2.558-.2-1.711-1.584-3.027-2.991-4.021a23,23,0,0,0-15.292-4.074,3.428,3.428,0,0,0-1.894.6,7.053,7.053,0,0,0-1.218,1.919c-1.384,2.234-4.5,2.5-6.716,3.891-2.608,1.629-3.9,4.828-4.015,7.9a28.526,28.526,0,0,0,1.626,9.034,20.645,20.645,0,0,0,3.129,7.138c1.618,2.054,4.3,3.489,6.843,2.87-1.165-.844-.318-2.788.943-3.469s2.814-.8,3.908-1.744,1.407-2.487,1.753-3.891a10.238,10.238,0,0,1,2.377-4.862C461.7,266.783,466.266,268.223,469.386,268.643Z" transform="translate(-344.718 -199.507)" opacity="0.1"/><path d="M468.267,267.462c1.787.239,4.063-.357,4.406-2.124.436-2.237-2.555-3.689-3.016-5.909-.174-.844.034-1.711-.068-2.558-.214-1.725-1.6-3.047-3.011-4.035A23,23,0,0,0,451.3,248.76a3.428,3.428,0,0,0-1.894.6,7.052,7.052,0,0,0-1.218,1.919c-1.384,2.234-4.5,2.5-6.716,3.891-2.608,1.629-3.9,4.828-4.015,7.9a28.528,28.528,0,0,0,1.626,9.034,20.646,20.646,0,0,0,3.129,7.138c1.618,2.054,4.3,3.489,6.843,2.87-1.165-.844-.318-2.788.943-3.469s2.814-.8,3.908-1.744,1.407-2.487,1.753-3.891a10.237,10.237,0,0,1,2.378-4.862C460.566,265.611,465.144,267.048,468.267,267.462Z" transform="translate(-343.906 -198.647)" fill="#72351c"/><path d="M493.865,342.663a19.512,19.512,0,0,1-1.6,5.83,46.892,46.892,0,0,0-3.061,6.753h0a105.8,105.8,0,0,1,8.905,7.7,6.944,6.944,0,0,0,7.352,1.8,4.711,4.711,0,0,0,3.3-3.725,12.349,12.349,0,0,0-.748-7.152,5.371,5.371,0,0,1-.011-4.367,1.742,1.742,0,0,1,.771-.973s-5.771-1.283-6.091.321-4.808,3.2-5.771.321l-.264-6.362a1.39,1.39,0,0,0-1.39-1.334h0a1.387,1.387,0,0,0-1.384,1.193Z" transform="translate(-381.102 -265.34)" opacity="0.1"/><path d="M493.865,343.832a19.512,19.512,0,0,1-1.6,5.83,46.893,46.893,0,0,0-3.061,6.753h0a105.8,105.8,0,0,1,8.905,7.7,6.944,6.944,0,0,0,7.352,1.8,4.711,4.711,0,0,0,3.3-3.725,12.349,12.349,0,0,0-.748-7.152,5.371,5.371,0,0,1-.02-4.378,1.742,1.742,0,0,1,.771-.974s-5.771-1.283-6.091.321-4.8,3.219-5.771.343l-.264-6.362a1.39,1.39,0,0,0-1.39-1.334h0A1.387,1.387,0,0,0,493.865,343.832Z" transform="translate(-381.102 -266.188)" fill="#72351c"/><path d="M701.177,382.605a34.705,34.705,0,0,1-7.923-13.505h.5l-.239-.67h.239L693,366.286c2.136-2.1,3.714-4.133,3.97-5.29.433-1.947.864-12.481,1.125-19.8l.231.056a6.13,6.13,0,0,0,.642-3.275,12.7,12.7,0,0,0-.473-3.658l-1.044-10.453a7.13,7.13,0,0,0-2.743-4.91l-10.579-8.207a6.729,6.729,0,0,1,2.076-1.84,4.676,4.676,0,0,0,1.716-1.089c.737-.993.11-2.473.613-3.6.377-.844,1.305-1.317,1.849-2.074,1.111-1.55.307-3.691-.523-5.408l-4.822-9.969a45.083,45.083,0,0,0-4.552-7.974c-5.72-7.45-16.727-11.156-25.7-7.926a10.168,10.168,0,0,0-6,5.174,13.58,13.58,0,0,1-1.159,2.58c-1.23,1.713-3.63,2.037-5.346,3.269-2.192,1.584-3,4.566-2.7,7.253a23.267,23.267,0,0,0,2.755,7.6c1.277,2.532,2.6,5.14,4.693,7.059.979.9,2.178,1.73,2.49,3.022.267,1.109-.205,2.251-.107,3.4a3.457,3.457,0,0,0,.411,1.362c-4.735.594-8.095,4.527-9.6,10.379-.093.363-.129.563-.129.563l-.667,6.06c-.014.262,0,.515,0,.765a7.97,7.97,0,0,0,.844,3.939v21.279l-20.258,12.824c-3.039,1.35-2.363,12.152,3.714,14.175S635.2,370.788,635.2,370.788c3.7-.248,9.924-5.183,13.269-9a6.1,6.1,0,0,0,1.764,1.837c-2.414,5.441-7.189,16.7-6.426,18.983.459,1.379,12.315,1.505,25.131,1.235a6.117,6.117,0,0,0,1.027.453,4.64,4.64,0,0,0,3.939-.577C687.773,383.32,701.177,382.605,701.177,382.605Zm-17.109-41.261c.281-.779,1.2-1.2,2.439-1.407v8.207ZM682.889,312.5h0l.039-.059Z" transform="translate(-473.839 -213.759)" fill="url(#u)"/><path d="M657.8,482.155s-.641,22.759-1.283,25.646-9.932,11.525-14.746,11.859c0,0-5.129,12.18-10.9,10.258s-6.412-12.18-3.525-13.463l19.239-12.183V479.91Z" transform="translate(-479.173 -364.828)" fill="#fdb797"/><path d="M719.124,587s-8.334,17.951-7.372,20.837,54.494,0,54.494,0S756.309,597.9,758.233,587Z" transform="translate(-540.981 -441.788)" fill="#3ad29f"/><path d="M757.725,393s1.283,12.5-.962,15.388,8.975,4.5,9.938,4.5,11.221-3.525,13.142-4.5,3.525-8.013,3.525-8.013-9.617,1.924-12.5-9.285Z" transform="translate(-573.17 -300.999)" fill="#fdb797"/><path d="M711.991,281.057a9.659,9.659,0,0,0-5.7,4.915,12.983,12.983,0,0,1-1.1,2.451c-1.168,1.626-3.447,1.933-5.064,3.095-2.082,1.505-2.853,4.336-2.563,6.89a21.923,21.923,0,0,0,2.614,7.206,22.406,22.406,0,0,0,4.457,6.7c.928.844,2.068,1.643,2.363,2.87.253,1.052-.194,2.152-.1,3.23.231,2.664,3.416,3.905,6.075,4.2a3.932,3.932,0,0,0,3.295-.695,5.67,5.67,0,0,0,.889-1.542,7.391,7.391,0,0,1,13.185-.135c.625,1.2.988,2.656,2.121,3.376,1.736,1.125,4.06-.194,5.346-1.82s2.209-3.658,4.035-4.634a4.556,4.556,0,0,0,1.632-1.035c.7-.943.1-2.349.582-3.421.36-.808,1.241-1.249,1.756-1.97,1.055-1.472.281-3.506-.5-5.135l-4.581-9.468a42.913,42.913,0,0,0-4.322-7.574C730.963,281.51,720.51,277.991,711.991,281.057Z" transform="translate(-530.795 -221.125)" fill="#6c63ff"/><path d="M723.394,431.076s12.5,0,15.708-11.536l10.523,8.159a6.769,6.769,0,0,1,2.589,4.679l.993,9.926s1.125,3.686-.16,5.931c0,0-13.3-3.376-13.623.481l9.285,25.964s-14.425.321-18.272-2.251c0,0-15.708,3.2-19.554-.321s-7.692-3.2-4.5-11.221c0,0-6.412-6.412-3.526-15.388s.16.16.16.16-6.226-3.044-5.906-8.829l.642-5.771s.034-.191.124-.535c1.955-7.6,7.206-11.817,14.589-9.127a6.757,6.757,0,0,0,4.364-.115S714.419,431.717,723.394,431.076Z" transform="translate(-530.505 -321.444)" opacity="0.1"/><path d="M723.394,428.8s12.5,0,15.708-11.536l10.523,8.159a6.769,6.769,0,0,1,2.589,4.679l.993,9.926s1.125,3.686-.16,5.931c0,0-13.3-3.376-13.623.481l9.285,25.964s-14.425.321-18.272-2.251c0,0-15.708,3.2-19.554-.321s-7.692-3.2-4.5-11.221c0,0-6.412-6.412-3.526-15.388s.16.16.16.16-6.226-3.044-5.906-8.815l.642-5.771s.034-.191.124-.535c1.955-7.6,7.206-11.817,14.589-9.127a6.757,6.757,0,0,0,4.364-.115S714.419,429.437,723.394,428.8Z" transform="translate(-530.505 -319.806)" fill="#252a62"/><path d="M813.887,491.251s-.641,22.759-1.283,25.646-9.938,11.536-14.746,11.859c0,0-5.129,12.18-10.9,10.258s-6.412-12.18-3.525-13.463l19.234-12.18V489Z" transform="translate(-591.345 -371.361)" fill="#fdb797"/><path d="M847,488.007s7.372,5,13.787,4.586c0,0,.642-8.593-1.283-9.074S849.231,483.519,847,488.007Z" transform="translate(-638.231 -367.315)" opacity="0.1"/><path d="M847,486.867s7.372,5,13.787,4.586c0,0,.642-8.593-1.283-9.074S849.231,482.379,847,486.867Z" transform="translate(-638.231 -366.496)" fill="#252a62"/><path d="M776.362,393.32l-13.142,1.924s.3,2.892.354,6.215a14.752,14.752,0,0,0,15.475-2.515A14.421,14.421,0,0,1,776.362,393.32Z" transform="translate(-578.023 -302.601)" opacity="0.1"/><circle cx="14.746" cy="14.746" r="14.746" transform="translate(175.9 69.884)" fill="#fdb797"/><path d="M752.228,318.551a4.606,4.606,0,0,1-1.97.281q-3.911-.025-7.819-.281c-1.969-.132-4.08-.366-5.6-1.629-2.048-1.688-2.372-4.887-1.314-7.329a13.087,13.087,0,0,1,5.495-5.627,16.4,16.4,0,0,1,4.142-1.868,13.9,13.9,0,0,1,12.259,3.075,21.664,21.664,0,0,1,6.632,11.108c.391,1.463.895,3.208,2.344,3.658-.965,1.6-3.32,1.86-5.008,1.055-2.493-1.185-3.77-5.72-6.007-6.435C752.884,313.756,754.336,317.583,752.228,318.551Z" transform="translate(-557.696 -236.757)" opacity="0.1"/><path d="M752.228,317.425a4.606,4.606,0,0,1-1.97.281q-3.911-.025-7.819-.281c-1.969-.132-4.08-.366-5.6-1.629-2.048-1.688-2.372-4.887-1.314-7.329a13.088,13.088,0,0,1,5.495-5.627,16.4,16.4,0,0,1,4.139-1.863,13.9,13.9,0,0,1,12.259,3.075,21.663,21.663,0,0,1,6.632,11.108c.391,1.463.895,3.208,2.344,3.658-.965,1.6-3.32,1.86-5.008,1.055-2.493-1.185-3.77-5.72-6.007-6.435C752.884,312.631,754.336,316.452,752.228,317.425Z" transform="translate(-557.696 -235.952)" fill="#6c63ff"/><path d="M729.61,558.734a56.787,56.787,0,0,1,14.74-1.924" transform="translate(-553.87 -420.092)" opacity="0.1"/><path d="M837.44,502.13s-4.808,3.525-3.525,5.45" transform="translate(-628.671 -380.797)" opacity="0.1"/><g transform="translate(84.38 156.273)" opacity="0.7"><path d="M457.3,555.42H299.9v13.764h9.161v43.3h139.4v-43.3H457.3Z" transform="translate(-299.9 -555.42)" fill="url(#v)"/></g><rect width="136.558" height="49.047" transform="translate(94.959 164.289)" fill="#e0e0e0"/><rect width="136.558" height="7.692" transform="translate(94.959 166.852)" opacity="0.1"/><rect width="154.188" height="13.142" transform="translate(85.983 158.839)" fill="#e0e0e0"/><rect width="29.492" height="4.167" rx="2.083" transform="translate(108.081 155.603)" fill="#535461"/><g transform="translate(126.032 109.142)" opacity="0.7"><rect width="73.3" height="50.681" rx="25.341" fill="url(#v)"/></g><rect width="69.437" height="49.744" rx="24.872" transform="translate(127.338 110.076)" fill="#3e3f49"/><rect width="69.437" height="49.744" rx="24.872" transform="translate(128.3 110.076)" fill="#535461"/><circle cx="2.245" cy="2.245" r="2.245" transform="translate(164.016 132.363)" fill="#e0e0e0"/><path d="M369.58,658.21s1.9,2.783,7.521,3.635" transform="translate(-295.138 -492.962)" opacity="0.1"/><path d="M496.977,122.144H477V110.89h19.977Zm-19.132-.844h18.288v-9.566H477.844Z" transform="translate(-372.334 -99.636)" fill="#6c63ff" opacity="0.2"/><path d="M567.977,122.144H548V110.89h19.977Zm-19.133-.844h18.288v-9.566H548.844Z" transform="translate(-423.358 -99.636)" fill="#6c63ff" opacity="0.2"/><path d="M638.977,122.144H619V110.89h19.977Zm-19.132-.844h18.288v-9.566H619.844Z" transform="translate(-474.381 -99.636)" fill="#6c63ff" opacity="0.2"/><path d="M709.977,122.144H690V110.89h19.977Zm-19.132-.844h18.288v-9.566H690.844Z" transform="translate(-525.405 -99.636)" fill="#6c63ff" opacity="0.2"/><path d="M638.977,82.144H619V70.89h19.977ZM619.844,81.3h18.288V71.734H619.844Z" transform="translate(-474.381 -70.89)" fill="#6c63ff" opacity="0.2"/><path d="M567.977,82.144H548V70.89h19.977ZM548.844,81.3h18.288V71.734H548.844Z" transform="translate(-423.358 -70.89)" fill="#6c63ff" opacity="0.2"/><path d="M233.977,122.144H214V110.89h19.977Zm-19.132-.844h18.288v-9.566H214.844Z" transform="translate(-183.332 -99.636)" fill="#6c63ff" opacity="0.2"/><path d="M304.977,122.144H285V110.89h19.977Zm-19.132-.844h18.288v-9.566H285.844Z" transform="translate(-234.355 -99.636)" fill="#6c63ff" opacity="0.2"/><path d="M304.977,82.144H285V70.89h19.977ZM285.844,81.3h18.288V71.734H285.844Z" transform="translate(-234.355 -70.89)" fill="#6c63ff" opacity="0.2"/><path d="M853.977,122.144H834V110.89h19.977Zm-19.132-.844h18.288v-9.566H834.844Z" transform="translate(-628.889 -99.636)" fill="#6c63ff" opacity="0.2"/><path d="M924.977,122.144H905V110.89h19.977Zm-19.132-.844h18.288v-9.566H905.844Z" transform="translate(-679.912 -99.636)" fill="#6c63ff" opacity="0.2"/><path d="M924.977,82.144H905V70.89h19.977ZM905.844,81.3h18.288V71.734H905.844Z" transform="translate(-679.912 -70.89)" fill="#6c63ff" opacity="0.2"/></svg>