<svg xmlns="http://www.w3.org/2000/svg" width="279.436" height="189.301" viewBox="0 0 279.436 189.301"><g transform="translate(0.001 0)"><circle cx="9.581" cy="9.581" r="9.581" transform="translate(171.101 23.55)" fill="#f2f2f2"/><rect width="192.215" height="102.694" transform="matrix(0.853, 0.522, -0.522, 0.853, 53.594, 0)" fill="#f2f2f2"/><path d="M590.982,390.078a17.948,17.948,0,0,0-8.413-9.012,29.382,29.382,0,0,0-7.6-2.994,18.63,18.63,0,0,0,4.88-3.293,16.876,16.876,0,0,0,4.671-6.976,23.085,23.085,0,0,0,1.048-8.443c-.329-5.03-1.317-9.91-3.952-13.413a24.686,24.686,0,0,0-11.257-8.084,42.276,42.276,0,0,0-13.623-2.665V316.066l-11.976,7.485v11.677h-9.581V322.952L522.9,316.066v19.162H496.821L505.2,349.6a13.491,13.491,0,0,1,5.239.689,3.959,3.959,0,0,1,1.946,1.8c.389.749.569,2.515.569,5.239v51.856c0,2.695-.18,4.431-.569,5.21s-.6,1.467-1.527,1.886-.958.389-3.533.389h-.03l-10.479,14.371h26.048V450.2h12.275V431.035h9.581V450.2H556.7V430.916c7.784-.389,13.323-1.407,17.784-3.084a29.206,29.206,0,0,0,13.383-9.431c3.174-4.132,4.461-10.449,4.73-15.329C592.808,398.73,592.329,393.132,590.982,390.078ZM535.144,351.4h0V351h8.371c4.71,0,20.4-1.569,20.665,11.248s-20.665,12.293-20.665,12.293h-8.371v-.988h0Zm0,36.527h9.581c1.946,0,8.641.3,11.078.407a10.628,10.628,0,0,1,2.922.521c.344.117.671.249,1.024.4a14.889,14.889,0,0,1,4.129,2.09,8.625,8.625,0,0,1,2.135,2.006,11.428,11.428,0,0,1,.707,1.1,11.217,11.217,0,0,1,1.249,3.081,12.5,12.5,0,0,1,.44,3.21,10.469,10.469,0,0,1-1.494,5.9,14.021,14.021,0,0,1-6.461,5.329c-6.874,3.126-15.727,2.9-15.727,2.9h-9.581Z" transform="translate(-387.995 -261.977)" fill="#3f3d56"/><path d="M733.129,237.361a1.029,1.029,0,0,0-.472-.523,1.614,1.614,0,0,0-.426-.174,1.042,1.042,0,0,0,.274-.191.982.982,0,0,0,.262-.4,1.383,1.383,0,0,0,.059-.49,1.494,1.494,0,0,0-.222-.778,1.387,1.387,0,0,0-.631-.469,2.3,2.3,0,0,0-.764-.155v-1.11l-.671.434v.678H730v-.712l-.688-.4v1.112H727.85l.47.834a.733.733,0,0,1,.294.04.226.226,0,0,1,.109.1.864.864,0,0,1,.032.3v3.01a.864.864,0,0,1-.032.3c-.022.045-.034.085-.086.109s-.054.023-.2.023h0l-.587.834h1.46v1.112H730v-1.112h.537v1.112h.671v-1.119a3.182,3.182,0,0,0,1-.179,1.64,1.64,0,0,0,.75-.547,1.736,1.736,0,0,0,.265-.89,2.021,2.021,0,0,0-.091-.754ZM730,235.116h0v-.023h.469c.264,0,1.144-.091,1.158.653s-1.158.713-1.158.713H730V236.4h0Zm0,2.12h.537c.109,0,.484.017.621.024a.578.578,0,0,1,.164.03l.057.023a.824.824,0,0,1,.231.121.489.489,0,0,1,.12.116.744.744,0,0,1,.11.243.755.755,0,0,1,.025.186.624.624,0,0,1-.084.342.792.792,0,0,1-.362.309,2.262,2.262,0,0,1-.882.169H730Z" transform="translate(-549.854 -203.827)" fill="#6c63ff" opacity="0.3"/><circle cx="3.512" cy="3.512" r="3.512" transform="translate(235.447 135.428)" fill="#ff6584"/><line y1="39.985" transform="translate(266.643 137.183)" fill="#3f3d56" stroke="#3f3d56" stroke-miterlimit="10" stroke-width="2"/><circle cx="5.654" cy="5.654" r="5.654" transform="translate(260.989 131.528)" fill="#3f3d56"/><path d="M972.209,628.825c-8.167,12.525-5.93,28.456-5.93,28.456s15.48-4.377,23.648-16.9,5.93-28.456,5.93-28.456S980.377,616.3,972.209,628.825Z" transform="translate(-716.702 -469.254)" fill="#3f3d56"/><path d="M885.9,665.4s-.2-.032-.565-.106c-.292-.059-.694-.144-1.184-.26-4.387-1.034-16.05-4.531-23.675-13.724-9.544-11.511-9.142-27.593-9.142-27.593s14.593,2.371,24.209,12.708q.625.666,1.216,1.381c8.3,10.016,9.078,23.492,9.14,26.823C885.9,665.125,885.9,665.4,885.9,665.4Z" transform="translate(-636.364 -477.515)" fill="#6c63ff"/><path d="M891.139,628.825c8.167,12.525,5.93,28.456,5.93,28.456s-15.48-4.377-23.648-16.9-5.93-28.456-5.93-28.456S882.971,616.3,891.139,628.825Z" transform="translate(-647.491 -469.254)" fill="none" stroke="#3f3d56" stroke-miterlimit="10" stroke-width="2"/><path d="M942.138,694.363c-.216.26-.406.482-.563.664-.347.4-.544.6-.544.6s-.239-.3-.641-.863c-2.206-3.076-9.3-14.011-8.755-26.643q.044-.993.146-1.965.625.666,1.216,1.381C941.3,677.555,942.077,691.031,942.138,694.363Z" transform="translate(-692.606 -507.252)" opacity="0.1"/><path d="M957.71,611.408C957.065,626.347,945.975,638,945.975,638s-10.043-12.567-9.4-27.506S948.313,583.9,948.313,583.9,958.357,596.469,957.71,611.408Z" transform="translate(-696.068 -449.623)" fill="#6c63ff"/><line y1="53.066" x2="2.438" transform="translate(249.907 134.888)" fill="none" stroke="#3f3d56" stroke-miterlimit="10" stroke-width="2"/><line x2="253.298" transform="translate(17.206 188.013)" fill="none" stroke="#3f3d56" stroke-miterlimit="10" stroke-width="2"/><circle cx="12.793" cy="12.793" r="12.793" transform="translate(58.211 97.71)" fill="#6c63ff"/><circle cx="12.793" cy="12.793" r="12.793" transform="translate(36.465 127.819)" fill="#6c63ff"/><circle cx="12.793" cy="12.793" r="12.793" transform="translate(9.702 151.864)" fill="#6c63ff"/><line y1="23.206" transform="translate(22.484 164.587)" fill="#3f3d56" stroke="#3f3d56" stroke-miterlimit="10" stroke-width="2"/><circle cx="3.282" cy="3.282" r="3.282" transform="translate(19.202 161.305)" fill="#3f3d56"/><path d="M184.851,711.829s-.469-10.083-10.08-8.911" transform="translate(-162.367 -532.939)" fill="#3f3d56"/><line y1="77.406" transform="translate(71.012 110.55)" fill="#3f3d56" stroke="#3f3d56" stroke-miterlimit="10" stroke-width="2"/><circle cx="3.282" cy="3.282" r="3.282" transform="translate(67.73 107.232)" fill="#3f3d56"/><circle cx="3.282" cy="3.282" r="3.282" transform="translate(57.65 163.236)" fill="#3f3d56"/><path d="M346.936,539.441s-.469-10.083-10.08-8.911" transform="translate(-275.924 -412.164)" fill="#3f3d56"/><path d="M346.936,634.915s-.469-10.083-10.08-8.911" transform="translate(-275.924 -479.053)" fill="#3f3d56"/><path d="M346.936,712.116s2.11-19.6-10.08-20.537" transform="translate(-275.924 -525.062)" fill="none" stroke="#3f3d56" stroke-miterlimit="10" stroke-width="2"/><circle cx="3.282" cy="3.282" r="3.282" transform="translate(77.811 163.236)" fill="#3f3d56"/><path d="M370.2,712.116s-2.11-19.6,10.08-20.537" transform="translate(-299.187 -525.062)" fill="none" stroke="#3f3d56" stroke-miterlimit="10" stroke-width="2"/><circle cx="3.282" cy="3.282" r="3.282" transform="translate(78.011 132.452)" fill="#3f3d56"/><path d="M370.868,608.252s-2.11-18.554,10.08-19.492" transform="translate(-299.655 -453.026)" fill="none" stroke="#3f3d56" stroke-miterlimit="10" stroke-width="2"/><line y1="47.249" transform="translate(49.27 140.598)" fill="#3f3d56" stroke="#3f3d56" stroke-miterlimit="10" stroke-width="2"/><circle cx="3.282" cy="3.282" r="3.282" transform="translate(45.988 137.316)" fill="#3f3d56"/><path d="M274.318,628.573s-.469-10.083-10.08-8.911" transform="translate(-225.048 -474.61)" fill="#3f3d56"/><path d="M274.318,712.24s2.11-19.39-10.08-20.328" transform="translate(-225.048 -525.295)" fill="none" stroke="#3f3d56" stroke-miterlimit="10" stroke-width="2"/><circle cx="3.282" cy="3.282" r="3.282" transform="translate(35.909 163.336)" fill="#3f3d56"/><circle cx="5.389" cy="5.389" r="5.389" transform="translate(224.095 105.286)" fill="#f2f2f2"/><path d="M650.129,634.754c-6.874,3.126-15.727,2.9-15.727,2.9h-9.581v-1.829a59.422,59.422,0,0,1,15.269-1.763A69.959,69.959,0,0,1,650.129,634.754Z" transform="translate(-477.672 -484.767)" opacity="0.1"/><path d="M646.935,641.665c0,3.308-9.653,5.988-21.557,5.988s-21.557-2.68-21.557-5.988c0-1.65,2.4-3.144,6.287-4.225v1.829h9.581s8.853.221,15.727-2.9C642.264,637.366,646.935,639.363,646.935,641.665Z" transform="translate(-462.96 -486.379)" opacity="0.1"/><rect width="9.172" height="9.188" transform="translate(155.999 118.002)" fill="#2f2e41"/><path d="M659.113,548.777s.759,2.657-.569,2.847a5.188,5.188,0,0,0-2.278.949l2.467,3.227h4.555l2.847-2.847s-3.8-2.847-3.037-4.555S659.113,548.777,659.113,548.777Z" transform="translate(-499.703 -424.278)" fill="#ffb9b9"/><path d="M659.113,548.777s.759,2.657-.569,2.847a5.188,5.188,0,0,0-2.278.949l2.467,3.227h4.555l2.847-2.847s-3.8-2.847-3.037-4.555S659.113,548.777,659.113,548.777Z" transform="translate(-499.703 -424.278)" opacity="0.1"/><path d="M536.239,519.58,540.6,521.1l3.036.19-.19-2.657-6.263-1.852Z" transform="translate(-375.69 -362.056)" fill="#ffb9b9"/><path d="M688.279,653.741s0,2.657.38,2.657,5.5-.569,7.023,0,3.8-1.518,2.657-2.657-3-2.847-4.155-2.467-5.9,1.329-5.9,1.329Z" transform="translate(-522.131 -496.786)" fill="#2f2e41"/><path d="M638.687,651.4s-2.278,4.555-.759,4.935a5.266,5.266,0,0,0,3.416-.38c.19-.19,2.847-.949,3.227-.569s.38-1.518.38-1.518Z" transform="translate(-486.489 -496.912)" fill="#2f2e41"/><path d="M643.519,630.48s-3.606,4.935-.949,6.263,15.374,1.329,16.323,0,1.329-5.5,0-5.884S643.519,630.48,643.519,630.48Z" transform="translate(-489.423 -482.256)" fill="#2f2e41"/><path d="M643.519,630.48s-3.606,4.935-.949,6.263,15.374,1.329,16.323,0,1.329-5.5,0-5.884S643.519,630.48,643.519,630.48Z" transform="translate(-489.423 -482.256)" opacity="0.2"/><circle cx="4.365" cy="4.365" r="4.365" transform="translate(156.563 117.097)" fill="#ffb9b9"/><path d="M648.025,562.141l3.8-.759a3.544,3.544,0,0,0,3.986,2.467c3.037-.569,3.8-2.467,3.8-2.467s2.278.949,2.467.949,2.657.949,2.657,1.518a66.8,66.8,0,0,1-2.847,6.263l.38,10.249-14.045-.38.949-10.059Z" transform="translate(-493.929 -433.845)" fill="#6c63ff"/><path d="M639.552,580.4s-1.139,10.059-.38,10.819,3.8,2.847,3.8,2.847v-2.278l-1.518-2.847,1.518-6.643Z" transform="translate(-487.544 -447.169)" fill="#ffb9b9"/><path d="M697.558,579.448s-.664,10.344-.664,10.724a4.293,4.293,0,0,1-2.278,1.708c-.569,0-.949-.949-.949-.949L695,589.412l-.949-7.782Z" transform="translate(-525.906 -446.503)" fill="#ffb9b9"/><path d="M679.99,623.009s8.541-4.745,8.731,0-4.365,6.643-4.365,6.643-11.767,3.529-12.242,2.239-1.423-3.378-.664-3.567,1.708-.569,2.088-.19,5.125-2.847,5.125-2.847Z" transform="translate(-510.14 -475.544)" fill="#2f2e41"/><path d="M701.518,626.042a10.8,10.8,0,0,0-2.278,1.329,14.71,14.71,0,0,1-3.037,1.518" transform="translate(-527.683 -479.146)" fill="none" stroke="#000" stroke-miterlimit="10" stroke-width="2" opacity="0.2"/><path d="M641.89,564.3l-1.139-.38s-4.176,4.365-2.847,5.5,2.088,1.518,2.467,1.9a6.562,6.562,0,0,0,2.278.569Z" transform="translate(-486.656 -435.622)" fill="#6c63ff"/><path d="M691.887,568.354l1.708.38a27.857,27.857,0,0,0,1.708,3.227c.38.38-.569.19-1.139.949S693.026,575,691.887,575s-2.657-1.9-2.657-1.9Z" transform="translate(-522.797 -438.73)" fill="#6c63ff"/><path d="M625.921,627.265s-7.212-5.125-9.68-1.329,10.629,8.921,12.527,9.68,3.606,1.518,3.606,1.518a36.258,36.258,0,0,0,1.708-4.935c0-.759-1.329-.759-1.708-.759a4.468,4.468,0,0,1-2.467-.949A42.664,42.664,0,0,0,625.921,627.265Z" transform="translate(-471.445 -478.091)" fill="#2f2e41"/><path d="M635.98,629.212a10.983,10.983,0,0,0,3.606,1.9,3.528,3.528,0,0,1,2.278,1.329" transform="translate(-485.49 -481.367)" fill="none" stroke="#000" stroke-miterlimit="10" stroke-width="2" opacity="0.2"/><path d="M644.92,602.977l.152,8.036a1.006,1.006,0,0,0,1.017.987l14.955-.168a1.006,1.006,0,0,0,.993-.948l.454-7.868a1.006,1.006,0,0,0-1-1.064H645.925a1.006,1.006,0,0,0-1.006,1.025Z" transform="translate(-491.753 -462.269)" fill="#575a89"/><path d="M637.99,532.235a18.791,18.791,0,0,0,1.216-2.694,11.913,11.913,0,0,0,.154-3.53,11.082,11.082,0,0,1,.265-3.115,5.354,5.354,0,0,1,1.54-2.68c1.989-1.776,5.629-1.9,8.058-1.164a2.966,2.966,0,0,1,2.215,1.819c.036.147.052.3.092.444.2.724.939,1.182,1.207,1.883.346.907-.187,1.894-.257,2.863a5.956,5.956,0,0,0,1.022,3.191,3.691,3.691,0,0,1,.632,1.892,2.39,2.39,0,0,1-.327,1.043,3.976,3.976,0,0,1-3.34,1.915,2.1,2.1,0,0,1-1.251-.3,1.94,1.94,0,0,1-.643-1.939,9.4,9.4,0,0,1,.765-2.012c.086-.2.165-.41.237-.619a4.247,4.247,0,1,0-2.8.475,5.753,5.753,0,0,1-.279,3.2,12.085,12.085,0,0,1-1.343,2.342,3.234,3.234,0,0,1-.856.958,3.038,3.038,0,0,1-.729.311,7.557,7.557,0,0,1-3.316.467,3.174,3.174,0,0,1-2.6-1.888A3.9,3.9,0,0,1,637.99,532.235Z" transform="translate(-486.554 -403.891)" fill="#2f2e41"/><ellipse cx="4.633" cy="2.625" rx="4.633" ry="2.625" transform="translate(156.085 116.386)" fill="#2f2e41"/><path d="M896.952,498.3a.8.8,0,0,0-.366-.406,1.256,1.256,0,0,0-.331-.135.812.812,0,0,0,.213-.149.764.764,0,0,0,.2-.315,1.075,1.075,0,0,0,.046-.381,1.161,1.161,0,0,0-.172-.6,1.079,1.079,0,0,0-.49-.365,1.79,1.79,0,0,0-.594-.12v-.863l-.522.338v.527h-.417v-.554l-.535-.31v.864H892.85l.365.648a.57.57,0,0,1,.228.031.175.175,0,0,1,.085.081.672.672,0,0,1,.025.236v2.339a.673.673,0,0,1-.025.235c-.017.035-.026.066-.067.085s-.042.018-.154.018h0l-.457.648h1.135v.864h.535v-.864h.417v.864h.522v-.87a2.473,2.473,0,0,0,.775-.139,1.274,1.274,0,0,0,.583-.425,1.349,1.349,0,0,0,.206-.691A1.571,1.571,0,0,0,896.952,498.3Zm-2.432-1.744h0v-.018h.365c.205,0,.889-.071.9.507s-.9.554-.9.554h-.365v-.045h0Zm0,1.647h.417c.085,0,.376.013.482.018a.446.446,0,0,1,.127.023l.045.018a.64.64,0,0,1,.18.094.382.382,0,0,1,.093.09.607.607,0,0,1,.1.333.484.484,0,0,1-.065.266.616.616,0,0,1-.281.24,1.758,1.758,0,0,1-.685.131h-.417Z" transform="translate(-665.453 -387.313)" fill="#6c63ff" opacity="0.3"/><circle cx="5.389" cy="5.389" r="5.389" transform="translate(13.916 124.148)" fill="#f2f2f2"/><path d="M194.952,561.3a.8.8,0,0,0-.367-.406,1.257,1.257,0,0,0-.331-.135.809.809,0,0,0,.213-.148.764.764,0,0,0,.2-.315,1.075,1.075,0,0,0,.046-.381,1.161,1.161,0,0,0-.172-.6,1.077,1.077,0,0,0-.49-.365,1.787,1.787,0,0,0-.593-.12v-.863l-.522.338v.527h-.417v-.554l-.535-.311v.864H190.85l.365.648a.571.571,0,0,1,.228.031.176.176,0,0,1,.085.081.671.671,0,0,1,.025.236v2.339a.672.672,0,0,1-.025.235c-.017.035-.026.066-.067.085s-.042.018-.154.018h0l-.456.648h1.135v.864h.535v-.864h.417v.864h.522v-.87a2.474,2.474,0,0,0,.775-.139,1.274,1.274,0,0,0,.583-.425,1.35,1.35,0,0,0,.206-.691A1.571,1.571,0,0,0,194.952,561.3Zm-2.432-1.745h0v-.018h.365c.205,0,.889-.071.9.507s-.9.554-.9.554h-.365v-.045h0Zm0,1.647h.417c.085,0,.376.013.483.018a.448.448,0,0,1,.127.024l.045.018a.641.641,0,0,1,.18.094.382.382,0,0,1,.093.09.607.607,0,0,1,.1.333.485.485,0,0,1-.065.266.616.616,0,0,1-.281.24,1.757,1.757,0,0,1-.685.131h-.417Z" transform="translate(-173.632 -431.451)" fill="#6c63ff" opacity="0.3"/></g></svg>