<svg xmlns="http://www.w3.org/2000/svg" width="279.136" height="206.914" viewBox="0 0 279.136 206.914"><g transform="translate(0 0.098)"><path d="M748.317,220.842l2.2-1.355c.209-.132.415-.273.626-.406a20.978,20.978,0,0,1-17.4-19.7,20.759,20.759,0,0,1,1.811-9.556,21.013,21.013,0,0,1,13.469-11.62l-.109,8.644,4.748-9.409a.188.188,0,0,1,.059,0,20.975,20.975,0,0,1,21.931,19.975c.018.4,0,.794,0,1.176a25.08,25.08,0,0,0,4.146-6.118c2.011-4.484,2.058-9.561,1.891-15.733-.318-12.231-.844-24.553-1.532-36.84a20.963,20.963,0,0,1-18.626-19.843c-.029-.644-.021-1.276,0-1.905a3.155,3.155,0,0,1,.023-.47c.041-.609.1-1.211.191-1.805a1.711,1.711,0,0,1,.053-.294q.129-.756.309-1.494c.047-.182.091-.368.141-.55a15.9,15.9,0,0,1,.5-1.582c.062-.173.135-.341.2-.512.15-.382.312-.759.482-1.132.091-.2.179-.391.276-.588.023-.05.044-.1.071-.15h0A20.96,20.96,0,0,1,788.4,98.94l-.141,11.249,4.7-9.291a20.846,20.846,0,0,1,10,22.6h.024c-.032.15-.079.294-.115.441-.065.276-.135.55-.212.823-.1.35-.212.694-.326,1.038-.088.256-.174.517-.271.77-.141.37-.294.732-.465,1.094-.094.212-.179.426-.294.635q-.4.812-.882,1.588c-.109.179-.232.35-.347.529-.223.347-.45.691-.694,1.026-.15.206-.312.4-.47.606-.229.294-.465.588-.708.856-.174.2-.35.391-.532.588-.256.271-.52.532-.794.791-.179.173-.362.347-.55.512-.309.273-.632.535-.958.791-.165.129-.323.265-.494.388q-.744.553-1.538,1.038c-.1.059-.206.109-.294.168-.441.262-.882.506-1.355.735-.2.1-.4.182-.606.273-.379.171-.762.335-1.153.485-.226.085-.459.165-.691.244-.385.132-.776.253-1.176.362-.235.065-.467.129-.706.185-.429.1-.867.188-1.308.262a.149.149,0,0,0-.085.018q.435,7.774.773,15.556a20.963,20.963,0,0,1,29.108-9.1l-3.708,10.158,7.627-7.324a20.916,20.916,0,0,1,6.762,14.483,20.527,20.527,0,0,1-.532,5.777,20.966,20.966,0,0,1-38.566,5.713c0,.526.038,1.055.053,1.582.138,5.445.312,12.219-2.4,18.27-1.838,4.1-4.8,7.433-7.724,10.417-1.9,1.943-3.875,3.822-5.9,5.642a20.975,20.975,0,0,1-7.574,6.3q-4.984,3.84-10.32,7.192L751.4,225.8c-2,1.238-4.043,2.508-6.051,3.822.353-.035.7-.073,1.061-.088a20.984,20.984,0,0,1,20.652,13.651l-13.107,10.67,14.407-3.343A20.984,20.984,0,0,1,738.285,269.4c.323.406.65.809.973,1.211.644.8,1.285,1.6,1.911,2.39,8.526,10.8,10.9,21.055,6.677,28.872l-5.134-2.776c4.116-7.609-2.058-17.347-6.124-22.481-.614-.776-1.244-1.558-1.879-2.352-5.448-6.762-11.622-14.442-11.467-23.854C723.464,236.246,737.25,227.7,748.317,220.842Z" transform="translate(-547.409 -98.18)" fill="#f2f2f2"/><ellipse cx="133.925" cy="6.174" rx="133.925" ry="6.174" transform="translate(0 194.467)" fill="#3f3d56"/><path d="M939.669,687.35c.882-1.62-.117-3.6-1.258-5.051s-2.531-2.94-2.5-4.79c.041-2.646,2.849-4.207,5.1-5.61a24.923,24.923,0,0,0,4.572-3.678,6.7,6.7,0,0,0,1.408-1.882,7.68,7.68,0,0,0,.42-3.346q-.147-5.663-.559-11.314" transform="translate(-697.549 -489.011)" fill="none" stroke="#3f3d56" stroke-miterlimit="10" stroke-width="4"/><path d="M967.8,641.547a4.134,4.134,0,0,0-2.058-3.381l-.923,1.829.026-2.211a4.126,4.126,0,1,0,2.94,3.763Z" transform="translate(-714.242 -479.078)" fill="#57b793"/><path d="M943.918,731.592a4.116,4.116,0,1,1,.2-3.322l-2.576,2.1,2.834-.659A4.115,4.115,0,0,1,943.918,731.592Z" transform="translate(-697.715 -541.191)" fill="#57b793"/><path d="M945.3,698.9a4.116,4.116,0,0,1-4.31-3.931,4.057,4.057,0,0,1,.356-1.879,4.134,4.134,0,0,1,2.646-2.287l-.021,1.7.935-1.852h0a4.128,4.128,0,0,1,.385,8.247Z" transform="translate(-701.131 -516.519)" fill="#57b793"/><path d="M979.369,676.221a4.121,4.121,0,1,1,1.823-7.709l-.729,2,1.5-1.441a4.116,4.116,0,0,1,1.335,2.849,4.023,4.023,0,0,1-.106,1.135,4.116,4.116,0,0,1-3.822,3.167Z" transform="translate(-725.186 -500.521)" fill="#57b793"/><path d="M967.36,648.043c-.953.106-1.879.4-2.834.461a3.084,3.084,0,0,1-2.611-.914,13.049,13.049,0,0,1-.764-1.341,2.941,2.941,0,0,0-1.038-.979,4.116,4.116,0,1,0,7.715,2.74C967.669,648.016,967.513,648.028,967.36,648.043Z" transform="translate(-714.352 -484.486)" opacity="0.1"/><path d="M979.345,681.88A4.116,4.116,0,0,1,975.42,676a3.055,3.055,0,0,1,.829.832,13.273,13.273,0,0,0,.817,1.364,3.365,3.365,0,0,0,2.737.956c1-.047,1.955-.326,2.94-.418.135,0,.276-.023.415-.026A4.116,4.116,0,0,1,979.345,681.88Z" transform="translate(-725.162 -506.181)" opacity="0.1"/><path d="M945.3,704.76a4.116,4.116,0,0,1-4.31-3.931,4.057,4.057,0,0,1,.356-1.879,3.386,3.386,0,0,1,.882.838c.32.453.52.973.882,1.391a3.811,3.811,0,0,0,2.923,1.023c1.055-.026,2.005-.273,3.022-.35a4.134,4.134,0,0,1-3.755,2.908Z" transform="translate(-701.131 -522.383)" opacity="0.1"/><path d="M943.651,737.881a4.124,4.124,0,0,1-7.524-3.381,4.282,4.282,0,0,1,.906.809,16.265,16.265,0,0,0,1.105,1.47,5.135,5.135,0,0,0,3.417,1.2,17.683,17.683,0,0,0,2.1-.1Z" transform="translate(-697.447 -547.481)" opacity="0.1"/><path d="M927.54,762.422s3.255-.1,4.237-.8,5-1.535,5.254-.412,4.9,5.586,1.217,5.6-8.544-.588-9.523-1.176S927.54,762.422,927.54,762.422Z" transform="translate(-691.642 -565.95)" fill="#656380"/><path d="M938.313,770.623c-3.675.029-8.544-.588-9.523-1.176-.744-.453-1.044-2.085-1.141-2.837h-.109s.206,2.626,1.176,3.234,5.845,1.2,9.523,1.176c1.061,0,1.429-.388,1.408-.947C939.509,770.406,939.1,770.617,938.313,770.623Z" transform="translate(-691.642 -570.15)" opacity="0.2"/><path d="M274.273,533.348c-2.135-3.952.294-8.791,3.07-12.313s6.174-7.186,6.1-11.675c-.106-6.451-6.951-10.258-12.419-13.678a60.653,60.653,0,0,1-11.152-8.965,16.29,16.29,0,0,1-3.428-4.59c-1.129-2.523-1.1-5.389-1.026-8.153q.353-13.819,1.364-27.585" transform="translate(-217.113 -344.08)" fill="none" stroke="#3f3d56" stroke-miterlimit="10" stroke-width="4"/><path d="M224.733,421.673a10.058,10.058,0,0,1,5.022-8.232l2.252,4.454-.068-5.392a10.061,10.061,0,1,1-7.206,9.179Z" transform="translate(-195.464 -319.866)" fill="#57b793"/><path d="M283.111,641.088a10.055,10.055,0,0,0,18.991-4.116,9.925,9.925,0,0,0-.656-4.081,10.061,10.061,0,0,0-18.817.109l6.283,5.11L282,636.5A9.946,9.946,0,0,0,283.111,641.088Z" transform="translate(-235.901 -471.198)" fill="#57b793"/><path d="M279.671,561.532a10.061,10.061,0,0,0,3.19-19.734l.053,4.143-2.264-4.507h-.026a10.062,10.062,0,0,0-.938,20.1Z" transform="translate(-227.494 -411.171)" fill="#57b793"/><path d="M196.558,506.261a10.061,10.061,0,1,0-4.446-18.817l1.764,4.872-3.643-3.519a10.014,10.014,0,0,0-3.264,6.945,9.81,9.81,0,0,0,.256,2.77A10.058,10.058,0,0,0,196.558,506.261Z" transform="translate(-168.803 -372.15)" fill="#57b793"/><path d="M226.6,437.562c2.323.256,4.581.976,6.909,1.12s4.89-.412,6.363-2.223a31.36,31.36,0,0,0,1.861-3.275,7.139,7.139,0,0,1,2.534-2.385,10.061,10.061,0,1,1-18.817,6.677C225.841,437.495,226.223,437.521,226.6,437.562Z" transform="translate(-195.978 -333.073)" opacity="0.1"/><path d="M197.23,520.1a10.067,10.067,0,0,0,9.57-14.348,7.441,7.441,0,0,0-2.023,2.023,32.622,32.622,0,0,1-1.993,3.325c-1.567,1.841-4.243,2.443-6.671,2.334s-4.772-.8-7.189-1.023c-.335-.029-.676-.053-1.014-.062A10.059,10.059,0,0,0,197.23,520.1Z" transform="translate(-169.475 -385.987)" opacity="0.1"/><path d="M280.707,575.813a10.058,10.058,0,0,0,9.65-14.163,8.136,8.136,0,0,0-2.126,2.058,34.482,34.482,0,0,1-2.185,3.39c-1.7,1.891-4.548,2.558-7.121,2.5-2.49-.053-4.889-.664-7.365-.856A10.067,10.067,0,0,0,280.707,575.813Z" transform="translate(-228.531 -425.451)" opacity="0.1"/><path d="M285.78,656.557a10.055,10.055,0,0,0,18.991-4.116,9.926,9.926,0,0,0-.656-4.081,10.072,10.072,0,0,0-2.205,1.967,38.672,38.672,0,0,1-2.693,3.575c-2.058,2.017-5.378,2.852-8.332,2.94A43.142,43.142,0,0,1,285.78,656.557Z" transform="translate(-238.57 -486.667)" opacity="0.1"/><path d="M254.018,553.817l-38.81,7.938-.882-.088-34.106-3.44v-43.22l41.75-7.056,30.284,3.528.009.191,0,.094Z" transform="translate(-127.232 -358.674)" fill="#5ab1ac"/><path d="M335.912,562.747l-38.81,7.938-.882-.088V526.289l37.937-5.689Z" transform="translate(-209.126 -367.604)" opacity="0.1"/><path d="M252.266,511.763l-.012.009-37.928,5.586-34.106-2.352,41.75-7.056,30.284,3.528.009.191Z" transform="translate(-127.232 -358.674)" opacity="0.05"/><path d="M399.018,559.817l-38.81,7.938-.882-.088-34.106-3.44v-43.22l41.75-7.056,30.284,3.528.009.191,0,.094Z" transform="translate(-229.6 -362.909)" fill="#3f3d56"/><path d="M480.912,568.747l-38.81,7.938-.882-.088V532.289l37.937-5.689Z" transform="translate(-311.494 -371.84)" opacity="0.1"/><path d="M397.266,517.763l-.012.009-37.928,5.586-34.106-2.352,41.75-7.056,30.284,3.528.009.191Z" transform="translate(-229.6 -362.909)" opacity="0.05"/><path d="M308.018,415.817l-38.81,7.938-.882-.088-34.106-3.44v-43.22l41.75-7.056,30.284,3.528.009.191,0,.094Z" transform="translate(-165.355 -261.248)" fill="#3f3d56"/><path d="M389.912,424.747l-38.81,7.938-.882-.088V388.289l37.937-5.689Z" transform="translate(-247.249 -270.179)" opacity="0.1"/><path d="M306.266,373.763l-.012.009-37.928,5.586-34.106-2.352,41.75-7.056,30.284,3.528.009.191Z" transform="translate(-165.355 -261.248)" opacity="0.05"/><path d="M467.736,474.629l-20.255,4.146-.462-.047-17.8-1.8V454.374l21.79-3.684,15.806,1.844.006.1v.047Z" transform="translate(-303.022 -318.249)" fill="#3f3d56"/><path d="M510.476,479.3l-20.255,4.146-.462-.047V460.27l19.8-2.97Z" transform="translate(-345.762 -322.915)" opacity="0.1"/><path d="M466.822,452.681l-.006.006-19.8,2.917-17.8-1.229,21.79-3.684,15.806,1.844.006.1Z" transform="translate(-303.022 -318.249)" opacity="0.05"/><path d="M282.736,325.629l-20.255,4.143-.462-.044-17.8-1.8V305.374l21.79-3.684,15.806,1.844.006.1v.047Z" transform="translate(-172.415 -213.057)" fill="#3f3d56"/><path d="M325.476,330.3l-20.255,4.143-.462-.044V311.27l19.8-2.97Z" transform="translate(-215.155 -217.724)" opacity="0.1"/><path d="M281.822,303.681l-.006.006-19.8,2.917-17.8-1.229,21.79-3.684,15.806,1.844.006.1Z" transform="translate(-172.415 -213.057)" opacity="0.05"/><path d="M403.736,322.629l-20.255,4.143-.462-.044-17.8-1.8V302.374l21.79-3.684,15.806,1.844.006.1v.047Z" transform="translate(-257.839 -210.94)" fill="#5ab1ac"/><path d="M446.476,327.3l-20.255,4.143-.462-.044V308.27l19.8-2.97Z" transform="translate(-300.579 -215.606)" opacity="0.1"/><path d="M402.822,300.681l-.006.006-19.8,2.917-17.8-1.229,21.79-3.684,15.806,1.844.006.1Z" transform="translate(-257.839 -210.94)" opacity="0.05"/><path d="M439.736,245.629l-20.255,4.143-.462-.044-17.8-1.8V225.374l21.79-3.684,15.806,1.843.006.1v.047Z" transform="translate(-283.255 -156.579)" fill="#3f3d56"/><path d="M482.476,250.3l-20.255,4.143-.462-.044V231.27l19.8-2.97Z" transform="translate(-325.995 -161.245)" opacity="0.1"/><path d="M438.822,223.681l-.006.006-19.8,2.917-17.8-1.229,21.79-3.684,15.806,1.843.006.1Z" transform="translate(-283.255 -156.579)" opacity="0.05"/><path d="M698.47,230.084c-.215,1.911-1.673,3.452-2.214,5.292-.812,2.778.588,5.763,2.517,7.938a17.573,17.573,0,0,0,12.237,5.8,5.266,5.266,0,0,0,2.023-.221,4.392,4.392,0,0,0,1.538-1.053,9.833,9.833,0,0,0,2.534-5.5,29.427,29.427,0,0,0,.07-6.148,3.478,3.478,0,0,0-.229-1.241,3.154,3.154,0,0,0-.8-.979,18.528,18.528,0,0,0-3.425-2.49,3.846,3.846,0,0,1-1.435-1.1,3.589,3.589,0,0,1-.444-1.314l-.379-1.929a3.781,3.781,0,0,0-.556-1.564c-.667-.9-1.946-1.023-3.067-1.067l-4.116-.162a19.688,19.688,0,0,0-4.21-.165c-1.176.232-.779,1.308-.568,2.285A16.518,16.518,0,0,1,698.47,230.084Z" transform="translate(-528.193 -187.147)" fill="#ffc0c6"/><path d="M698.47,230.084c-.215,1.911-1.673,3.452-2.214,5.292-.812,2.778.588,5.763,2.517,7.938a17.573,17.573,0,0,0,12.237,5.8,5.266,5.266,0,0,0,2.023-.221,4.392,4.392,0,0,0,1.538-1.053,9.833,9.833,0,0,0,2.534-5.5,29.427,29.427,0,0,0,.07-6.148,3.478,3.478,0,0,0-.229-1.241,3.154,3.154,0,0,0-.8-.979,18.528,18.528,0,0,0-3.425-2.49,3.846,3.846,0,0,1-1.435-1.1,3.589,3.589,0,0,1-.444-1.314l-.379-1.929a3.781,3.781,0,0,0-.556-1.564c-.667-.9-1.946-1.023-3.067-1.067l-4.116-.162a19.688,19.688,0,0,0-4.21-.165c-1.176.232-.779,1.308-.568,2.285A16.518,16.518,0,0,1,698.47,230.084Z" transform="translate(-528.193 -187.147)" opacity="0.1"/><path d="M741.976,514.476l-1.746,19.146c-.456,5.022-.92,10.064-1.814,15.021-.294,1.708-.67,3.408-1.1,5.092-1.194,4.678-2.925,9.25-3.484,14.045-.018.138-.032.294-.047.42a12.593,12.593,0,0,1-.588,3.117c-.294.732-.709,1.4-1.011,2.123a13.914,13.914,0,0,0-.756,4.613,19.888,19.888,0,0,0-6.848-2.352c-1.176-.174-2.455-.294-3.234-1.176-.882-.958-.779-2.426-.632-3.713q.694-6,1.382-11.99a31.247,31.247,0,0,1,.882-5.092c.159-.556.35-1.1.544-1.649.268-.753.538-1.505.741-2.279a27.461,27.461,0,0,0,.582-3.772c.473-4.022,1.044-8.036,1.544-12.055l.026-.212a123.277,123.277,0,0,0,1.155-18.35c-.024-.908-.062-1.817-.121-2.728-.082-1.32-.2-2.02.882-2.846a20.564,20.564,0,0,1,4.181-2.146c.744-.323,8.935-3.234,9.115-2.593a15.96,15.96,0,0,1,.588,4.181,46.512,46.512,0,0,1-.241,5.2Z" transform="translate(-545.558 -385.463)" fill="#605d82"/><path d="M745.321,617.69c-.294,1.708-.67,3.408-1.1,5.092-1.194,4.678-2.925,9.25-3.484,14.045-.018.138-.032.294-.047.42-3.652-5.216-6.727-10.826-10.291-16.1.268-.753.538-1.505.741-2.279a27.44,27.44,0,0,0,.612-3.8c.473-4.022,1.044-8.035,1.544-12.055l.026-.212a12.49,12.49,0,0,0,.882,2.473c2.393,4.863,8.08,7.321,10.861,11.975Q745.2,617.476,745.321,617.69Z" transform="translate(-552.464 -454.51)" opacity="0.1"/><path d="M680.331,451.145a90.438,90.438,0,0,0,1.367,11.617l1.285,7.938c.7,4.351,1.438,8.788,3.5,12.684,1.541,2.917,3.758,5.4,5.766,8.018,4.934,6.427,8.641,13.71,13.319,20.325,1.361,1.923,3.3,4,5.625,3.6,1.523-.262,2.629-1.532,3.822-2.508,1.411-1.153,3.111-2,4.222-3.443s1.329-3.846-.176-4.875a8.125,8.125,0,0,0-1.723-.706c-2.332-.882-3.843-3.164-4.8-5.469s-1.544-4.778-2.823-6.921c-2.781-4.654-8.471-7.112-10.864-11.978-1.341-2.723-1.47-5.88-1.57-8.9l-.262-7.736a5.633,5.633,0,0,1,.294-2.5c.914-2.058,3.678-2.252,5.919-2.514a20.213,20.213,0,0,0,7.253-2.287,7.522,7.522,0,0,0,3.234-2.878,9.247,9.247,0,0,0,.788-3.9l.776-14.022a8.841,8.841,0,0,0-.294-3.584c-1.067-2.84-4.654-3.769-7.686-3.634-5.639.253-10.843,2.678-16.171,4.319a41.332,41.332,0,0,1-4.007,1.044,32.49,32.49,0,0,0-3.775.523c-2.023.682-1.973,5.11-2.258,6.945A58.3,58.3,0,0,0,680.331,451.145Z" transform="translate(-517.105 -330.72)" fill="#605d82"/><path d="M780.024,706.555a3.594,3.594,0,0,1,.788,1.932,65.918,65.918,0,0,1,1.117,11.675,1.934,1.934,0,0,0,.209,1.058,1.351,1.351,0,0,0,.55.441c1.438.685,3.1-.271,4.3-1.32,2.22-1.943,4.1-4.554,4.225-7.5a17.285,17.285,0,0,1,.079-2.276,9.47,9.47,0,0,1,1.414-3.049,25.889,25.889,0,0,0,2.352-5.239c.218-.688.365-1.552-.176-2.032a1.888,1.888,0,0,0-.638-.332l-6.5-2.411c-.564-.209-1.964,3.387-2.185,3.781a2.976,2.976,0,0,1-2.176,1.729c-1.091.223-2.437-.1-3.478.456C778.148,704.4,779.027,705.552,780.024,706.555Z" transform="translate(-586.705 -521.352)" fill="#535070"/><path d="M730.906,733.18a1.979,1.979,0,0,0-.494-.626,2.216,2.216,0,0,0-1-.338c-1.235-.212-2.7-.35-3.555.57-.8.861-.661,2.264-1.329,3.234a10.079,10.079,0,0,0-.682.882,3.311,3.311,0,0,0-.294,1.582c-.035,1.5-.071,3,.035,4.493a6.269,6.269,0,0,0,1.079,3.549c1.258,1.576,3.528,1.8,5.539,1.9l1.632.085a3.234,3.234,0,0,0,1.335-.123,2.19,2.19,0,0,0,1.153-1.267c.85-2.111-.494-4.384-1.323-6.5C732.049,738.185,732.22,735.483,730.906,733.18Z" transform="translate(-547.607 -545.758)" fill="#535070"/><path d="M689.341,180a1.331,1.331,0,0,1,.091-.629c.238-.42.861-.294,1.332-.188,1.891.476,3.884.044,5.833.156s4.143,1.085,4.534,3a14.173,14.173,0,0,0,3.6-3.693,4.43,4.43,0,0,0,.938-2.7c-.106-1.4-1.279-2.446-2.352-3.334l-3.234-2.646a4.914,4.914,0,0,0-1.453-.923,7.227,7.227,0,0,0-2.352-.132c-2.352,0-4.875-1.073-6.971,0a7.442,7.442,0,0,0-2.173,1.976l-2.89,3.422a1.827,1.827,0,0,0-.465.785,3.454,3.454,0,0,0,.209,1.25c.135.764-.194,1.582.059,2.317.42,1.217,1.9,1.391,2.808,2.09.335.259.864,1.144,1.267,1.132C688.827,181.862,689.321,180.568,689.341,180Z" transform="translate(-519.535 -147.843)" fill="#3f3d56"/><circle cx="9.262" cy="9.262" r="9.262" transform="translate(165.449 23.731)" fill="#ffc0c6"/><path d="M673.289,255.625a4.487,4.487,0,0,0-4.354-3,1.308,1.308,0,0,1-.806-.1,1.113,1.113,0,0,1-.332-.412,16.387,16.387,0,0,1-1.35-3.193c-.147-.491-.35-1.07-.847-1.2a1.137,1.137,0,0,0-1.076.47,10.29,10.29,0,0,1-.77.967c-1.176,1.041-3.234.091-4.466,1.047-.2.156-.37.356-.588.5a2.674,2.674,0,0,1-.679.294A65.1,65.1,0,0,0,651,253.737c.823,4.951,1.664,10,3.593,14.627.917,2.205,1.955,4.366,2.69,6.639,1.629,5.037,1.7,10.426,1.72,15.721,0,3.622,0,7.321-1.176,10.749a10.408,10.408,0,0,0-.662,2.352,2.447,2.447,0,0,0,.829,2.2,2.8,2.8,0,0,0,1.279.45,16.618,16.618,0,0,0,6.077-.706,163.588,163.588,0,0,1,16.283-2.646l9.144-1.176a5.349,5.349,0,0,0,1.893-.491c1.673-.914,1.832-3.431.791-5.031-.5-.767-1.2-1.4-1.62-2.208a2.051,2.051,0,0,1,.268-2.514c1.47-1.147,1.029-3.272,1.1-5.131q.294-7.8-.079-15.583a30.492,30.492,0,0,1-.053-3.234,28.531,28.531,0,0,1,1.008-5.4l2.778-10.937a5.7,5.7,0,0,0-3.431-2.205c-1.314-.329-2.687-.426-3.984-.829-2.646-.823-5.022-2.911-7.794-2.717a1.426,1.426,0,0,0-.606.147c-.623.356-.526,1.255-.565,1.973a5.459,5.459,0,0,1-2.546,3.849,45.956,45.956,0,0,0-3.949,2.67A1.764,1.764,0,0,0,673.289,255.625Z" transform="translate(-496.409 -202.366)" fill="#3f3d56"/><path d="M590.18,306.574a10.881,10.881,0,0,1-1.946,1,6.469,6.469,0,0,0-1.867.906,2.953,2.953,0,0,0-.65.8A3.566,3.566,0,0,0,589,314.6a7.167,7.167,0,0,0,2.432-.726l6.533-2.843a5.131,5.131,0,0,0,2.823-2.126.511.511,0,0,0,.065-.338.555.555,0,0,0-.27-.294,14.635,14.635,0,0,1-3.8-3.587c-.268-.365-.588-1.223-.976-1.444C594.426,302.473,591.288,305.857,590.18,306.574Z" transform="translate(-449.996 -242.939)" fill="#ffc0c6"/><path d="M802.083,307l2.408,2.752c.517.588,1.035,1.176,1.505,1.811a21.074,21.074,0,0,1,2.758,5.2,9.084,9.084,0,0,1,.776,4.3,10.58,10.58,0,0,1-.6,2.185,27.02,27.02,0,0,1-1.638,3.94,22.41,22.41,0,0,1-1.832,2.755,64.41,64.41,0,0,1-6.107,6.983,7.856,7.856,0,0,0-1.526,3.234c-.661,2.032-2.234,3.616-3.755,5.116a10.342,10.342,0,0,1-1.614,1.388,5.233,5.233,0,0,1-2.94.835,3.234,3.234,0,0,1-1.32-.273,3.415,3.415,0,0,1-1.679-2.843,6.087,6.087,0,0,1,.506-3.046c1.382-3.061,4.931-4.387,7.439-6.621a24.277,24.277,0,0,0,3.708-4.581,15.891,15.891,0,0,0,1.873-3.284c.559-1.5.341-3.267.832-4.784.206-.644.588-1.223.8-1.861a2.2,2.2,0,0,0-.112-1.943,2.807,2.807,0,0,0-1.091-.8c-1.6-.811-3.4-1.858-3.7-3.631a3.887,3.887,0,0,1,.717-2.773,11.473,11.473,0,0,1,2.02-2.117C800.2,308.3,801.381,307.606,802.083,307Z" transform="translate(-592.064 -245.673)" fill="#ffc0c6"/><path d="M570.016,322.065A4.456,4.456,0,0,0,568.2,319.9a3.34,3.34,0,0,0-2.646,0,10.033,10.033,0,0,0-2.317,1.4l-2.076,1.532a5.106,5.106,0,0,0-1.232,1.138,4.736,4.736,0,0,0-.641,1.764,12.813,12.813,0,0,0-.326,4.354,12.388,12.388,0,0,0,3.293,6.174c.97,1.111,2.17,2.235,3.646,2.284a1.673,1.673,0,0,0,1.611-.811,2.008,2.008,0,0,0,.144-.723,16.115,16.115,0,0,0-1.864-7.539,4.665,4.665,0,0,1-.588-2.026.548.548,0,0,1,.088-.341.571.571,0,0,1,.353-.173c1.491-.294,4.06.864,5.1-.791C571.428,325.052,570.5,323.038,570.016,322.065Z" transform="translate(-431.379 -254.59)" fill="#ffc0c6"/><path d="M687.7,170.094a1.37,1.37,0,0,1,.094-.629c.238-.423.861-.294,1.332-.188,1.891.476,3.884.044,5.833.156s4.14,1.085,4.534,3a14.266,14.266,0,0,0,3.6-3.693,4.445,4.445,0,0,0,.938-2.708c-.106-1.4-1.282-2.446-2.352-3.331l-3.234-2.646a4.9,4.9,0,0,0-1.449-.923,7.231,7.231,0,0,0-2.352-.132c-2.352,0-4.875-1.073-6.971,0a7.439,7.439,0,0,0-2.173,1.976l-2.893,3.422a1.83,1.83,0,0,0-.462.785,3.452,3.452,0,0,0,.209,1.25c.135.764-.194,1.582.059,2.314.421,1.22,1.9,1.394,2.808,2.093.335.259.864,1.144,1.267,1.132C687.175,171.952,687.669,170.658,687.7,170.094Z" transform="translate(-518.377 -140.847)" fill="#3f3d56"/><path d="M622.287,276.819a3.839,3.839,0,0,0-.97.9c-.338.515-.409,1.176-.7,1.705-.623,1.158-2.085,1.573-2.993,2.523a.938.938,0,0,0-.294.494,1.091,1.091,0,0,0,.244.712l4.393,6.9c1.47.129,2.864-.788,4.328-.664a4.366,4.366,0,0,0,1.629.071,4.733,4.733,0,0,0,1.044-.638c.882-.553,2.035-.617,2.767-1.344a3.7,3.7,0,0,0,.785-2.784,10.992,10.992,0,0,0-.262-2.558c-.647-2.646-2.673-4.687-3.943-7.033-.62-1.144-.956-1.811-2.264-1.026S623.524,275.914,622.287,276.819Z" transform="translate(-472.638 -222.193)" fill="#3f3d56"/><path d="M797.494,266.739a10.311,10.311,0,0,1,2.211,1.935c.667.862,1.047,1.92,1.691,2.8a30.611,30.611,0,0,0,2.176,2.305,17.571,17.571,0,0,1,2.511,4.09,61.335,61.335,0,0,1-5.68,6.41,1.82,1.82,0,0,1-.864.565,1.385,1.385,0,0,1-1.217-.5c-.318-.329-.541-.741-.844-1.085a4.337,4.337,0,0,0-2.684-1.3,18.45,18.45,0,0,0-3.043-.044,1.176,1.176,0,0,1-.65-.109,1.073,1.073,0,0,1-.353-.406c-1.176-2.023-.809-4.563-.388-6.874l.961-5.292a11.89,11.89,0,0,1,.8-2.94c.365-.779,1.176-2.1,2.182-1.867S796.644,266.127,797.494,266.739Z" transform="translate(-594.508 -215.602)" fill="#3f3d56"/><path d="M312.736,248.629l-20.255,4.143-.462-.044-17.8-1.8V228.374l21.79-3.684,15.806,1.843.006.1v.047Z" transform="translate(-193.595 -158.697)" fill="#5ab1ac"/><path d="M355.476,253.3l-20.255,4.143-.462-.044V234.27l19.8-2.97Z" transform="translate(-236.335 -163.363)" opacity="0.1"/><path d="M311.822,226.68l-.006.006-19.8,2.917-17.8-1.229,21.79-3.684,15.806,1.843.006.1Z" transform="translate(-193.595 -158.697)" opacity="0.05"/><path d="M348.736,172.629l-20.255,4.146-.462-.047-17.8-1.8V152.374l21.79-3.684,15.806,1.843.006.1v.047Z" transform="translate(-219.01 -105.042)" fill="#3f3d56"/><path d="M391.476,177.3l-20.255,4.146-.462-.047V158.27l19.8-2.97Z" transform="translate(-261.75 -109.709)" opacity="0.1"/><path d="M347.822,150.68l-.006.006-19.8,2.917-17.8-1.229,21.79-3.684,15.806,1.843.006.1Z" transform="translate(-219.01 -105.042)" opacity="0.05"/></g></svg>