<svg xmlns="http://www.w3.org/2000/svg" width="285.5" height="157.073" viewBox="0 0 285.5 157.073"><g transform="translate(0 0)"><path d="M136.024,321.839a52.884,52.884,0,0,1-52.882,52.882V268.957A52.883,52.883,0,0,1,136.024,321.839Z" transform="translate(-82.827 -240.313)" fill="#3f3d56"/><path d="M924.964,321.839a52.883,52.883,0,0,0,52.882,52.882V268.957A52.883,52.883,0,0,0,924.964,321.839Z" transform="translate(-692.661 -240.313)" fill="#3f3d56"/><path d="M259.308,226.038a3.777,3.777,0,1,1,3.777-3.777A3.777,3.777,0,0,1,259.308,226.038Zm0-6.925a3.148,3.148,0,1,0,3.148,3.148A3.148,3.148,0,0,0,259.308,219.113Z" transform="translate(-207.709 -203.749)" fill="#3f3d56"/><path d="M862.654,585.125H856.44v-6.214h6.214Zm-5.736-.478h5.258v-5.258h-5.258Z" transform="translate(-643.021 -464.85)" fill="#3f3d56"/><path d="M330.593,557.905l-4.238-4.544,4.544-4.238,4.238,4.544Zm-3.563-4.521,3.586,3.845,3.845-3.586-3.586-3.845Z" transform="translate(-259.016 -443.27)" fill="#3f3d56"/><path d="M82,165.014V322.086H367.5V165.014ZM366.872,321.457H82.63V165.644H366.87Z" transform="translate(-82 -165.014)" fill="#3f3d56"/><path d="M510.344,608.228q-10.21-1.6-19.633-2.719l2.419-4.838c-.84-.28-4.478,2.519-4.478,2.519l3.079-14c-4.2.56-6.158,14.835-6.158,14.835l-4.758-4.758,2.342,5.387a433.8,433.8,0,0,0-49.757-2.506l2.071-4.141c-.84-.28-4.478,2.519-4.478,2.519l3.079-14c-4.2.56-6.158,14.835-6.158,14.835l-4.758-4.758,2.481,5.706a279.291,279.291,0,0,0-28.556,2.3c2.066-6.436,9.281-12.624,9.281-12.624-5.548,1.726-8.434,4.538-9.928,7.144a112.4,112.4,0,0,1,6.009-38.913s-11.2,25.191-9.517,41.985l.213,2.983a114.71,114.71,0,0,0-14.628,3.035Z" transform="translate(-296.798 -451.314)" fill="#3f3d56"/><circle cx="43.754" cy="43.754" r="43.754" transform="translate(100.767 35.574)" fill="#00bfa6" opacity="0.3"/><path d="M382.642,85.873,353.51,121.22,396.626,172.1l28.744-33.793Z" transform="translate(-256.09 -62.208)" fill="#00bfa6"/><path d="M382.642,85.873,353.51,121.22,396.626,172.1l28.744-33.793Z" transform="translate(-256.09 -62.208)" opacity="0.1"/><path d="M439.739,300.264h0a14.642,14.642,0,0,1,2.375-3.171l26.757-27.126s9.322-1.554,11.264,3.107l-34.182,27.967Z" transform="translate(-341.154 -240.864)" fill="#f2f2f2"/><path d="M434.8,297.272l39.62,60.6s3.884,2.719,7.769,1.165l40.591-27.384-43.115-65.256-38.843,30.3Z" transform="translate(-337.579 -238.455)" fill="#00bfa6"/><rect width="30.615" height="0.629" transform="matrix(0.812, -0.584, 0.584, 0.812, 112.384, 55.258)" fill="#3f3d56"/><rect width="0.63" height="59.145" transform="matrix(0.834, -0.552, 0.552, 0.834, 111.531, 62.292)" fill="#3f3d56"/><rect width="32.785" height="0.63" transform="translate(148.12 112.754) rotate(-36.344)" fill="#3f3d56"/><rect width="0.629" height="59.156" transform="translate(141.443 38.604) rotate(-34.838)" fill="#3f3d56"/><rect width="41.719" height="0.388" transform="translate(100.785 56.926) rotate(-42.545)" fill="#3f3d56"/><rect width="42.85" height="0.389" transform="translate(101.959 57.318) rotate(-41.439)" fill="#3f3d56"/><rect width="43.413" height="0.389" transform="matrix(0.768, -0.64, 0.64, 0.768, 102.743, 57.321)" fill="#3f3d56"/><path d="M1023.216,452.982a19.01,19.01,0,0,1-5.381-2.993l.969,2.679H1001.5v.63H1018.8l-.969,2.679A19,19,0,0,1,1023.216,452.982Z" transform="translate(-748.102 -371.456)" fill="#fff"/><path d="M142.555,452.666H125.247l.969-2.679a19.025,19.025,0,0,1-5.381,2.994,19.009,19.009,0,0,1,5.381,2.993l-.969-2.679h17.307Z" transform="translate(-110.133 -371.454)" fill="#fff"/></g></svg>