<svg xmlns="http://www.w3.org/2000/svg" xmlns:xlink="http://www.w3.org/1999/xlink" width="279.068" height="249.32" viewBox="0 0 279.068 249.32"><defs><linearGradient id="a" y1="0.5" x2="1" y2="0.5" gradientUnits="objectBoundingBox"><stop offset="0" stop-color="gray" stop-opacity="0.251"/><stop offset="0.535" stop-color="gray" stop-opacity="0.122"/><stop offset="1" stop-color="gray" stop-opacity="0.102"/></linearGradient></defs><g transform="translate(-0.004)"><path d="M419.577,76.854,332,130.749s0,111.158,87.579,171.79c87.579-60.632,87.579-171.79,87.579-171.79Z" transform="translate(-279.488 -73.365)" fill="#3f3d56"/><path d="M600.2,76.854l-1.5.921V301.488c.5.352.994.7,1.5,1.051,87.579-60.632,87.579-171.79,87.579-171.79Z" transform="translate(-459.584 -73.365)" fill="#6c63ff" opacity="0.04"/><g transform="translate(112.008 98.311)" opacity="0.7"><path d="M351.8,317.141l16.51,15.134,20.467-29.525,8.255,6.879-28.722,36.4-23.389-26.141Z" transform="translate(-344.921 -302.75)" fill="url(#a)"/></g><path d="M366.5,317.375l13.393,12.277,18.973-27.9,6.7,5.58-25.67,33.482-18.973-21.205Z" transform="translate(-243.718 -203.764)" fill="#3ad29f"/><path d="M327.294,109.47a1.193,1.193,0,0,1-.665-1.442.574.574,0,0,0,.026-.132h0a.6.6,0,0,0-1.075-.4h0a.574.574,0,0,0-.066.117,1.193,1.193,0,0,1-1.442.665.574.574,0,0,0-.132-.026h0a.6.6,0,0,0-.4,1.075h0a.574.574,0,0,0,.117.066,1.193,1.193,0,0,1,.665,1.442.575.575,0,0,0-.026.132h0a.6.6,0,0,0,1.075.4h0a.573.573,0,0,0,.066-.117,1.193,1.193,0,0,1,1.442-.665.573.573,0,0,0,.132.026h0a.6.6,0,0,0,.4-1.075h0A.575.575,0,0,0,327.294,109.47Z" transform="translate(-273.617 -93.897)" fill="#4d8af0" opacity="0.5"/><path d="M181.294,434.47a1.193,1.193,0,0,1-.665-1.442.573.573,0,0,0,.026-.132h0a.6.6,0,0,0-1.075-.4h0a.574.574,0,0,0-.066.117,1.193,1.193,0,0,1-1.442.665.574.574,0,0,0-.132-.026h0a.6.6,0,0,0-.4,1.075h0a.573.573,0,0,0,.117.066,1.193,1.193,0,0,1,.665,1.442.575.575,0,0,0-.026.132h0a.6.6,0,0,0,1.075.4h0a.573.573,0,0,0,.066-.117,1.193,1.193,0,0,1,1.442-.665.57.57,0,0,0,.132.026h0a.6.6,0,0,0,.4-1.075h0A.573.573,0,0,0,181.294,434.47Z" transform="translate(-175.027 -313.361)" fill="#4d8af0" opacity="0.5"/><circle cx="1.948" cy="1.948" r="1.948" transform="translate(241.079 80.532)" fill="#f55f44" opacity="0.5"/><circle cx="1.948" cy="1.948" r="1.948" transform="translate(37.476 219.84)" fill="#f55f44" opacity="0.5"/><circle cx="1.948" cy="1.948" r="1.948" transform="translate(274.201 155.544)" fill="#f55f44" opacity="0.5"/><path d="M866.294,138.47a1.193,1.193,0,0,1-.665-1.442.572.572,0,0,0,.026-.132h0a.6.6,0,0,0-1.075-.4h0a.572.572,0,0,0-.066.117,1.193,1.193,0,0,1-1.442.665.574.574,0,0,0-.132-.026h0a.6.6,0,0,0-.4,1.075h0a.571.571,0,0,0,.117.066,1.193,1.193,0,0,1,.665,1.442.575.575,0,0,0-.026.132h0a.6.6,0,0,0,1.075.4h0a.575.575,0,0,0,.066-.117,1.193,1.193,0,0,1,1.442-.665.574.574,0,0,0,.132.026h0a.6.6,0,0,0,.4-1.075h0A.574.574,0,0,0,866.294,138.47Z" transform="translate(-637.59 -113.48)" fill="#4d8af0" opacity="0.5"/><path d="M966.294,766.47a1.193,1.193,0,0,1-.665-1.442.578.578,0,0,0,.026-.132h0a.6.6,0,0,0-1.075-.4h0a.572.572,0,0,0-.066.117,1.193,1.193,0,0,1-1.442.665.572.572,0,0,0-.132-.026h0a.6.6,0,0,0-.4,1.075h0a.575.575,0,0,0,.117.066,1.193,1.193,0,0,1,.665,1.442.575.575,0,0,0-.026.132h0a.6.6,0,0,0,1.075.4h0a.566.566,0,0,0,.066-.117,1.193,1.193,0,0,1,1.442-.665.575.575,0,0,0,.132.026h0a.6.6,0,0,0,.4-1.075h0A.576.576,0,0,0,966.294,766.47Z" transform="translate(-705.117 -537.552)" fill="#4d8af0" opacity="0.5"/><path d="M174.294,244.47a1.193,1.193,0,0,1-.665-1.442.574.574,0,0,0,.026-.132h0a.6.6,0,0,0-1.075-.4h0a.574.574,0,0,0-.066.117,1.193,1.193,0,0,1-1.442.665.574.574,0,0,0-.132-.026h0a.6.6,0,0,0-.4,1.075h0a.573.573,0,0,0,.117.066,1.193,1.193,0,0,1,.665,1.442.575.575,0,0,0-.026.132h0a.6.6,0,0,0,1.075.4h0a.573.573,0,0,0,.066-.117,1.193,1.193,0,0,1,1.442-.665.574.574,0,0,0,.132.026h0a.6.6,0,0,0,.4-1.075h0A.573.573,0,0,0,174.294,244.47Z" transform="translate(-170.3 -185.059)" fill="#4d8af0" opacity="0.5"/><circle cx="1.948" cy="1.948" r="1.948" transform="translate(23.838 90.274)" fill="#47e6b1" opacity="0.5"/><circle cx="1.948" cy="1.948" r="1.948" transform="translate(275.176 105.861)" fill="#47e6b1" opacity="0.5"/><g transform="translate(187.175)" opacity="0.5"><rect width="0.974" height="5.52" transform="translate(2.273)" fill="#47e6b1"/><rect width="0.974" height="5.52" transform="translate(5.52 2.273) rotate(90)" fill="#47e6b1"/></g><g transform="translate(190.747 216.268)" opacity="0.5"><rect width="0.974" height="5.52" transform="translate(2.273)" fill="#47e6b1"/><rect width="0.974" height="5.52" transform="translate(5.52 2.273) rotate(90)" fill="#47e6b1"/></g><g transform="translate(6.302 227.958)" opacity="0.5"><rect width="0.974" height="5.52" transform="translate(2.273)" fill="#47e6b1"/><rect width="0.974" height="5.52" transform="translate(5.52 2.273) rotate(90)" fill="#47e6b1"/></g><g transform="translate(228.09 128.592)" opacity="0.5"><rect width="0.974" height="5.52" transform="translate(2.273)" fill="#47e6b1"/><rect width="0.974" height="5.52" transform="translate(5.52 2.273) rotate(90)" fill="#47e6b1"/></g><path d="M793.793,117.941l2.092,1.918,2.964-4.359,1.046.872-4.01,5.231-2.964-3.313Z" transform="translate(-535.436 -77.994)" fill="#47e6b1" opacity="0.5"/><rect width="7.223" height="9.286" transform="translate(191.411 77.977) rotate(-2.221)" fill="#6c63ff"/><path d="M661.254,400.615s-9.995-4.775-9.835-.651,10.075,6.837,10.075,6.837Z" transform="translate(-495.183 -290.419)" fill="#ffb9b9"/><path d="M679.687,501.441s-4.715,11.541-6.458,19.87-4.4,19.79-.983,27.918,13.116,32.018,13.216,34.6-.831,5.2,1.231,5.115,13.284-3.613,13.739-5.179-3.828-5.531-3.828-5.531L686.025,545.08l11.037-21.6,7.961,32.218,1.559,40.21s7.653-2.362,8.764-.34c0,0,3.429-4.78,3.864-6.862s-1.619-41.757-1.619-41.757,7.025-45.19,1.354-44.97S691.064,488.609,679.687,501.441Z" transform="translate(-508.132 -356.35)" fill="#6c63ff"/><path d="M703.279,768.632s-5.231,11.561-5.726,12.1-3.9,5.831-1.327,5.731,8.664-2.917,13.144-7.222,10.386-11.761,9.851-12.257a30.423,30.423,0,0,0-4.2-1.9Z" transform="translate(-524.797 -538.105)" fill="#575a89"/><path d="M780.522,793.84s-.316,5.175-1.267,7.277-.831,5.2,1.746,5.1,9.239-1.391,9.239-1.391.4-3.113-.14-3.609-2.818-6.086-1.846-7.673S780.522,793.84,780.522,793.84Z" transform="translate(-581.14 -556.895)" fill="#575a89"/><path d="M780.48,278.6s5.495,8.564,7.637,10.546-3.884,6.346-3.884,6.346l-10.786,1.451s.136-9.815-.42-10.826S780.48,278.6,780.48,278.6Z" transform="translate(-577.284 -209.599)" fill="#ffb9b9"/><path d="M743.324,308.2s2.222,4.044,4.284,3.964,12.728-4.624,13.184-6.19,3.533,11.221,3.533,11.221l-26.1,45.929-6.366-4.4,3.085-26.967,2.533-14.554Z" transform="translate(-549.504 -227.995)" fill="#6c63ff"/><path d="M734.494,342.856a14.443,14.443,0,0,0-1.6,6.774c0,.1.008.206.017.309.247,4.771,2,10.289,2.635,14.3.458,2.879.327,4.98-1.357,5.474-4.084,1.191.6,2.042-15.206,7.3s-18.559.72-18.6-.311,2.238-8.864,1.7-9.359-7.493,6.486-9.595,5.535-.24-6.186-.24-6.186,4.735-11.026,4.635-13.6,7.173-14.734,7.173-14.734l4.947-32.2s1.9-4.2,4.46-4.82a6.336,6.336,0,0,1,4.68.851l-4.28,9.459-4.516,16.7.755,6.166s5.251-11.046,8.7-15.31,10.8-14.359,10.8-14.359,1.717-5.792.421-7.523,5.406-2,8.263,5.121c1.515,3.772,3.973,9.4,5.514,14.635,1.373,4.64,2.021,8.977.661,11.457C742.388,332.317,737.159,337.3,734.494,342.856Z" transform="translate(-522.243 -221.543)" fill="#575a89"/><path d="M829.577,369.084c-2.078,3.788-7.306,8.766-9.972,14.327-.7-2.508-1.545-5.1-1.545-5.1s-3.257-17.428,6.378-21.932a6.448,6.448,0,0,1,4.478,1.251C830.288,362.268,830.937,366.6,829.577,369.084Z" transform="translate(-607.355 -262.098)" opacity="0.1"/><path d="M693.846,392.191l-8.168,2.382-11.341.44-1.167,9.855,18.639,1.342S696.464,393.122,693.846,392.191Z" transform="translate(-509.872 -286.303)" fill="#575a89"/><path d="M759.554,494.231s-10.928,1.813-8.433,5.1,12.175-.169,12.175-.169Z" transform="translate(-562.26 -355.208)" fill="#ffb9b9"/><path d="M785.618,461.5c.247,4.771,2,10.289,2.635,14.3-3.481,3.295-6.791,6.2-8.039,6.249-2.578.1-6.722-.256-8.248.32s-2.422-9.2-2.422-9.2a8.453,8.453,0,0,1,4.975-4.839A56.6,56.6,0,0,0,785.618,461.5Z" transform="translate(-574.951 -333.109)" opacity="0.1"/><path d="M791.664,346.841s8.724-1.371,8.253,13.1.92,23.714-2.589,26.431-14.906,15.034-17.483,15.134-6.722-.256-8.248.32-2.422-9.2-2.422-9.2a8.454,8.454,0,0,1,4.975-4.84c4.064-1.706,13.639-7.757,13.559-9.819s-2.422-9.2-2.422-9.2S782.029,351.345,791.664,346.841Z" transform="translate(-574.701 -255.656)" fill="#575a89"/><circle cx="11.35" cy="11.35" r="11.35" transform="translate(184.153 58.983)" fill="#ffb9b9"/><path d="M736.248,227.835a2.192,2.192,0,0,1-.954.479.681.681,0,0,1-.789-.547,2.829,2.829,0,0,1-1.083,1.389c-.53.276-1.35.045-1.426-.548a2.5,2.5,0,0,1-.576,1.216.863.863,0,0,1-1.213.041,31.171,31.171,0,0,1,.162,3.862,4.916,4.916,0,0,0,1.389,3.5c1.419,1.235,3.553.93,5.419.7a1.645,1.645,0,0,1,.849.046c.7.3.667,1.271.677,2.03a5.641,5.641,0,0,0,4.94,5.357,2.828,2.828,0,0,0,2.1-.513c.53-.449.8-1.181,1.408-1.519.988-.549,2.186.252,2.908,1.121s1.434,1.938,2.553,2.1c1.48.21,2.607-1.3,3.16-2.686a15.659,15.659,0,0,0-.311-12.167C752.373,224.954,741.818,223.889,736.248,227.835Z" transform="translate(-548.387 -173.77)" fill="#2f2e41"/></g></svg>