<svg xmlns="http://www.w3.org/2000/svg" xmlns:xlink="http://www.w3.org/1999/xlink" width="285.5" height="219.225" viewBox="0 0 285.5 219.225"><defs><linearGradient id="a" x1="0.5" y1="1" x2="0.5" gradientUnits="objectBoundingBox"><stop offset="0" stop-color="gray" stop-opacity="0.251"/><stop offset="0.54" stop-color="gray" stop-opacity="0.122"/><stop offset="1" stop-color="gray" stop-opacity="0.102"/></linearGradient><linearGradient id="b" x1="0.5" x2="0.5" xlink:href="#a"/></defs><g transform="translate(0.01 0.019)"><path d="M399.859,171.072c-.256.187-.491.368-.742.545a25.012,25.012,0,0,1-2.9,1.767c-5.264,2.775-11.753,4.131-18.073,5.052C363.971,180.5,349.5,180.9,335.089,181.3c-38.937,1.069-77.968,2.136-116.81-.327-15.347-.972-31.031-2.6-44.937-7.586q-2.99-1.069-5.862-2.358a48.147,48.147,0,0,1-10.691-6.394,23.28,23.28,0,0,1-6.676-8.2c-2.939-6.456-1.384-13.707,1.972-20.035a62.259,62.259,0,0,1,4.7-7.359c2.591-3.563,5.448-7.024,8.054-10.584,9.274-12.656,15.326-28.667,6.765-41.648-2.461-3.729-6.016-7-8.021-10.9-2.558-4.98-2.361-10.51-1.547-15.881Q162.2,49,162.373,48c1.389-7.965,4-16.546,12.062-21.518,8.372-5.167,20.26-4.906,30.65-3.069,16.157,2.885,31.061,8.891,46.124,14.313S282.031,48.1,298.584,48.637c14.618.471,31.668-3.051,41.369-12.206,9.423-8.891,27.135-9.569,39.9-4.2,8.763,3.686,15.3,10.326,18.058,17.794a23.227,23.227,0,0,1,1.2,4.635,21.372,21.372,0,0,1,.215,4.371c-.038.721-.113,1.435-.215,2.141-2.133,14.738-17.487,26.363-26.821,39.528-4.561,6.43-7.781,14.155-4.645,21.089,4.783,10.566,21.416,14.323,31.46,22.186a23.635,23.635,0,0,1,4.936,5.064C408.916,156.04,407.118,165.491,399.859,171.072Z" transform="translate(-121.285 -22.035)" fill="#6c63ff" opacity="0.1"/><g transform="translate(-0.01 -0.019)"><path d="M144.824,199.812s-11.766-20.851-29.5-26.857A36.265,36.265,0,0,1,96.953,159.21a60.874,60.874,0,0,1-5.422-9.75" transform="translate(-78.833 -116.716)" fill="none" stroke="#535461" stroke-miterlimit="10" stroke-width="2"/><path d="M43.437,108.925c2.021,1.952,11.428,4,11.428,4s-2.3-9.341-4.328-11.3a5.1,5.1,0,1,0-7.1,7.315Z" transform="translate(-41.89 -80.041)" fill="#6c63ff"/><path d="M56.8,171.081c2.76.547,11.766-2.862,11.766-2.862s-7.021-6.589-9.783-7.136a5.1,5.1,0,1,0-1.982,10Z" transform="translate(-49.929 -125.292)" fill="#6c63ff"/><path d="M124.341,243.3c2.66-.921,8.7-8.407,8.7-8.407s-9.382-2.146-12.039-1.225a5.1,5.1,0,1,0,3.325,9.633Z" transform="translate(-98.095 -179.217)" fill="#6c63ff"/><path d="M196.75,283.806c2.778-.46,10-6.816,10-6.816s-8.883-3.7-11.661-3.243a5.1,5.1,0,0,0,1.66,10.06Z" transform="translate(-152.728 -209.183)" fill="#6c63ff"/><path d="M115.729,145.58c0,2.814-5.09,10.98-5.09,10.98s-5.1-8.162-5.1-10.975a5.1,5.1,0,1,1,10.193,0Z" transform="translate(-89.256 -109.953)" fill="#6c63ff"/><path d="M197.232,191.277c-.842,2.686-8.144,8.952-8.144,8.952s-2.425-9.323-1.593-12.021a5.1,5.1,0,0,1,9.72,3.046Z" transform="translate(-150.124 -143.049)" fill="#6c63ff"/><path d="M268.467,251.74c-.373,2.791-6.512,10.2-6.512,10.2s-3.965-8.768-3.581-11.559a5.1,5.1,0,1,1,10.1,1.358Z" transform="translate(-202.983 -188.535)" fill="#6c63ff"/><path d="M43.437,108.925c2.021,1.952,11.428,4,11.428,4s-2.3-9.341-4.328-11.3a5.1,5.1,0,1,0-7.1,7.315Z" transform="translate(-41.89 -80.041)" opacity="0.25"/><path d="M56.8,171.081c2.76.547,11.766-2.862,11.766-2.862s-7.021-6.589-9.783-7.136a5.1,5.1,0,1,0-1.982,10Z" transform="translate(-49.929 -125.292)" opacity="0.25"/><path d="M124.341,243.3c2.66-.921,8.7-8.407,8.7-8.407s-9.382-2.146-12.039-1.225a5.1,5.1,0,1,0,3.325,9.633Z" transform="translate(-98.095 -179.217)" opacity="0.25"/><path d="M196.75,283.806c2.778-.46,10-6.816,10-6.816s-8.883-3.7-11.661-3.243a5.1,5.1,0,0,0,1.66,10.06Z" transform="translate(-152.728 -209.183)" opacity="0.25"/><path d="M115.729,145.58c0,2.814-5.09,10.98-5.09,10.98s-5.1-8.162-5.1-10.975a5.1,5.1,0,1,1,10.193,0Z" transform="translate(-89.256 -109.953)" opacity="0.25"/><path d="M197.232,191.277c-.842,2.686-8.144,8.952-8.144,8.952s-2.425-9.323-1.593-12.021a5.1,5.1,0,0,1,9.72,3.046Z" transform="translate(-150.124 -143.049)" opacity="0.25"/><path d="M268.467,251.74c-.373,2.791-6.512,10.2-6.512,10.2s-3.965-8.768-3.581-11.559a5.1,5.1,0,1,1,10.1,1.358Z" transform="translate(-202.983 -188.535)" opacity="0.25"/><path d="M214.854,147.9s-2.3-23.833-16.083-36.51a36.254,36.254,0,0,1-11.229-20.012,60.914,60.914,0,0,1-1-11.113" transform="translate(-149.542 -65.223)" fill="none" stroke="#535461" stroke-miterlimit="10" stroke-width="2"/><path d="M151.689,28.449c1.054,2.611,8.832,8.277,8.832,8.277s1.675-9.477.624-12.088a5.1,5.1,0,0,0-9.464,3.811Z" transform="translate(-123.324 -21.441)" fill="#6c63ff"/><path d="M138.714,90.719c2.3,1.619,11.911,2.149,11.911,2.149S146.9,84,144.6,82.383a5.1,5.1,0,1,0-5.883,8.336Z" transform="translate(-112.341 -66.1)" fill="#6c63ff"/><path d="M171.393,184.133c2.814.238,11.367-4.159,11.367-4.159s-7.707-5.763-10.512-6a5.1,5.1,0,1,0-.854,10.157Z" transform="translate(-134.709 -134.94)" fill="#6c63ff"/><path d="M221.043,250.419c2.727.706,11.906-2.179,11.906-2.179s-6.622-6.983-9.346-7.689a5.1,5.1,0,1,0-2.558,9.868Z" transform="translate(-172.379 -184.386)" fill="#6c63ff"/><path d="M202.756,91.588c-1.138,2.573-9.1,7.973-9.1,7.973s-1.356-9.525-.217-12.1a5.1,5.1,0,1,1,9.321,4.129Z" transform="translate(-154.335 -68.315)" fill="#6c63ff"/><path d="M252.783,165.5c-1.857,2.115-11.073,4.885-11.073,4.885s1.555-9.494,3.415-11.61a5.1,5.1,0,1,1,7.658,6.724Z" transform="translate(-190.601 -122.359)" fill="#6c63ff"/><path d="M297.646,250.192c-1.473,2.4-10.088,6.686-10.088,6.686s-.072-9.622,1.4-12.021a5.1,5.1,0,0,1,8.7,5.335Z" transform="translate(-224.722 -185.901)" fill="#6c63ff"/></g><ellipse cx="28.527" cy="3.714" rx="28.527" ry="3.714" transform="translate(75.863 210.403)" fill="#6c63ff" opacity="0.1"/><g transform="translate(37.376 197.312)"><ellipse cx="8.666" cy="1.484" rx="8.666" ry="1.484" transform="translate(0.727 15.035)" fill="#6c63ff" opacity="0.1"/><path d="M220.877,792.94s1.4,1.839-.65,4.6-3.747,5.116-3.069,6.847c0,0,3.1-5.154,5.627-5.226S223.655,796.04,220.877,792.94Z" transform="translate(-209.602 -792.94)" fill="#6c63ff"/><path d="M221.125,792.94a2.26,2.26,0,0,1,.286.578c2.461,2.89,3.773,5.589,1.407,5.655-2.2.064-4.847,4-5.479,5a2.358,2.358,0,0,0,.074.228s3.1-5.154,5.627-5.225S223.9,796.04,221.125,792.94Z" transform="translate(-209.85 -792.94)" opacity="0.1"/><path d="M241.4,800.881c0,.647-.072,1.171-.161,1.171s-.164-.512-.164-1.171.092-.343.182-.343S241.4,800.234,241.4,800.881Z" transform="translate(-227.518 -798.538)" fill="#ffd037"/><path d="M242.629,803.826c-.568.31-1.064.5-1.108.417s.384-.394.951-.7.343-.084.386,0S243.2,803.516,242.629,803.826Z" transform="translate(-227.844 -800.711)" fill="#ffd037"/><path d="M193.939,792.94s-1.4,1.839.65,4.6,3.747,5.116,3.069,6.847c0,0-3.1-5.154-5.627-5.226S191.167,796.04,193.939,792.94Z" transform="translate(-190.087 -792.94)" fill="#6c63ff"/><path d="M193.923,792.94a2.259,2.259,0,0,0-.286.578c-2.461,2.89-3.773,5.589-1.407,5.655,2.2.064,4.847,4,5.479,5a1.818,1.818,0,0,1-.074.228s-3.1-5.154-5.627-5.226S191.151,796.04,193.923,792.94Z" transform="translate(-190.07 -792.94)" opacity="0.1"/><path d="M192.91,800.881c0,.647.072,1.171.161,1.171s.164-.512.164-1.171-.092-.343-.182-.343S192.91,800.234,192.91,800.881Z" transform="translate(-191.669 -798.538)" fill="#ffd037"/><path d="M188.4,803.826c.568.31,1.061.5,1.1.417s-.384-.394-.951-.7-.343-.084-.386,0S187.835,803.516,188.4,803.826Z" transform="translate(-188.057 -800.711)" fill="#ffd037"/><path d="M194.66,830.62s3.929-.123,5.116-.964,6.041-1.852,6.336-.5,5.9,6.724,1.468,6.76-10.305-.691-11.487-1.409S194.66,830.62,194.66,830.62Z" transform="translate(-192.971 -819.402)" fill="#a8a8a8"/><path d="M207.656,841.612c-4.435.036-10.305-.691-11.487-1.409-.9-.55-1.258-2.517-1.379-3.422h-.13s.256,3.167,1.43,3.888,7.052,1.445,11.487,1.409c1.279,0,1.724-.466,1.7-1.141C209.1,841.351,208.61,841.6,207.656,841.612Z" transform="translate(-192.971 -825.567)" opacity="0.2"/><path d="M679.543,836.169s-10.814-.652-9.538,6.926a1.844,1.844,0,0,0,.959,1.946s.021-.56,1.11-.371a4.953,4.953,0,0,0,1.174.056,2.429,2.429,0,0,0,1.437-.593h0s3.039-1.253,4.22-6.223c0,0,.875-1.084.841-1.363l-1.826.767a3.273,3.273,0,0,1,.133,2.412s-.059-2.363-.409-2.3c-.072,0-.949.455-.949.455s1.074,2.3.256,3.959c0,0,.307-2.814-.6-3.793l-1.279.749s1.253,2.368.4,4.3c0,0,.217-2.964-.673-4.121l-1.164.908s1.177,2.335.458,3.939c0,0-.092-3.45-.711-3.711a6.7,6.7,0,0,0-1.174,1.279s.806,1.693.307,2.589c0,0-.307-2.3-.56-2.3a7.6,7.6,0,0,0-1.12,2.558,5.569,5.569,0,0,1,.875-2.714,3.054,3.054,0,0,0-1.553.806s.159-1.077,1.79-1.171a7.005,7.005,0,0,1,1.064-1.225,6.659,6.659,0,0,0-2.629.3,2.931,2.931,0,0,1,2.929-.555l1.148-.936a9.438,9.438,0,0,0-3.069.031s1.054-.9,3.379-.256l1.253-.747a11.413,11.413,0,0,0-2.934-.256,4.493,4.493,0,0,1,3.3.051l.9-.4s-1.348-.256-1.742-.3-.414-.151-.414-.151a4.67,4.67,0,0,1,2.53.281A11.381,11.381,0,0,0,679.543,836.169Z" transform="translate(-546.656 -825.102)" fill="#6c63ff"/><ellipse cx="7.653" cy="1.294" rx="7.653" ry="1.294" transform="translate(117.786 19.306)" fill="#6c63ff" opacity="0.1"/><path d="M617.726,837.767s-6.1-.368-5.371,3.906a1.044,1.044,0,0,0,.542,1.1s0-.317.627-.21a2.986,2.986,0,0,0,.66.033,1.4,1.4,0,0,0,.811-.335h0s1.714-.709,2.381-3.509c0,0,.491-.611.473-.767l-1.023.437a1.854,1.854,0,0,1,.074,1.361s-.033-1.333-.23-1.3c-.041,0-.535.256-.535.256a3.034,3.034,0,0,1,.148,2.233s.171-1.594-.338-2.141l-.724.425a3.2,3.2,0,0,1,.228,2.425,4.542,4.542,0,0,0-.381-2.322l-.655.512a3.126,3.126,0,0,1,.256,2.22s-.054-1.946-.4-2.092a4,4,0,0,0-.662.714s.455.957.174,1.461c0,0-.174-1.3-.315-1.3a4.3,4.3,0,0,0-.632,1.448,3.108,3.108,0,0,1,.491-1.535,1.719,1.719,0,0,0-.875.453s.09-.609,1.023-.66a3.873,3.873,0,0,1,.6-.691,3.748,3.748,0,0,0-1.484.169,1.666,1.666,0,0,1,1.652-.312l.647-.529a5.332,5.332,0,0,0-1.729.018,2.088,2.088,0,0,1,1.906-.138l.7-.419a6.319,6.319,0,0,0-1.652-.143,2.543,2.543,0,0,1,1.859.028l.512-.225s-.767-.151-.98-.174-.235-.084-.235-.084a2.639,2.639,0,0,1,1.427.159A6.025,6.025,0,0,0,617.726,837.767Z" transform="translate(-503.785 -826.295)" fill="#6c63ff"/><ellipse cx="4.315" cy="0.729" rx="4.315" ry="0.729" transform="translate(105.427 16.119)" fill="#6c63ff" opacity="0.1"/><path d="M659.8,802.352s-7.359-.445-6.492,4.714a1.259,1.259,0,0,0,.655,1.325s0-.381.755-.256a3.631,3.631,0,0,0,.8.038,1.685,1.685,0,0,0,.98-.4h0s2.069-.854,2.872-4.238c0,0,.6-.737.573-.926l-1.243.529a2.236,2.236,0,0,1,.092,1.642s-.041-1.609-.281-1.57c-.046,0-.645.31-.645.31a3.667,3.667,0,0,1,.179,2.7s.21-1.923-.407-2.583l-.875.512a3.861,3.861,0,0,1,.276,2.929s.148-2.018-.46-2.814l-.793.616a3.775,3.775,0,0,1,.315,2.681s-.064-2.348-.486-2.527a4.814,4.814,0,0,0-.8.862s.55,1.154.207,1.762c0,0-.207-1.563-.379-1.57a5.134,5.134,0,0,0-.767,1.747,3.762,3.762,0,0,1,.593-1.847,2.079,2.079,0,0,0-1.056.547s.107-.734,1.228-.8a4.81,4.81,0,0,1,.724-.834,4.554,4.554,0,0,0-1.79.207,2.007,2.007,0,0,1,2-.379l.783-.637a6.434,6.434,0,0,0-2.09.021,2.546,2.546,0,0,1,2.3-.166l.852-.512a8.392,8.392,0,0,0-2-.171,3.061,3.061,0,0,1,2.246.033l.609-.271s-.918-.182-1.187-.21-.281-.1-.281-.1a3.179,3.179,0,0,1,1.721.192A7.5,7.5,0,0,0,659.8,802.352Z" transform="translate(-534.259 -799.937)" fill="#6c63ff"/><ellipse cx="5.21" cy="0.88" rx="5.21" ry="0.88" transform="translate(115.269 8.024)" fill="#6c63ff" opacity="0.1"/></g><g transform="translate(34.97 24.423)"><path d="M421.983,242.108V117H178.65V234.931a48.444,48.444,0,0,0,10.743,6.568q2.88,1.327,5.883,2.427h223.8Z" transform="translate(-178.65 -117)" fill="url(#a)"/><path d="M423.06,252.578V131H180.73V245.613a48.935,48.935,0,0,0,10.691,6.394q2.87,1.279,5.862,2.358H420.162Z" transform="translate(-180.198 -127.419)" fill="#fff"/><rect width="242.328" height="6.43" transform="translate(0.535 0.356)" fill="#5a5773"/></g><g transform="translate(38.681 26.331)"><circle cx="1.663" cy="1.663" r="1.663" fill="#fff"/><circle cx="1.663" cy="1.663" r="1.663" transform="translate(4.476)" fill="#fff"/><circle cx="1.663" cy="1.663" r="1.663" transform="translate(8.952)" fill="#fff"/></g><g transform="translate(42.006 45.34)"><rect width="40.029" height="25.153" transform="translate(55.424)" fill="#6c63ff"/><rect width="40.029" height="25.153" fill="#5a5773" opacity="0.2"/><rect width="40.029" height="25.153" transform="translate(110.848)" fill="#5a5773" opacity="0.2"/><rect width="40.029" height="25.153" transform="translate(0 35.96)" fill="#5a5773" opacity="0.2"/><rect width="40.029" height="25.153" transform="translate(55.424 35.96)" fill="#5a5773" opacity="0.2"/><rect width="40.029" height="25.153" transform="translate(110.848 35.96)" fill="#5a5773" opacity="0.2"/><rect width="40.029" height="25.153" transform="translate(0 71.917)" fill="#5a5773" opacity="0.2"/><rect width="40.029" height="25.153" transform="translate(55.424 71.917)" fill="#5a5773" opacity="0.2"/><rect width="40.029" height="25.153" transform="translate(110.848 71.917)" fill="#5a5773" opacity="0.2"/></g><g transform="translate(88.133 51.621)"><path d="M428.67,280.085s-7.19-13.142-5.978-15.28a29.121,29.121,0,0,0,2.105-5.233s2.655-1.816,2.655-2.558,2.1-2.458,3.21-3.2.552-4.274,0-4.7a9.744,9.744,0,0,1-1.43-1.923s.767-2.136,0-2.778.113-1.279,0-1.923a25.815,25.815,0,0,1,0-2.99,4.82,4.82,0,0,0-2.829-2.046l-.082-.338-.473-1.993s2.3-4.412-1.432-6.722a6.241,6.241,0,0,0-.826-.435,2.865,2.865,0,0,0-.02-.289,18.075,18.075,0,0,0-.542-3.379c-.194-.619-.448-1.036-.767-.941a.511.511,0,0,0-.21.12,2.332,2.332,0,0,0-.4.468h0a.1.1,0,0,1-.018.028,8.021,8.021,0,0,0-.88,2.443,14.108,14.108,0,0,0-.256,1.535h0a8.441,8.441,0,0,0-.427.949c-.453,1.174-.982,3.207-.018,4.711.818,1.279,1.921,3.036,2.721,4.315l.026.041.049.079-.084.054v.2l.074,1.077.619,9.305a3.952,3.952,0,0,0-.568-.12,5.157,5.157,0,0,0-.826-.054c-.54-2.12-2.021-4.092-2.3-6.307a5.854,5.854,0,0,1-.043-.668c.023-1.394.371-2.793.343-4.184,0-.256,0-.512-.026-.767h0a2.047,2.047,0,0,0-.02-.212,6.289,6.289,0,0,0-3.42-4.765c-.642-.32-1.338-.532-1.962-.882-1.443-.808-2.366-2.266-3.676-3.266a4.069,4.069,0,0,0-3.517-.767,16.24,16.24,0,0,0-1.711.353h0a15.436,15.436,0,0,0-3.916,1.627c-.166.1-.333.2-.491.32a2.164,2.164,0,0,0-.79.923,2.42,2.42,0,0,0-.123.995c0,.243,0,.491.015.734-.072,4.092-4.481,7.259-4.844,11.254,0,.095-.015.189-.02.284v.437h0v.32c.064,1.752.975,3.384,1.141,5.128.015.156.023.309.026.466a7.736,7.736,0,0,1-.453,2.348,6.872,6.872,0,0,0-1.588.645c-1.34.862-3.76,2.351-4.642,5.2a7.612,7.612,0,0,0-.335,2.282,47.64,47.64,0,0,1-.747,8.146,15.227,15.227,0,0,1-.471,2,.47.47,0,0,0-.015.2l-.532,6.906-.095,1.215-.133,1.729s.038.1.095.281a8.142,8.142,0,0,1,.21.8,4.292,4.292,0,0,1,.069,1.79,1.233,1.233,0,0,1-.373.657.275.275,0,0,0-.043.049,5.312,5.312,0,0,0-.4,1.76c-.046.358-.09.767-.133,1.192-.256,2.724-.414,6.8-.512,10.172-.092,3.325-.125,5.952-.125,5.952a6.789,6.789,0,0,0,1.374.68c-.036.09-.074.182-.11.279a13.438,13.438,0,0,0-.834,3.514,6.128,6.128,0,0,0,4,6.745,5.644,5.644,0,0,0,.688.235,2.182,2.182,0,0,0,1.75-.107c0,.151.018.3.026.443.036.624.066,1.194.082,1.673.11,2.993.852,8.226.852,8.226a10.891,10.891,0,0,1,.033,2.778,15.085,15.085,0,0,0,0,3.2s.767,1.279,0,1.923-.995,3.837-.767,4.274a.144.144,0,0,1,.013.049c.169,1.061-.785,16.833-.785,16.833s-.9,2.415-1.622,4.921c-.7,2.44-1.228,4.967-.578,5.44a5.429,5.429,0,0,0,2.023.547c0,.1-.015.21-.026.317a9.113,9.113,0,0,1-.448,2.65c-.3.435-.624,3.806-.78,5.627l-.015.2a18.858,18.858,0,0,0-.824,2.389s-2.448,6.139-1.619,7.732a1.307,1.307,0,0,0,.3.376h0a.691.691,0,0,0,.079.072c1.179.944,4.133,1.141,5.205,1.184l-.041,1.519v.056h1.394v-.038c0-.192.031-1.072.077-2.248,0-.21.015-.43.026-.655,0-.176.018-.356.026-.54a9.463,9.463,0,0,0,.606-3.415,14.983,14.983,0,0,1,.537-3.959,11,11,0,0,1,.708-1.931,8.816,8.816,0,0,0-.171-3.931,2.839,2.839,0,0,0-.512-.885v-.512a14.756,14.756,0,0,1,.327-3.279.367.367,0,0,1,0-.051c.02-.09.043-.174.066-.256l.015-.056.453.015c1.389.038,2.409.038,2.409.038a51.966,51.966,0,0,0,1-8.118v-.333a31.621,31.621,0,0,1,.67-5.758l.893-8.658a4.553,4.553,0,0,1,0-2.558c.274-.66.839-1.885,1.233-2.729.184-.391.33-.7.391-.831l.036-.072a1.657,1.657,0,0,1-.394-.2h0c-.361-.24-.683-.711.4-1.4,1.66-1.069,1.108-3.739,1.108-3.739a1.92,1.92,0,0,1,.087-1.816c.576-.854,0-4.059,0-4.059a13.422,13.422,0,0,0,1.136-2.673c.412-1.279,1.453-7.533,1.944-10.548.161-.99.256-1.629.256-1.629l.015.156.015.169h0l.138,1.425.018.189.256,2.693a82.9,82.9,0,0,1,.192,9.855v.051a3.279,3.279,0,0,1-.187.841c-.588,1.33-.481,6.614-.45,7.783v.235a4.706,4.706,0,0,0-.312,1.806h0a1.159,1.159,0,0,0,.2.537,1.361,1.361,0,0,1,.2.831v.026a3.013,3.013,0,0,1-.031.368,7.024,7.024,0,0,1-.389,1.448,5.3,5.3,0,0,0-.368,2.376h0a.752.752,0,0,0,.146.289.683.683,0,0,1,.084.307.11.11,0,0,0,0,.028c.207,1.721-.327,9.32-.645,13.479-.128,1.642-.22,2.747-.22,2.747l-.877,9.08.087.061c.1.072.286.194.537.343v.02l-.038.274c-.125.875-.294,1.893-.478,2.67-.015.059-.028.115-.043.169a2.447,2.447,0,0,0-.939.376c-1.862,3.307-1.038,5.929,0,6.691a2.687,2.687,0,0,1,.627,1.563l.256,3.3v.379a.984.984,0,0,0,.049.3l.079,1,.107,1.391h.849v-1.686h.046c1.34.046,3.5.1,4.443.028h.026a1.656,1.656,0,0,0,.256-.028.642.642,0,0,0,.148-.041c.5-.24,1.742-3.765.622-4.566s-1.368-3.069-1.368-3.069c-.1-.3-.194-.578-.294-.847v-.174a14.067,14.067,0,0,1,.133-2.931,22.3,22.3,0,0,0,.292-3.5v-.325a4.363,4.363,0,0,0,.57-.187l.041-.018a4.02,4.02,0,0,0,.954-.565l3.131-13.873.33-1.614,1.88-9.18s-.662-3.2,0-3.737c.243-.194.31-1.023.294-1.982-.026-1.678-.294-3.788-.294-3.788s.885-1.389,1.33-2.243,0-3.1,0-3.1l.872-5.136a48.536,48.536,0,0,1,3.43-11.218c1.79-3.773.65-13.96-.512-19.383-.031-.141-.061-.279-.092-.412v-.02c.547-.271,1.218-.6,1.934-.941l.271-.128c.908-.427,1.87-.867,2.732-1.233l.056-.023a19.083,19.083,0,0,1,1.9-.711,3.188,3.188,0,0,1,.583-.12C433.317,288.2,428.67,280.085,428.67,280.085Zm-34.609,17.38h.46c-.054.1-.1.2-.156.3-.031.061-.061.12-.09.182-.169.35-.325.708-.453,1.059.051-.379.115-.79.187-1.23C394.028,297.682,394.046,297.567,394.061,297.465Zm-1.243,6.668a.187.187,0,0,0,0-.036l-.038-.12c-.028-.082-.054-.164-.079-.256q.238-.072.483-.161h.033v.084c-.013.12-.028.24-.043.358h0a.258.258,0,0,1,0,.046,2.489,2.489,0,0,1-.033.281c-.023.184-.046.363-.067.535-.049-.161-.1-.32-.148-.476A1.211,1.211,0,0,1,392.818,304.133Z" transform="translate(-386.5 -223.338)" fill="url(#b)"/><path d="M520.913,240.592l-2.762.977-1-1.663c-.767-1.279-1.831-3.028-2.617-4.3-1.386-2.236.427-5.642.427-5.642s.327-3.42,1.494-4.474,1.491,4.474,1.491,4.474c4.683,2.128,2.174,7.134,2.174,7.134l.455,1.985Z" transform="translate(-481.395 -224.841)" fill="#efb7b9"/><path d="M530.045,280.261l-2.762.977-1-1.663v-.146a4.811,4.811,0,0,1,3.43-.678Z" transform="translate(-490.528 -264.51)" opacity="0.1"/><path d="M523.56,292.39l1.384-1.171-.693-10.543a4.38,4.38,0,0,1,6.231,1.384,26.907,26.907,0,0,0,0,2.982c.107.639-.744,1.279,0,1.916s0,2.77,0,2.77a9.616,9.616,0,0,0,1.374,1.916c.532.425,1.067,3.941,0,4.686s-3.067,2.45-3.067,3.195-2.558,2.558-2.558,2.558l-2.246-2.97Z" transform="translate(-488.503 -265.436)" fill="#ff6484"/><path d="M395.269,539.414c-5.162-2.189-4.016-7.538-3.044-10.231a13.934,13.934,0,0,1,.683-1.6l2.9-1.757s.591,1.507,1.223,3.527C398.492,534.058,400.178,541.5,395.269,539.414Z" transform="translate(-390.138 -448.46)" fill="#efb7b9"/><path d="M414.638,765.705a8.7,8.7,0,0,0-.767,2.154,15.553,15.553,0,0,0-.333,3.665c.02.852.092,1.409.092,1.409l-5.75,3.954s.033-.463.09-1.143c.148-1.811.458-5.172.749-5.607a9.333,9.333,0,0,0,.432-2.64c.09-1.125.125-2.113.125-2.113S416.2,762.792,414.638,765.705Z" transform="translate(-402.412 -625.951)" fill="#efb7b9"/><path d="M471,779.309s0,1.1-.041,2.379a24.355,24.355,0,0,1-.279,3.491,14.372,14.372,0,0,0-.13,2.921c.038,1.279.13,2.43.13,2.43s-5.87-5.55-5.272-5.99a2.719,2.719,0,0,0,.466-1.22c.179-.767.34-1.79.46-2.66.143-1.036.233-1.87.233-1.87Z" transform="translate(-445.191 -636.719)" fill="#efb7b9"/><path d="M418.374,765.705a8.7,8.7,0,0,0-.767,2.154,46.98,46.98,0,0,1-4.706-.361c.087-1.1.125-2.113.125-2.113S419.931,762.792,418.374,765.705Z" transform="translate(-406.148 -625.951)" opacity="0.1"/><path d="M473.815,779.324s0,1.1-.041,2.379a6.4,6.4,0,0,1-4.624-1.023c.143-1.036.233-1.87.233-1.87Z" transform="translate(-448.01 -636.733)" opacity="0.1"/><path d="M437.559,501.644a49.677,49.677,0,0,0-3.3,11.183l-.852,5.116s.427,2.235,0,3.087-1.279,2.238-1.279,2.238.639,5.218,0,5.75,0,3.727,0,3.727L430,543.486l-2.982,13.843c-2.875,2.345-6.7-.637-6.7-.637l.844-9.052s1.279-15.858.747-16.508.212-2.663.212-2.663.747-1.918.215-2.663.1-2.343.1-2.343-.212-6.5.427-7.988,0-10.714,0-10.714l-.256-2.872-.148-1.591-.013-.156s-.1.637-.256,1.624c-.471,3.005-1.473,9.234-1.87,10.515a13.692,13.692,0,0,1-1.092,2.663s.552,3.195,0,4.046a1.981,1.981,0,0,0-.084,1.811s.532,2.663-1.067,3.727,0,1.6,0,1.6-1.171,2.558-1.6,3.619a4.735,4.735,0,0,0,0,2.558l-.852,8.625a31.2,31.2,0,0,0-.639,6.07,53.335,53.335,0,0,1-.959,8.093s-8.2,0-9.464-.959,2.11-10.315,2.11-10.315.959-16.4.744-16.825,0-3.622.747-4.259,0-1.918,0-1.918a15.707,15.707,0,0,1,0-3.195,11.333,11.333,0,0,0-.033-2.77s-.714-5.218-.818-8.2-.639-9.689-.639-9.689.558-4.149.642-6.123a6.954,6.954,0,0,1,.767-2.489,22.2,22.2,0,0,1,1.586-2.783s25.232-7.458,26.291-6.717c.281.2.691,1.535,1.095,3.471C438.183,487.73,439.283,497.884,437.559,501.644Z" transform="translate(-399.734 -413.457)" fill="#444053"/><circle cx="7.348" cy="7.348" r="7.348" transform="translate(14.93 8.403)" fill="#a1616a"/><path d="M448.114,482.325c-.847.435-1.414.734-1.414.734s-11.927,5.645-15.318,5.325c-2.624-.256-9.323-.11-12.241-.038a22.207,22.207,0,0,1,1.586-2.783s25.235-7.456,26.294-6.714C447.3,479.051,447.71,480.384,448.114,482.325Z" transform="translate(-410.792 -413.457)" opacity="0.1"/><path d="M411.738,325.337s-6.806,1.074-8.412,2.128-4.788,3.09-4.788,7.456a42.3,42.3,0,0,1-1.171,10.116c-.427,1.276,6.709,11.607,6.709,11.607L401.518,372.3s10.231-.32,13.638,0,15.329-5.325,15.329-5.325,7.029-3.727,8.52-3.837-2.982-8.2-2.982-8.2-6.924-13.1-5.752-15.226a29.427,29.427,0,0,0,2.031-5.218l-1.279-10.86a4.178,4.178,0,0,0-3.514.532c-1.6,1.171-7.029.532-7.029.532Z" transform="translate(-394.573 -297.85)" fill="#ff6484"/><path d="M395.111,389.57l-2.67.744-.739,10.021s.959,2.663,0,3.514-1.171,19.063-1.171,19.063a6.964,6.964,0,0,0,6.709.532s-.532-2.023,1.067-9.372A58.555,58.555,0,0,0,399.9,403s0-9.159.747-10.651,0-5.218,0-5.218-1.491-2.023-1.386-2.768S395.111,389.57,395.111,389.57Z" transform="translate(-389.499 -343.128)" opacity="0.1"/><path d="M399.461,529.387a6.8,6.8,0,0,1-4.8-.174,13.94,13.94,0,0,1,.683-1.6l2.9-1.757S398.839,527.367,399.461,529.387Z" transform="translate(-392.573 -448.482)" opacity="0.1"/><path d="M394.488,389.541l-2.663.744-.744,10.021s.959,2.663,0,3.514-1.171,19.063-1.171,19.063a6.956,6.956,0,0,0,6.709.522s-.532-2.023,1.064-9.372a59.028,59.028,0,0,0,1.6-11.075s0-9.159.744-10.651,0-5.218,0-5.218-1.491-2.023-1.384-2.767S394.488,389.541,394.488,389.541Z" transform="translate(-389.038 -343.099)" fill="#ff6484"/><path d="M498.593,411.15s-1.384,11.927-5.433,14.165C493.16,425.315,502.212,422.76,498.593,411.15Z" transform="translate(-465.879 -363.112)" opacity="0.1"/><path d="M434.88,415.32s5,2.448,3.837,4.151S434.88,415.32,434.88,415.32Z" transform="translate(-422.506 -366.215)" opacity="0.1"/><path d="M434.88,434.47s3.195,3.3,2.558,4.474S434.88,434.47,434.88,434.47Z" transform="translate(-422.506 -380.467)" opacity="0.1"/><path d="M535.63,327.47A11.32,11.32,0,0,1,537,330.984C537.124,332.371,535.63,327.47,535.63,327.47Z" transform="translate(-497.486 -300.835)" opacity="0.1"/><path d="M535.63,315.539s.629-.535,2.235,0S535.63,315.539,535.63,315.539Z" transform="translate(-497.486 -291.779)" opacity="0.1"/><path d="M484.59,552.956a14.809,14.809,0,0,1-7.788-1l-1.343,3.438-.148-1.591c.22-1.335.647-2.765,1.491-3.126A12.925,12.925,0,0,0,484.59,552.956Z" transform="translate(-452.595 -466.954)" opacity="0.1"/><path d="M426.18,577.07s6.55,1.358,8.387,1.118Z" transform="translate(-416.031 -486.594)" opacity="0.1"/><path d="M428.84,583.749a13.531,13.531,0,0,1,4.192.44Z" transform="translate(-418.01 -491.556)" opacity="0.1"/><path d="M430.09,588.31a25.064,25.064,0,0,0,3.872.512Z" transform="translate(-418.941 -494.959)" opacity="0.1"/><path d="M429.46,643.369c.12-.079,5.591-1.358,6.272-.44Z" transform="translate(-418.472 -535.361)" opacity="0.1"/><path d="M429.46,651.446s4.752-.56,4.873,0S429.46,651.446,429.46,651.446Z" transform="translate(-418.472 -541.76)" opacity="0.1"/><path d="M429.46,655.676s5.072-1.049,5.671-.793S429.46,655.676,429.46,655.676Z" transform="translate(-418.472 -544.474)" opacity="0.1"/><path d="M413.67,791.792l-5.75,3.954s.033-.463.09-1.143a15.5,15.5,0,0,1,2.944-4.806,2.357,2.357,0,0,1,2.624.586C413.6,791.232,413.67,791.792,413.67,791.792Z" transform="translate(-402.441 -644.807)" opacity="0.1"/><path d="M407.109,795.8a14.27,14.27,0,0,0-1.2,5.883,9.124,9.124,0,0,1-1.217,4.734,4.669,4.669,0,0,1-.4.578s-4-.033-5.394-1.192a1.384,1.384,0,0,1-.376-.46c-.8-1.6,1.558-7.707,1.558-7.707a16.97,16.97,0,0,1,3.752-7.228C408.306,789.252,407.109,795.8,407.109,795.8Z" transform="translate(-395.32 -645.264)" fill="#444053"/><path d="M406.268,827.92a4.668,4.668,0,0,1-.4.578s-4-.033-5.394-1.192c.688-2.276,2.883-9.164,3.911-7.993C405.348,820.413,406.02,825.7,406.268,827.92Z" transform="translate(-396.897 -666.778)" opacity="0.1"/><path d="M420.189,819.733l-.279,10.318h1.34s.217-9.052.816-10.318S420.189,819.733,420.189,819.733Z" transform="translate(-411.365 -666.77)" fill="#444053"/><path d="M470.677,803.6s-5.87-5.55-5.272-5.99a2.719,2.719,0,0,0,.466-1.22c1.128-.2,3.069.274,4.676,4.78C470.585,802.454,470.677,803.6,470.677,803.6Z" transform="translate(-445.191 -649.793)" opacity="0.1"/><path d="M467.184,810.268a.6.6,0,0,1-.141.041,41.7,41.7,0,0,1-4.66,0,1.008,1.008,0,0,1-.974-1.005c0-.384,0-.852-.031-1.351-.066-1.576-.256-3.45-.821-3.872-1-.767-1.79-3.371,0-6.668,0,0,3.433-2.622,5.908,5.259,0,0,.24,2.248,1.317,3.046S467.664,810.04,467.184,810.268Z" transform="translate(-440.821 -650.266)" fill="#444053"/><path d="M472.515,829.62a41.7,41.7,0,0,1-4.66,0,1.008,1.008,0,0,1-.975-1.005c0-.384,0-.852-.031-1.35.432-1.908,1.054-3.872,1.854-4.32C468.71,822.942,471.132,822.668,472.515,829.62Z" transform="translate(-446.298 -669.578)" opacity="0.1"/><path d="M423.46,798.452l.645,8.586h.818V797.72Z" transform="translate(-403.29 -645.318)" fill="#444053"/><path d="M430.774,239.083a14.687,14.687,0,0,0-6.553,2.105,2.723,2.723,0,0,0-1.235,1.241,4.112,4.112,0,0,0-.1,1.535c.069,4.4-4.842,7.737-4.688,12.139.061,1.747.939,3.374,1.1,5.116.269,2.906-1.45,5.578-3.1,7.985a6.614,6.614,0,0,0,4.668-1.547,35.4,35.4,0,0,1,.652,17.84h2.356a1.791,1.791,0,0,1,.688.084,1.729,1.729,0,0,1,.545.407c2.2,2.192,3.678,5.433,2.837,8.425l5.013-1.88a14.892,14.892,0,0,0,3.461-1.65,5,5,0,0,0,2.138-3.082c.136-.767.092-1.683.724-2.128a3.938,3.938,0,0,1,.987-.366c1.376-.486,1.985-2.077,2.266-3.509a20.206,20.206,0,0,0,.32-5.338c-.223-2.993-1.108-6.031-.379-8.952.412-1.64,1.327-3.167,1.4-4.86.12-2.791-2.062-5.195-2.386-7.97-.228-1.934.471-3.89.243-5.824a6.256,6.256,0,0,0-3.292-4.75c-.616-.317-1.279-.529-1.888-.88-1.389-.806-2.276-2.256-3.537-3.253s-3.361-1.374-4.31-.077Z" transform="translate(-408.603 -235.042)" opacity="0.1"/><path d="M430.774,237.819a14.687,14.687,0,0,0-6.553,2.105,2.723,2.723,0,0,0-1.235,1.241,4.112,4.112,0,0,0-.1,1.535c.069,4.4-4.842,7.737-4.688,12.142.061,1.744.939,3.371,1.1,5.116.269,2.906-1.45,5.578-3.1,7.988a6.65,6.65,0,0,0,4.668-1.547,35.384,35.384,0,0,1,.652,17.835h2.356a1.791,1.791,0,0,1,.688.087,1.683,1.683,0,0,1,.545.4c2.2,2.195,3.678,5.433,2.837,8.425l5.013-1.88a14.894,14.894,0,0,0,3.461-1.65,5,5,0,0,0,2.138-3.082c.136-.767.092-1.683.724-2.128a3.938,3.938,0,0,1,.987-.366c1.376-.486,1.985-2.077,2.266-3.509a20.206,20.206,0,0,0,.327-5.343c-.223-2.993-1.108-6.031-.379-8.952.412-1.64,1.327-3.167,1.4-4.86.12-2.791-2.062-5.195-2.386-7.97-.228-1.934.471-3.888.243-5.824a6.261,6.261,0,0,0-3.292-4.75c-.616-.317-1.279-.529-1.888-.877-1.389-.808-2.276-2.259-3.537-3.256s-3.361-1.374-4.31-.077Z" transform="translate(-408.603 -234.096)" fill="#925978"/><g transform="translate(7.597 7.538)" opacity="0.1"><path d="M442.275,252.81a2.842,2.842,0,0,0-.015.3C442.268,253.01,442.273,252.91,442.275,252.81Z" transform="translate(-435.594 -252.81)"/><path d="M514.936,281.007a27.225,27.225,0,0,0,.281-4.067A29.418,29.418,0,0,0,514.936,281.007Z" transform="translate(-489.666 -270.768)"/><path d="M425.1,305.653c-.148-1.586-.888-3.069-1.061-4.653a5.83,5.83,0,0,0-.038.875c.061,1.727.918,3.34,1.092,5.059A6.9,6.9,0,0,0,425.1,305.653Z" transform="translate(-422.004 -288.674)"/><path d="M518.187,330.938a10.968,10.968,0,0,0-.256,3.177,9.633,9.633,0,0,1,.256-1.844c.412-1.64,1.328-3.167,1.4-4.86a5.273,5.273,0,0,0-.041-.9A42.424,42.424,0,0,1,518.187,330.938Z" transform="translate(-491.894 -307.659)"/><path d="M420.868,344.36a6.65,6.65,0,0,1-3.775,1.535c-.292.455-.593.9-.893,1.34a6.65,6.65,0,0,0,4.668-1.547,35.3,35.3,0,0,1,1.489,9.579A35.378,35.378,0,0,0,420.868,344.36Z" transform="translate(-416.2 -320.944)"/><path d="M476.74,390.317c-.281,1.432-.89,3.023-2.266,3.507a3.837,3.837,0,0,0-.987.368c-.632.445-.588,1.366-.724,2.128a4.934,4.934,0,0,1-2.138,3.069,15.376,15.376,0,0,1-3.461,1.652l-4.783,1.79a6.6,6.6,0,0,1-.23,1.42l5.013-1.88a14.892,14.892,0,0,0,3.461-1.65,5,5,0,0,0,2.138-3.082c.136-.767.092-1.683.724-2.128a3.938,3.938,0,0,1,.987-.366c1.376-.486,1.985-2.077,2.266-3.509a20.059,20.059,0,0,0,.361-4.527A20.025,20.025,0,0,1,476.74,390.317Z" transform="translate(-450.397 -352.759)"/><path d="M440.648,414.552a1.69,1.69,0,0,0-.545-.407,1.828,1.828,0,0,0-.688-.087h-2.09c-.082.445-.169.89-.256,1.333h2.356a1.791,1.791,0,0,1,.688.087,1.683,1.683,0,0,1,.545.4,10.133,10.133,0,0,1,3.041,5.99A9.542,9.542,0,0,0,440.648,414.552Z" transform="translate(-431.732 -372.812)"/></g><path d="M405.37,449.048s1.9-.8,2.328,0S405.37,449.048,405.37,449.048Z" transform="translate(-400.544 -391.053)" opacity="0.1"/><path d="M408,454.4s1.9-.8,2.33,0S408,454.4,408,454.4Z" transform="translate(-402.501 -395.034)" opacity="0.1"/></g><g transform="translate(183.502 2.186)"><path d="M843.86,51.643s-9.732-.586-8.584,6.233a1.663,1.663,0,0,0,.865,1.752s.018-.512,1-.335a4.479,4.479,0,0,0,1.056.051,2.192,2.192,0,0,0,1.289-.535h0s2.734-1.128,3.8-5.6c0,0,.788-.977.767-1.228l-1.642.7a2.943,2.943,0,0,1,.118,2.169s-.051-2.128-.368-2.077c-.064,0-.852.409-.852.409s.964,2.064.235,3.566c0,0,.276-2.542-.537-3.415l-1.161.688a5.1,5.1,0,0,1,.363,3.87s.2-2.668-.606-3.706l-1.049.816s1.062,2.09.422,3.532c0,0-.084-3.108-.642-3.34a6.327,6.327,0,0,0-1.054,1.141s.724,1.535.274,2.328c0,0-.276-2.067-.512-2.077a6.886,6.886,0,0,0-1.008,2.3,4.99,4.99,0,0,1,.785-2.443,2.729,2.729,0,0,0-1.4.726s.141-.969,1.622-1.056a6.381,6.381,0,0,1,.957-1.1,6,6,0,0,0-2.366.274,2.673,2.673,0,0,1,2.637-.512l1.023-.844a8.826,8.826,0,0,0-2.762.028s.946-.808,3.041-.22l1.125-.673a10.1,10.1,0,0,0-2.637-.228,4.046,4.046,0,0,1,2.967.046l.806-.361s-1.212-.238-1.565-.276-.373-.136-.373-.136a4.184,4.184,0,0,1,2.274.256A10.338,10.338,0,0,0,843.86,51.643Z" transform="translate(-815.789 -46.113)" fill="#6c63ff" opacity="0.1"/><path d="M800.859,30.06s-8.185,5.3-3.22,10.108a1.664,1.664,0,0,0,1.734.9s-.286-.419.606-.862a4.438,4.438,0,0,0,.882-.586,2.2,2.2,0,0,0,.724-1.194h0s1.535-2.532-.256-6.763c0,0,.056-1.253-.118-1.437l-.905,1.535a2.943,2.943,0,0,1,1.381,1.675s-1.3-1.68-1.535-1.453c-.046.046-.445.836-.445.836s2,1.09,2.3,2.729c0,0-1.279-2.212-2.458-2.43l-.532,1.228a5.105,5.105,0,0,1,2.589,2.9s-1.425-2.266-2.686-2.627l-.358,1.279s2.1,1.064,2.432,2.609c0,0-1.908-2.45-2.5-2.3a6.48,6.48,0,0,0-.174,1.535s1.489.8,1.6,1.714c0,0-1.448-1.5-1.634-1.376a6.9,6.9,0,0,0,.555,2.458,5,5,0,0,1-.813-2.432,2.737,2.737,0,0,0-.7,1.412s-.46-.865.683-1.811a7,7,0,0,1,.115-1.455,5.92,5.92,0,0,0-1.744,1.622s.092-1.2,1.829-1.964l.332-1.292a8.536,8.536,0,0,0-2.207,1.66s.284-1.212,2.317-1.98l.512-1.21a10.408,10.408,0,0,0-2.261,1.381,4.069,4.069,0,0,1,2.42-1.721l.435-.767s-1.118.527-1.425.706-.381.113-.381.113a4.192,4.192,0,0,1,1.982-1.143A10.173,10.173,0,0,0,800.859,30.06Z" transform="translate(-786.659 -30.06)" fill="#6c63ff" opacity="0.1"/><path d="M761.106,54.123s-4.893,8.441,1.714,10.469a1.649,1.649,0,0,0,1.954,0s-.442-.24.151-1.041a4.478,4.478,0,0,0,.512-.921,2.21,2.21,0,0,0,.1-1.394h0s.217-2.952-3.3-5.911c0,0-.512-1.141-.767-1.225l-.11,1.79a2.949,2.949,0,0,1,1.992.867s-1.923-.908-2.021-.6c-.021.061-.018.946-.018.946s2.3.069,3.323,1.394c0,0-2.148-1.389-3.292-1.051l.082,1.335a5.1,5.1,0,0,1,3.622,1.414s-2.3-1.374-3.581-1.123l.256,1.3s2.353,0,3.351,1.223c0,0-2.814-1.32-3.271-.928a6.322,6.322,0,0,0,.545,1.455s1.688.036,2.2.8c0,0-1.972-.683-2.082-.483a6.894,6.894,0,0,0,1.611,1.936,5,5,0,0,1-1.829-1.79,2.739,2.739,0,0,0,.021,1.573s-.8-.56-.215-1.923a6.427,6.427,0,0,1-.555-1.348,6.077,6.077,0,0,0-.818,2.235,2.651,2.651,0,0,1,.737-2.578l-.289-1.3a8.54,8.54,0,0,0-1.215,2.481s-.3-1.21,1.169-2.814l-.1-1.307a10.211,10.211,0,0,0-1.386,2.256,4.036,4.036,0,0,1,1.374-2.632l.038-.882s-.767.975-.949,1.279-.289.261-.289.261a4.21,4.21,0,0,1,1.248-1.921A10.419,10.419,0,0,0,761.106,54.123Z" transform="translate(-759.362 -47.951)" fill="#6c63ff" opacity="0.1"/></g><path d="M899.292,346.8a3.66,3.66,0,1,0,3.66,3.66A3.66,3.66,0,0,0,899.292,346.8Zm-10.7-28.721v3.66h3.66l6.589,13.346-2.755,4.484a3.519,3.519,0,0,0-.458,1.739c0,2.45,1.675,3.66,3.947,3.66h21.4v-3.52H900.021a.432.432,0,0,1-.458-.458,2.306,2.306,0,0,1,.194-.455l1.829-2.888h13.635a3.581,3.581,0,0,0,3.2-1.921l6.591-11.333a2.125,2.125,0,0,0,.184-.916,1.76,1.76,0,0,0-1.831-1.739H896.279l-1.739-3.66ZM917.311,346.8a3.66,3.66,0,1,0,3.663,3.661A3.66,3.66,0,0,0,917.311,346.8Z" transform="translate(-672.034 -242.226)" fill="#6c63ff"/><path d="M916.111,327.279h-3.069V324.21h-2.3v3.069H907.67v2.3h3.069v3.069h2.3v-3.069h3.069Z" transform="translate(-675.517 -241.299)" fill="#fff"/></g></svg>