<svg xmlns="http://www.w3.org/2000/svg" width="279" height="196.215" viewBox="0 0 279 196.215"><g transform="translate(0 -0.017)"><path d="M712.409,321.139a15.2,15.2,0,0,1-4.1-.567l-55.444-14.84.163-.583,55.444,14.84a14.589,14.589,0,0,0,3.94.544c6.525,0,12.312-3.781,14.073-10.062l39.467-140.748h0l.086-.306a14.628,14.628,0,0,0-10.127-18l-89.119-24.991a14.629,14.629,0,0,0-18.013,10.123l-3.1,11.045-.583-.164,3.1-11.045a15.235,15.235,0,0,1,18.76-10.543l89.12,24.991A15.235,15.235,0,0,1,766.693,169.3h0l-.082.292L727.065,310.635C725.231,317.176,719.2,321.139,712.409,321.139Z" transform="translate(-491.935 -125.264)" fill="#2f2e41"/><path d="M517.956,48.146l1.015.285,3.123.875.327-1.169-1.169-.327,1.027-3.662L524.748,42l.657,6.973-1.818-.512-.327,1.169,4.665,1.309.327-1.169-.991-.276-.951-8.852,4.847-4.214,1.36.382.327-1.169-4.668-1.309L527.85,35.5l1.539.43-6.165,4.844,1.708-6.092,1.169.327.327-1.169-4.668-1.309-.327,1.169,1.751.491L519.5,47.319l-1.751-.491-.045.158-.188.679Z" transform="translate(-360.747 -22.668)" fill="#6c63ff"/><path d="M672.71,231.219a35.375,35.375,0,0,0-3.408,1.7c-.2.115-.406.233-.606.351v-3.747a14.179,14.179,0,0,0-.567-3.984c.176-.109.354-.227.53-.345.161-.106.324-.215.485-.324a40.821,40.821,0,0,0,3.566,6.349Z" transform="translate(-507.991 -194.684)" fill="#6c63ff"/><path d="M723.148,578.454l-1.359-.381-.327,1.167,4.667,1.309.327-1.167-1.537-.431,6.163-4.846-1.709,6.095-1.167-.327-.327,1.167,4.667,1.309.327-1.167-1.75-.491,3.681-13.126,1.75.491.327-1.167-4.667-1.309-.327,1.167,1.167.327-1.027,3.664-2.468,2.145-.656-6.972,1.817.51.327-1.167-4.667-1.309-.327,1.167.992.278.952,8.851Z" transform="translate(-502.908 -393.096)" fill="#6c63ff"/><path d="M885.315,653.919a33.351,33.351,0,0,0,6.2-3.483,51.222,51.222,0,0,0,3.568,6.349,38.1,38.1,0,0,0-6.2,3.483A40.966,40.966,0,0,0,885.315,653.919Z" transform="translate(-659.384 -491.333)" fill="#6c63ff"/><path d="M745.732,453.726s-1.532,9.953-1.988,10.454,3.181,12.218,3.181,12.218l11.659-6.8s2.268-12.578,3.016-13S745.732,453.726,745.732,453.726Z" transform="translate(-560.672 -354.213)" fill="#ffb8b8"/><path d="M745.732,453.726s-1.532,9.953-1.988,10.454,3.181,12.218,3.181,12.218l11.659-6.8s2.268-12.578,3.016-13S745.732,453.726,745.732,453.726Z" transform="translate(-560.672 -354.213)" opacity="0.1"/><circle cx="11.511" cy="11.511" r="11.511" transform="translate(182.569 86.127)" fill="#ffb8b8"/><path d="M716.253,489.346l-1-.911-4.509-6.417s-.517-.341-1.008,1.409l-.491,1.75-4.236,1.644-9.374,40.159,25.085,7.034,10.33-40.206-4.852-5.136-.537-2.478-7.491,3.058Z" transform="translate(-527.162 -373.916)" fill="#fff"/><path d="M670,530.991l.606.17,39.066,10.954L722.734,498.9s-3.09-2.442-5.507-2.805c0,0-4.059-4.6-5.807-5.089s-3.687-4.808-3.687-4.808-2.045,7.292-5.559,11.969-9.633,20.9-9.633,20.9l-1.727-29.745,1.939-7.479a13.773,13.773,0,0,0-3.047,2.451c-1.366,1.5-4.853,2.726-4.853,2.726s-9.185,2.46-10.809,2.635a6.69,6.69,0,0,0-2.369.594l-1.069,7.358L670,501.773Z" transform="translate(-509.295 -373.81)" fill="#2f2e41"/><path d="M675.332,533.582c-.364,2.414-4.1,12.378-4.1,12.378l-.624.627L670,547.2V510.3a1.7,1.7,0,0,1,.606-.421,4.157,4.157,0,0,1,1.069-.285l1.169.327S675.7,531.165,675.332,533.582Z" transform="translate(-509.295 -393.154)" fill="#2f2e41"/><path d="M775.443,612.08s5.733-10.348,10.073-7.872-2.617,9.334-2.617,9.334Z" transform="translate(-582.796 -458.842)" fill="#ffb8b8"/><path d="M685.131,611.623s-11-3.4-11.247-2.525-3.258,6.008-2.383,6.253,7.665,1.835,7.584,2.127,3.255,1.857,3.255,1.857Z" transform="translate(-510.23 -462.417)" fill="#ffb8b8"/><path d="M610.813,375.263l-7,.275-1.458-.409-5.838-3.876-1.934,5.787,7.363-.452L603.4,377l6.054,4.215Z" transform="translate(-414.463 -258.777)" fill="#6c63ff"/><path d="M547.328,510.484l-1.075,2.29L530.8,508.534l-.3-.882V502.8l.606.236.624.245Z" transform="translate(-369.795 -350.471)" fill="#2f2e41"/><path d="M709.793,617.536s-3.628-1.647-3.71-1.355-4.951,8.679-3.784,9.007,5.3,2.429,5.3,2.429Z" transform="translate(-531.684 -467.431)" fill="#fff"/><path d="M752.944,536.217l2.042.573s1.167.327,1.259,2.241,1.676,10.852.929,11.272-.957.046-.537.793.793.537.338,1.039-1.5,16.569-4.886,21.911-4.414,7.886-5.58,7.559l-30.242-8.48s1.347-11.892,2.6-11.857,21.7,4.512,21.7,4.512S748.487,535.282,752.944,536.217Z" transform="translate(-541.546 -411.7)" fill="#2f2e41"/><path d="M741.584,395.234,739.7,393.88s5.63-3.164,11.641-1.066l-1.238-2.2s4.635-.35,7.333,4.737a35.478,35.478,0,0,1,3.714,9.008l2.252.632-1.467,1.616,2.763,2.8-3.282-1.285a9.853,9.853,0,0,1-1.685,4.779l-1.354,1.889s-1.343-6.976-1.129-7.741l-.536,1.912s-1.621-2.31-1.3-3.458l-1.522,1.017.016-2.264-7.664.119,1.63-1.4-4.558-.66,2.31-1.621s-5.668,1.092-6.449,3.141-4.017,4.029-4.017,4.029l-.611-2.234S735.236,396.547,741.584,395.234Z" transform="translate(-554.286 -310.213)" fill="#2f2e41"/><path d="M731.016,374.015l.09-.392c.875-3.811-5.858-10.9-5.926-10.969l-.12-.125.047-.166c.133-.475.668-.9,5.35.118,1.823.4,3.641.877,4.4,1.083-.085-2.176-2.782-5.059-2.811-5.089l-.339-.36.474-.139c3.11-.911,6.749,2.112,7.913,3.182l1.944-6.934,3.848,5.683a7.068,7.068,0,0,1,5.928-3.385l.48.026-.23.422a13.16,13.16,0,0,0-1.927,5.865c4.306-5.116,8.187-4.671,8.356-4.648l.588.078-.408.431a25.337,25.337,0,0,0-6.308,13.894l-.02.265Zm-5.165-11.531c1.19,1.29,6.339,7.113,5.912,10.884l20.027-1.089a26.175,26.175,0,0,1,5.969-13.481c-1.3.117-4.383.86-7.626,5l-.372.475-.159-.582c-.025-.092-.567-2.222,1.682-6.55a6.724,6.724,0,0,0-5.128,3.47l-.244.408-3.641-5.378-1.869,6.664-.366-.371c-.041-.041-3.948-3.953-7.2-3.487.834.971,2.829,3.528,2.61,5.538l-.039.356-.344-.1C731.241,363.176,726.872,362.261,725.851,362.484Z" transform="translate(-547.676 -284.853)" fill="#6c63ff"/><path d="M838.582,357.131a1.087,1.087,0,1,1,1.34-.753,1.087,1.087,0,0,1-1.34.753Zm.423-1.509a.481.481,0,1,0,.333.593.481.481,0,0,0-.333-.593Z" transform="translate(-626.255 -285.392)" fill="#6c63ff"/><path d="M813.674,350.147a1.087,1.087,0,1,1,1.34-.753,1.087,1.087,0,0,1-1.34.753Zm.423-1.509a.481.481,0,1,0,.333.593.481.481,0,0,0-.333-.593Z" transform="translate(-608.892 -280.524)" fill="#6c63ff"/><path d="M775.81,346.246a1.087,1.087,0,1,1,1.34-.753A1.087,1.087,0,0,1,775.81,346.246Zm.423-1.509a.481.481,0,1,0,.333.593.481.481,0,0,0-.333-.593Z" transform="translate(-582.499 -277.804)" fill="#6c63ff"/><path d="M715.363,374.971a1.087,1.087,0,1,1,1.34-.753A1.087,1.087,0,0,1,715.363,374.971Zm.423-1.509a.481.481,0,1,0,.333.593.481.481,0,0,0-.333-.593Z" transform="translate(-540.363 -297.828)" fill="#6c63ff"/><path d="M738.737,358.687a1.087,1.087,0,1,1,1.34-.753A1.087,1.087,0,0,1,738.737,358.687Zm.423-1.509a.481.481,0,1,0,.333.593.481.481,0,0,0-.333-.593Z" transform="translate(-556.656 -286.477)" fill="#6c63ff"/><path d="M588.2,225.407l-.291-.082-57.1-16.012.163-.583,56.812,15.931L623.691,96.613,543.624,74.161l-12.212,43.551-.583-.164L543.2,73.414l.291.082,80.942,22.7-.082.291Z" transform="translate(-370.01 -51.163)" fill="#2f2e41"/><path d="M175.724,703.9c3.765,6.982,11.756,9.98,11.756,9.98s1.886-8.323-1.879-15.305-11.756-9.98-11.756-9.98S171.959,696.916,175.724,703.9Z" transform="translate(-163.112 -517.931)" fill="#2f2e41"/><path d="M154.7,724.947c6.8,4.09,9.415,12.212,9.415,12.212s-8.4,1.492-15.2-2.6S139.5,722.35,139.5,722.35,147.9,720.857,154.7,724.947Z" transform="translate(-139.5 -541.276)" fill="#6c63ff"/><path d="M389.742,201.584a14.844,14.844,0,0,0-2.445-4.747,15.075,15.075,0,0,0-1.263-1.445A14.876,14.876,0,0,0,375.471,191H282.913A14.928,14.928,0,0,0,268,205.913v146.48a14.928,14.928,0,0,0,14.913,14.913h92.558a14.929,14.929,0,0,0,14.913-14.913V205.913a14.8,14.8,0,0,0-.642-4.329Zm.036,150.808A14.325,14.325,0,0,1,375.471,366.7H282.913a14.325,14.325,0,0,1-14.307-14.307V205.913a14.325,14.325,0,0,1,14.307-14.307h92.558a14.272,14.272,0,0,1,10.375,4.465q.223.236.436.482a14.274,14.274,0,0,1,3.5,9.361Z" transform="translate(-229.073 -171.075)" fill="#2f2e41"/><path d="M286.082,240.151c-.017-.039-.038-.075-.056-.113a9.177,9.177,0,0,0,1-4.322c0-4.7-2.935-7.976-7.136-7.976s-7.136,3.28-7.136,7.976,2.935,7.976,7.136,7.976a6.733,6.733,0,0,0,5.239-2.34,5.789,5.789,0,0,0,4.066,2.476l.142-1.392A4.2,4.2,0,0,1,286.082,240.151Zm-6.188,2.141c-3.378,0-5.737-2.7-5.737-6.576s2.359-6.576,5.737-6.576,5.737,2.7,5.737,6.576a7.9,7.9,0,0,1-.639,3.213c-2.088-1.269-5.974-.511-6.5-.4l.288,1.369c1.427-.3,4.267-.539,5.5.237a5.352,5.352,0,0,1-4.387,2.156Z" transform="translate(-232.39 -196.684)" fill="#6c63ff"/><path d="M288.464,289.746a2.428,2.428,0,0,0-3.433,3.433l3.433,3.433,3.433-3.433a2.428,2.428,0,0,0-3.433-3.433Z" transform="translate(-240.449 -239.412)" fill="#6c63ff"/><path d="M615.759,689.928c.017.039.038.075.056.113a9.177,9.177,0,0,0-1,4.322c0,4.7,2.935,7.976,7.136,7.976s7.136-3.28,7.136-7.976-2.935-7.976-7.136-7.976a6.733,6.733,0,0,0-5.239,2.34,5.789,5.789,0,0,0-4.066-2.476l-.142,1.392A4.194,4.194,0,0,1,615.759,689.928Zm6.188-2.141c3.378,0,5.737,2.7,5.737,6.576s-2.359,6.576-5.737,6.576-5.737-2.7-5.737-6.576a7.9,7.9,0,0,1,.639-3.213c2.089,1.269,5.974.511,6.5.4l-.288-1.369c-1.427.3-4.267.539-5.5-.237a5.352,5.352,0,0,1,4.387-2.157Z" transform="translate(-469.213 -516.299)" fill="#6c63ff"/><path d="M632.464,659.915a2.428,2.428,0,0,0,3.433-3.433l-3.433-3.433-3.433,3.433a2.428,2.428,0,0,0,3.433,3.433Z" transform="translate(-480.241 -493.154)" fill="#6c63ff"/><path d="M421.417,448.868c-4.124-6.969-12.283-7.293-12.283-7.293s-7.951-1.017-13.051,9.6c-4.754,9.892-11.315,19.444-1.056,21.759l1.853-5.767,1.148,6.2a40.15,40.15,0,0,0,4.389.075c10.986-.355,21.449.1,21.112-3.839C423.081,464.356,425.385,455.573,421.417,448.868Z" transform="translate(-313.832 -345.724)" fill="#2f2e41"/><path d="M431.564,522.47a4.351,4.351,0,0,1-.376,2.293c-.773,1.35-2.659,1.552-3.794,2.616-1.193,1.119-1.328,2.935-1.385,4.57a12.631,12.631,0,0,0,.514,5.067,12.316,12.316,0,0,0,1.439,2.472q1.039,1.5,2.1,2.982a12.883,12.883,0,0,0,1.256,1.576,10.7,10.7,0,0,0,4.727,2.508,5.909,5.909,0,0,0,3.435.227,6.576,6.576,0,0,0,2-1.228,10.7,10.7,0,0,0,2.261-2.191,10.2,10.2,0,0,0,1.382-4.673,100.832,100.832,0,0,0,.665-14.526,3.56,3.56,0,0,0-.277-1.543c-.575-1.122-2.113-1.361-2.924-2.326a4.652,4.652,0,0,1-.716-3.08l.015-2.743a1.149,1.149,0,0,0-.133-.668,1.132,1.132,0,0,0-.787-.367,26.529,26.529,0,0,0-5.161-.345c-1.4.043-4.088-.074-5.3.706-1.1.708.277,2.664.532,3.762A24.509,24.509,0,0,1,431.564,522.47Z" transform="translate(-339.194 -395.583)" fill="#a0616a"/><circle cx="11.088" cy="11.088" r="11.088" transform="translate(84.497 99.999)" fill="#a0616a"/><path d="M416.256,565.225a16.22,16.22,0,0,1-1.729-3.359,5.453,5.453,0,0,1-.03-3.709,3.038,3.038,0,0,0-3.7.944,6.7,6.7,0,0,0-1.217,3.9,25.468,25.468,0,0,1-.3,4.139c-.666,2.992-3.137,5.451-3.321,8.511-.181,3.01,1.883,5.632,2.9,8.471a14.126,14.126,0,0,1,.757,5.514,2.212,2.212,0,0,0,.355,1.721,1.962,1.962,0,0,0,.767.414c4.9,1.724,10.192,1.873,15.384,2l8.576.217a2.733,2.733,0,0,0,1.514-.254c.769-.472.872-1.529.885-2.432.113-7.772-.218-15.543-.548-23.309a49.486,49.486,0,0,0-.839-8.4,2.41,2.41,0,0,0-1.048-1.79,2.313,2.313,0,0,0-1.767.118A14.073,14.073,0,0,0,426.309,563c-1.76,2.5-2.625,5.509-4.347,8.032-1.25,1.831-1.973.235-2.805-1.113Z" transform="translate(-325.237 -426.672)" fill="#fff"/><path d="M396.4,548.387c-.218.154-.433.318-.639.491a12.377,12.377,0,0,0-2.06,2.169,17.183,17.183,0,0,0-2.333,4.4,42.615,42.615,0,0,0-1.86,8.585,20.72,20.72,0,0,0-.294,3.235c.064,3.987,2.42,7.679,2.423,11.669,0,.151,0,.3-.012.451a13.1,13.1,0,0,1-.23,1.945c-.173.936-.421,1.86-.666,2.781a26.557,26.557,0,0,1-2.49,6.728c-.121.206-.251.409-.385.606H379.37c.067-.2.136-.4.2-.606q2.167-6.421,4.332-12.838c.442-1.309.885-2.623,1.2-3.968a37.585,37.585,0,0,0,.73-5.038q.5-5.266.657-10.554a12.834,12.834,0,0,1,.476-3.759,12.3,12.3,0,0,1,1.509-2.751l2.626-3.953a6.074,6.074,0,0,1,1.751-1.945c.627-.385,1.372-.524,2.033-.848a10.4,10.4,0,0,0,1.194-.791c.988-.7,2.148-1.436,3-.721a1.671,1.671,0,0,1,.351.4,2.027,2.027,0,0,1,.13.233C400.375,546.082,397.5,547.609,396.4,548.387Z" transform="translate(-306.706 -416.711)" fill="#2f2e41"/><path d="M437.424,674.27H398.14c.212-.194.421-.4.624-.606.03-.03.058-.061.088-.091,1.5-1.56,1.845-3.478,2.6-5.507q.85-2.295,1.7-4.586a2.372,2.372,0,0,1,.433-.815,1.344,1.344,0,0,1,.6-.357,2.313,2.313,0,0,1,.527-.1,5.881,5.881,0,0,1,.766,0q10.574.545,21.133,1.33l2.726.209c.742.551,1.475,1.136,2.175,1.754a19.468,19.468,0,0,1,5.377,7.134c.136.336.261.679.364,1.027C437.315,673.864,437.373,674.067,437.424,674.27Z" transform="translate(-319.79 -499.532)" fill="#2f2e41"/><path d="M299.663,328.514l-8.061-4.223-11.132,1.727-2.3,10.172,5.733-.221,1.6-3.737v3.675l2.646-.1,1.535-5.95.96,6.334,9.4-.192Z" transform="translate(-193.901 -226.041)" fill="#2f2e41"/><path d="M490.718,587.84h-8.87c-.064-.2-.124-.4-.182-.606a47.641,47.641,0,0,1-1.375-6.87c-.094-.663-.176-1.33-.251-1.993-.048-.421-.094-.839-.139-1.26-.509-4.677-.9-9.4-2.33-13.877-.173-.542-.36-1.081-.542-1.621a19.118,19.118,0,0,1-.788-2.851c-.388-2.217-.1-4.514-.5-6.728-.224-1.236-.669-2.323-.939-3.456a7,7,0,0,1-.2-2.093,4.508,4.508,0,0,1,2.36-1.169,1.243,1.243,0,0,0,.836-.336,1.049,1.049,0,0,0,.139-.618,29.674,29.674,0,0,0-.245-4.274c-.061-.5-.136-.994-.227-1.487,0-.024-.009-.045-.012-.07a5.869,5.869,0,0,1,2.375-.321c.875,0,1.748,0,2.62.006q2.422.009,4.844.015a10.665,10.665,0,0,1,4.423.639,7.04,7.04,0,0,1,3.193,3.272,18.831,18.831,0,0,1,1.442,4.414,5.919,5.919,0,0,1,.151,1.275c.067,3.411-2.478,6.846-2.732,10.333-.082,1.13.012,2.269-.091,3.4s-.406,2.242-.46,3.375c0,.058-.006.118-.006.176a12.146,12.146,0,0,0,.894,4.311c.769,2.16,1.706,4.253,2.672,6.334.933,2.014,1.89,4.02,2.751,6.062a10.378,10.378,0,0,1,.894,3,4.158,4.158,0,0,1-.457,2.42,2.836,2.836,0,0,1-.36.512l-.006.006c-.027.03-.055.061-.082.088h-8.8Z" transform="translate(-373.084 -413.102)" fill="#2f2e41"/><path d="M541.441,686.793a3.358,3.358,0,0,1-.324,1.16c-.015.036-.03.07-.045.106-.176.415-.354.824-.539,1.236-.091.2-.182.4-.276.606H535.24a5.617,5.617,0,0,0,.5-.606c.769-1.069,1.215-2.369,2-3.523a2.711,2.711,0,0,1,.367-.436C539.366,684.118,541.52,684.367,541.441,686.793Z" transform="translate(-415.358 -515.163)" fill="#ffb8b8"/><path d="M535.424,598.123a5.932,5.932,0,0,0,.161-.606c.036-.161.067-.318.091-.479.161-1.057.157-2.139.409-3.178.354-1.487,1.418-3.247.542-4.5a4.754,4.754,0,0,0,1.881-.842,1.618,1.618,0,0,0,.509-1.86c-.312-.609-1.157-1.012-1.042-1.687a1.609,1.609,0,0,1,.3-.588,4.4,4.4,0,0,0-.076-4.829c-.276-.394-.615-.739-.866-1.151a6.87,6.87,0,0,1-.627-1.6,29.738,29.738,0,0,0-3.826-7.931,5.259,5.259,0,0,1-.845-1.563,6.452,6.452,0,0,1-.067-1.857,12.449,12.449,0,0,0-2.172-6.9c-.1-.151-.2-.3-.3-.448a39.959,39.959,0,0,0-4.423-5.153,2.836,2.836,0,0,0-1.557,1.13,3.359,3.359,0,0,0-.3,1.127c-.43,3-.8,6.016-1.094,9.03a22.071,22.071,0,0,0-.121,4.58A7.394,7.394,0,0,0,523.722,573c.645.709,1.463,1.236,2.163,1.89q.168.159.327.327a10.725,10.725,0,0,1,1.336,1.754,15.122,15.122,0,0,1,2.224,9.067,14.726,14.726,0,0,1-.227,1.709,7.067,7.067,0,0,1-.806,2.3c-.318.524-.736.981-1.024,1.524a1.927,1.927,0,0,0-.139,1.76,3.583,3.583,0,0,1,1.251.224,5.31,5.31,0,0,1,2.363,1.8,7.853,7.853,0,0,1,.6.921,11.325,11.325,0,0,1,.6,1.236c.073.167.142.339.209.512a.5.5,0,0,1,.036.094Z" transform="translate(-406.075 -423.385)" fill="#2f2e41"/><path d="M311.225,402.8l-6.423,2.8-1.507.149-6.848-1.489.3,6.093,6.695-3.1,1.507-.149,7.172,1.725Z" transform="translate(-206.643 -280.771)" fill="#6c63ff"/><path d="M390.622,394.036c.067.2.124.4.176.606h2.248a5.616,5.616,0,0,0,.5-.606ZM331.25,261.049V394.642h83.761V261.049ZM414.4,394.036H331.856V261.655H414.4Zm-23.783,0c.067.2.124.4.176.606h2.248a5.616,5.616,0,0,0,.5-.606Z" transform="translate(-273.163 -219.904)" fill="#2f2e41"/><path d="M416.242,417.472l.052-.26a25.337,25.337,0,0,0-2.322-15.081l-.276-.525.587.084c.169.024,4.026.643,6.791,6.732a13.16,13.16,0,0,0-.272-6.168l-.108-.468.469.1a7.067,7.067,0,0,1,4.794,4.859l5.239-4.433v7.2c1.409-.717,5.73-2.645,8.478-.928l.419.262-.424.255c-.036.022-3.411,2.069-4.081,4.141.789.007,2.669.034,4.531.145,4.782.287,5.183.838,5.183,1.331v.173l-.149.088c-.085.05-8.482,5.056-8.668,8.962l-.019.4Zm18.961-3.621h-.358l.059-.353c.332-1.995,2.944-3.918,4.009-4.628-3-1.326-7.819,1.385-7.87,1.414l-.453.259v-6.922l-4.958,4.2-.125-.459a6.724,6.724,0,0,0-4-4.726c1,4.775-.1,6.68-.149,6.761l-.31.517-.23-.558c-2-4.866-4.767-6.413-5.992-6.878a26.175,26.175,0,0,1,2.108,14.592l18.989,6.456c.607-3.746,7.136-7.962,8.631-8.883-.923-.49-5.377-.789-9.35-.789Z" transform="translate(-330.633 -317.881)" fill="#6c63ff"/><path d="M408.671,389.377a1.087,1.087,0,1,1,1.087,1.087A1.087,1.087,0,0,1,408.671,389.377Zm.606,0a.481.481,0,1,0,.481-.481A.481.481,0,0,0,409.277,389.377Z" transform="translate(-327.131 -308.599)" fill="#6c63ff"/><path d="M434.541,389.377a1.087,1.087,0,1,1,1.087,1.087A1.087,1.087,0,0,1,434.541,389.377Zm.606,0a.481.481,0,1,0,.481-.481A.481.481,0,0,0,435.147,389.377Z" transform="translate(-345.164 -308.599)" fill="#6c63ff"/><path d="M472.052,395.845a1.087,1.087,0,1,1,1.087,1.087,1.087,1.087,0,0,1-1.087-1.087Zm.606,0a.481.481,0,1,0,.481-.481.481.481,0,0,0-.481.481Z" transform="translate(-371.311 -313.108)" fill="#6c63ff"/><path d="M522.5,439.823a1.087,1.087,0,1,1,1.087,1.087A1.087,1.087,0,0,1,522.5,439.823Zm.606,0a.481.481,0,1,0,.481-.481A.481.481,0,0,0,523.1,439.823Z" transform="translate(-406.476 -343.764)" fill="#6c63ff"/><path d="M504.389,417.833a1.087,1.087,0,1,1,1.087,1.087,1.087,1.087,0,0,1-1.087-1.087Zm.606,0a.481.481,0,1,0,.481-.481A.481.481,0,0,0,504.995,417.833Z" transform="translate(-393.853 -328.435)" fill="#6c63ff"/><rect width="275.365" height="0.606" transform="translate(3.635 195.489)" fill="#3f3d56"/></g></svg>